<?xml version="1.0" encoding="utf-8"?>
<svg xmlns="http://www.w3.org/2000/svg" xmlns:xlink="http://www.w3.org/1999/xlink" width="600" height="400" viewBox="0 0 2400 1600">
<defs>
  <clipPath id="clip020">
    <rect x="0" y="0" width="2400" height="1600"/>
  </clipPath>
</defs>
<path clip-path="url(#clip020)" d="
M0 1600 L2400 1600 L2400 0 L0 0  Z
  " fill="#ffffff" fill-rule="evenodd" fill-opacity="1"/>
<defs>
  <clipPath id="clip021">
    <rect x="480" y="0" width="1681" height="1600"/>
  </clipPath>
</defs>
<path clip-path="url(#clip020)" d="
M136.633 1457.78 L2352.76 1457.78 L2352.76 47.2441 L136.633 47.2441  Z
  " fill="#ffffff" fill-rule="evenodd" fill-opacity="1"/>
<defs>
  <clipPath id="clip022">
    <rect x="136" y="47" width="2217" height="1412"/>
  </clipPath>
</defs>
<polyline clip-path="url(#clip022)" style="stroke:#000000; stroke-linecap:round; stroke-linejoin:round; stroke-width:2; stroke-opacity:0.1; fill:none" points="
  1175.73,1457.78 1175.73,47.2441 
  "/>
<polyline clip-path="url(#clip022)" style="stroke:#000000; stroke-linecap:round; stroke-linejoin:round; stroke-width:2; stroke-opacity:0.1; fill:none" points="
  1196.39,1457.78 1196.39,47.2441 
  "/>
<polyline clip-path="url(#clip020)" style="stroke:#000000; stroke-linecap:round; stroke-linejoin:round; stroke-width:4; stroke-opacity:1; fill:none" points="
  136.633,1457.78 2352.76,1457.78 
  "/>
<polyline clip-path="url(#clip020)" style="stroke:#000000; stroke-linecap:round; stroke-linejoin:round; stroke-width:4; stroke-opacity:1; fill:none" points="
  1175.73,1457.78 1175.73,1438.88 
  "/>
<polyline clip-path="url(#clip020)" style="stroke:#000000; stroke-linecap:round; stroke-linejoin:round; stroke-width:4; stroke-opacity:1; fill:none" points="
  1196.39,1457.78 1196.39,1438.88 
  "/>
<path clip-path="url(#clip020)" d="M1167.73 1539.45 L1171.41 1539.45 L1171.41 1535.07 L1173.07 1535.07 L1173.07 1539.45 L1180.1 1539.45 Q1181.69 1539.45 1182.14 1539.02 Q1182.59 1538.58 1182.59 1537.25 L1182.59 1535.07 L1184.37 1535.07 L1184.37 1537.25 Q1184.37 1539.72 1183.46 1540.66 Q1182.53 1541.59 1180.1 1541.59 L1173.07 1541.59 L1173.07 1543.16 L1171.41 1543.16 L1171.41 1541.59 L1167.73 1541.59 L1167.73 1539.45 Z" fill="#000000" fill-rule="evenodd" fill-opacity="1" /><path clip-path="url(#clip020)" d="M1179.26 1532.48 L1171.41 1532.48 L1171.41 1530.35 L1179.18 1530.35 Q1181.02 1530.35 1181.94 1529.64 Q1182.86 1528.92 1182.86 1527.48 Q1182.86 1525.76 1181.76 1524.76 Q1180.66 1523.76 1178.76 1523.76 L1171.41 1523.76 L1171.41 1521.63 L1184.37 1521.63 L1184.37 1523.76 L1182.38 1523.76 Q1183.56 1524.53 1184.14 1525.56 Q1184.71 1526.58 1184.71 1527.94 Q1184.71 1530.17 1183.32 1531.33 Q1181.93 1532.48 1179.26 1532.48 M1171.1 1527.13 L1171.1 1527.13 Z" fill="#000000" fill-rule="evenodd" fill-opacity="1" /><path clip-path="url(#clip020)" d="M1176.55 1506.47 L1184.37 1506.47 L1184.37 1508.6 L1176.62 1508.6 Q1174.78 1508.6 1173.86 1509.31 Q1172.95 1510.03 1172.95 1511.47 Q1172.95 1513.19 1174.05 1514.19 Q1175.15 1515.18 1177.05 1515.18 L1184.37 1515.18 L1184.37 1517.32 L1171.41 1517.32 L1171.41 1515.18 L1173.42 1515.18 Q1172.26 1514.42 1171.68 1513.39 Q1171.1 1512.35 1171.1 1510.99 Q1171.1 1508.76 1172.49 1507.61 Q1173.86 1506.47 1176.55 1506.47 Z" fill="#000000" fill-rule="evenodd" fill-opacity="1" /><path clip-path="url(#clip020)" d="M1177.36 1491.13 L1178.4 1491.13 L1178.4 1500.92 Q1180.6 1500.78 1181.76 1499.6 Q1182.9 1498.41 1182.9 1496.29 Q1182.9 1495.07 1182.6 1493.92 Q1182.3 1492.76 1181.7 1491.63 L1183.71 1491.63 Q1184.2 1492.77 1184.45 1493.98 Q1184.71 1495.18 1184.71 1496.42 Q1184.71 1499.52 1182.9 1501.34 Q1181.1 1503.14 1178.02 1503.14 Q1174.84 1503.14 1172.97 1501.43 Q1171.1 1499.71 1171.1 1496.79 Q1171.1 1494.17 1172.79 1492.66 Q1174.47 1491.13 1177.36 1491.13 M1176.73 1493.26 Q1174.99 1493.28 1173.94 1494.24 Q1172.9 1495.19 1172.9 1496.77 Q1172.9 1498.55 1173.91 1499.63 Q1174.92 1500.69 1176.75 1500.85 L1176.73 1493.26 Z" fill="#000000" fill-rule="evenodd" fill-opacity="1" /><path clip-path="url(#clip020)" d="M1173.38 1479.1 L1166.36 1479.1 L1166.36 1476.98 L1184.37 1476.98 L1184.37 1479.1 L1182.43 1479.1 Q1183.59 1479.78 1184.15 1480.81 Q1184.71 1481.82 1184.71 1483.26 Q1184.71 1485.61 1182.83 1487.09 Q1180.96 1488.56 1177.9 1488.56 Q1174.85 1488.56 1172.97 1487.09 Q1171.1 1485.61 1171.1 1483.26 Q1171.1 1481.82 1171.66 1480.81 Q1172.22 1479.78 1173.38 1479.1 M1177.9 1486.36 Q1180.25 1486.36 1181.6 1485.4 Q1182.93 1484.43 1182.93 1482.74 Q1182.93 1481.05 1181.6 1480.08 Q1180.25 1479.1 1177.9 1479.1 Q1175.55 1479.1 1174.22 1480.08 Q1172.88 1481.05 1172.88 1482.74 Q1172.88 1484.43 1174.22 1485.4 Q1175.55 1486.36 1177.9 1486.36 Z" fill="#000000" fill-rule="evenodd" fill-opacity="1" /><path clip-path="url(#clip020)" d="M1199.92 1571.82 L1192.07 1571.82 L1192.07 1569.69 L1199.83 1569.69 Q1201.67 1569.69 1202.6 1568.98 Q1203.51 1568.26 1203.51 1566.82 Q1203.51 1565.1 1202.42 1564.1 Q1201.32 1563.1 1199.42 1563.1 L1192.07 1563.1 L1192.07 1560.97 L1205.03 1560.97 L1205.03 1563.1 L1203.04 1563.1 Q1204.22 1563.87 1204.8 1564.9 Q1205.37 1565.92 1205.37 1567.28 Q1205.37 1569.51 1203.98 1570.67 Q1202.59 1571.82 1199.92 1571.82 M1191.76 1566.47 L1191.76 1566.47 Z" fill="#000000" fill-rule="evenodd" fill-opacity="1" /><path clip-path="url(#clip020)" d="M1197.21 1545.81 L1205.03 1545.81 L1205.03 1547.94 L1197.28 1547.94 Q1195.44 1547.94 1194.52 1548.65 Q1193.61 1549.37 1193.61 1550.81 Q1193.61 1552.53 1194.71 1553.53 Q1195.81 1554.52 1197.7 1554.52 L1205.03 1554.52 L1205.03 1556.66 L1192.07 1556.66 L1192.07 1554.52 L1194.08 1554.52 Q1192.91 1553.76 1192.33 1552.73 Q1191.76 1551.69 1191.76 1550.33 Q1191.76 1548.1 1193.14 1546.95 Q1194.52 1545.81 1197.21 1545.81 Z" fill="#000000" fill-rule="evenodd" fill-opacity="1" /><path clip-path="url(#clip020)" d="M1188.39 1539.45 L1192.07 1539.45 L1192.07 1535.07 L1193.72 1535.07 L1193.72 1539.45 L1200.76 1539.45 Q1202.35 1539.45 1202.8 1539.02 Q1203.25 1538.58 1203.25 1537.25 L1203.25 1535.07 L1205.03 1535.07 L1205.03 1537.25 Q1205.03 1539.72 1204.12 1540.66 Q1203.19 1541.59 1200.76 1541.59 L1193.72 1541.59 L1193.72 1543.16 L1192.07 1543.16 L1192.07 1541.59 L1188.39 1541.59 L1188.39 1539.45 Z" fill="#000000" fill-rule="evenodd" fill-opacity="1" /><path clip-path="url(#clip020)" d="M1199.92 1532.48 L1192.07 1532.48 L1192.07 1530.35 L1199.83 1530.35 Q1201.67 1530.35 1202.6 1529.64 Q1203.51 1528.92 1203.51 1527.48 Q1203.51 1525.76 1202.42 1524.76 Q1201.32 1523.76 1199.42 1523.76 L1192.07 1523.76 L1192.07 1521.63 L1205.03 1521.63 L1205.03 1523.76 L1203.04 1523.76 Q1204.22 1524.53 1204.8 1525.56 Q1205.37 1526.58 1205.37 1527.94 Q1205.37 1530.17 1203.98 1531.33 Q1202.59 1532.48 1199.92 1532.48 M1191.76 1527.13 L1191.76 1527.13 Z" fill="#000000" fill-rule="evenodd" fill-opacity="1" /><path clip-path="url(#clip020)" d="M1197.21 1506.47 L1205.03 1506.47 L1205.03 1508.6 L1197.28 1508.6 Q1195.44 1508.6 1194.52 1509.31 Q1193.61 1510.03 1193.61 1511.47 Q1193.61 1513.19 1194.71 1514.19 Q1195.81 1515.18 1197.7 1515.18 L1205.03 1515.18 L1205.03 1517.32 L1192.07 1517.32 L1192.07 1515.18 L1194.08 1515.18 Q1192.91 1514.42 1192.33 1513.39 Q1191.76 1512.35 1191.76 1510.99 Q1191.76 1508.76 1193.14 1507.61 Q1194.52 1506.47 1197.21 1506.47 Z" fill="#000000" fill-rule="evenodd" fill-opacity="1" /><path clip-path="url(#clip020)" d="M1198.02 1491.13 L1199.06 1491.13 L1199.06 1500.92 Q1201.26 1500.78 1202.42 1499.6 Q1203.56 1498.41 1203.56 1496.29 Q1203.56 1495.07 1203.26 1493.92 Q1202.96 1492.76 1202.36 1491.63 L1204.37 1491.63 Q1204.86 1492.77 1205.11 1493.98 Q1205.37 1495.18 1205.37 1496.42 Q1205.37 1499.52 1203.56 1501.34 Q1201.76 1503.14 1198.68 1503.14 Q1195.49 1503.14 1193.63 1501.43 Q1191.76 1499.71 1191.76 1496.79 Q1191.76 1494.17 1193.45 1492.66 Q1195.12 1491.13 1198.02 1491.13 M1197.39 1493.26 Q1195.64 1493.28 1194.6 1494.24 Q1193.56 1495.19 1193.56 1496.77 Q1193.56 1498.55 1194.57 1499.63 Q1195.58 1500.69 1197.4 1500.85 L1197.39 1493.26 Z" fill="#000000" fill-rule="evenodd" fill-opacity="1" /><path clip-path="url(#clip020)" d="M1194.04 1479.1 L1187.02 1479.1 L1187.02 1476.98 L1205.03 1476.98 L1205.03 1479.1 L1203.09 1479.1 Q1204.24 1479.78 1204.81 1480.81 Q1205.37 1481.82 1205.37 1483.26 Q1205.37 1485.61 1203.49 1487.09 Q1201.62 1488.56 1198.56 1488.56 Q1195.51 1488.56 1193.63 1487.09 Q1191.76 1485.61 1191.76 1483.26 Q1191.76 1481.82 1192.32 1480.81 Q1192.88 1479.78 1194.04 1479.1 M1198.56 1486.36 Q1200.91 1486.36 1202.25 1485.4 Q1203.58 1484.43 1203.58 1482.74 Q1203.58 1481.05 1202.25 1480.08 Q1200.91 1479.1 1198.56 1479.1 Q1196.21 1479.1 1194.88 1480.08 Q1193.54 1481.05 1193.54 1482.74 Q1193.54 1484.43 1194.88 1485.4 Q1196.21 1486.36 1198.56 1486.36 Z" fill="#000000" fill-rule="evenodd" fill-opacity="1" /><polyline clip-path="url(#clip022)" style="stroke:#000000; stroke-linecap:round; stroke-linejoin:round; stroke-width:2; stroke-opacity:0.1; fill:none" points="
  136.633,1318.46 2352.76,1318.46 
  "/>
<polyline clip-path="url(#clip022)" style="stroke:#000000; stroke-linecap:round; stroke-linejoin:round; stroke-width:2; stroke-opacity:0.1; fill:none" points="
  136.633,1096.19 2352.76,1096.19 
  "/>
<polyline clip-path="url(#clip022)" style="stroke:#000000; stroke-linecap:round; stroke-linejoin:round; stroke-width:2; stroke-opacity:0.1; fill:none" points="
  136.633,873.924 2352.76,873.924 
  "/>
<polyline clip-path="url(#clip022)" style="stroke:#000000; stroke-linecap:round; stroke-linejoin:round; stroke-width:2; stroke-opacity:0.1; fill:none" points="
  136.633,651.657 2352.76,651.657 
  "/>
<polyline clip-path="url(#clip022)" style="stroke:#000000; stroke-linecap:round; stroke-linejoin:round; stroke-width:2; stroke-opacity:0.1; fill:none" points="
  136.633,429.39 2352.76,429.39 
  "/>
<polyline clip-path="url(#clip022)" style="stroke:#000000; stroke-linecap:round; stroke-linejoin:round; stroke-width:2; stroke-opacity:0.1; fill:none" points="
  136.633,207.122 2352.76,207.122 
  "/>
<polyline clip-path="url(#clip020)" style="stroke:#000000; stroke-linecap:round; stroke-linejoin:round; stroke-width:4; stroke-opacity:1; fill:none" points="
  136.633,1457.78 136.633,47.2441 
  "/>
<polyline clip-path="url(#clip020)" style="stroke:#000000; stroke-linecap:round; stroke-linejoin:round; stroke-width:4; stroke-opacity:1; fill:none" points="
  136.633,1318.46 155.531,1318.46 
  "/>
<polyline clip-path="url(#clip020)" style="stroke:#000000; stroke-linecap:round; stroke-linejoin:round; stroke-width:4; stroke-opacity:1; fill:none" points="
  136.633,1096.19 155.531,1096.19 
  "/>
<polyline clip-path="url(#clip020)" style="stroke:#000000; stroke-linecap:round; stroke-linejoin:round; stroke-width:4; stroke-opacity:1; fill:none" points="
  136.633,873.924 155.531,873.924 
  "/>
<polyline clip-path="url(#clip020)" style="stroke:#000000; stroke-linecap:round; stroke-linejoin:round; stroke-width:4; stroke-opacity:1; fill:none" points="
  136.633,651.657 155.531,651.657 
  "/>
<polyline clip-path="url(#clip020)" style="stroke:#000000; stroke-linecap:round; stroke-linejoin:round; stroke-width:4; stroke-opacity:1; fill:none" points="
  136.633,429.39 155.531,429.39 
  "/>
<polyline clip-path="url(#clip020)" style="stroke:#000000; stroke-linecap:round; stroke-linejoin:round; stroke-width:4; stroke-opacity:1; fill:none" points="
  136.633,207.122 155.531,207.122 
  "/>
<path clip-path="url(#clip020)" d="M56.9643 1311.36 Q55.1588 1311.36 54.2444 1313.14 Q53.3417 1314.91 53.3417 1318.47 Q53.3417 1322.03 54.2444 1323.81 Q55.1588 1325.58 56.9643 1325.58 Q58.7814 1325.58 59.6842 1323.81 Q60.5986 1322.03 60.5986 1318.47 Q60.5986 1314.91 59.6842 1313.14 Q58.7814 1311.36 56.9643 1311.36 M56.9643 1309.51 Q59.8694 1309.51 61.3972 1311.81 Q62.9365 1314.1 62.9365 1318.47 Q62.9365 1322.84 61.3972 1325.14 Q59.8694 1327.43 56.9643 1327.43 Q54.0592 1327.43 52.5199 1325.14 Q50.9921 1322.84 50.9921 1318.47 Q50.9921 1314.1 52.5199 1311.81 Q54.0592 1309.51 56.9643 1309.51 Z" fill="#000000" fill-rule="evenodd" fill-opacity="1" /><path clip-path="url(#clip020)" d="M67.0453 1324.16 L69.4874 1324.16 L69.4874 1327.1 L67.0453 1327.1 L67.0453 1324.16 Z" fill="#000000" fill-rule="evenodd" fill-opacity="1" /><path clip-path="url(#clip020)" d="M74.9851 1325.13 L78.8045 1325.13 L78.8045 1311.95 L74.6494 1312.78 L74.6494 1310.65 L78.7813 1309.82 L81.1193 1309.82 L81.1193 1325.13 L84.9387 1325.13 L84.9387 1327.1 L74.9851 1327.1 L74.9851 1325.13 Z" fill="#000000" fill-rule="evenodd" fill-opacity="1" /><path clip-path="url(#clip020)" d="M94.6609 1311.36 Q92.8553 1311.36 91.941 1313.14 Q91.0382 1314.91 91.0382 1318.47 Q91.0382 1322.03 91.941 1323.81 Q92.8553 1325.58 94.6609 1325.58 Q96.478 1325.58 97.3808 1323.81 Q98.2951 1322.03 98.2951 1318.47 Q98.2951 1314.91 97.3808 1313.14 Q96.478 1311.36 94.6609 1311.36 M94.6609 1309.51 Q97.566 1309.51 99.0937 1311.81 Q100.633 1314.1 100.633 1318.47 Q100.633 1322.84 99.0937 1325.14 Q97.566 1327.43 94.6609 1327.43 Q91.7558 1327.43 90.2165 1325.14 Q88.6887 1322.84 88.6887 1318.47 Q88.6887 1314.1 90.2165 1311.81 Q91.7558 1309.51 94.6609 1309.51 Z" fill="#000000" fill-rule="evenodd" fill-opacity="1" /><path clip-path="url(#clip020)" d="M57.462 1089.09 Q55.6565 1089.09 54.7421 1090.87 Q53.8393 1092.64 53.8393 1096.21 Q53.8393 1099.76 54.7421 1101.54 Q55.6565 1103.31 57.462 1103.31 Q59.2791 1103.31 60.1819 1101.54 Q61.0962 1099.76 61.0962 1096.21 Q61.0962 1092.64 60.1819 1090.87 Q59.2791 1089.09 57.462 1089.09 M57.462 1087.24 Q60.3671 1087.24 61.8948 1089.54 Q63.4342 1091.83 63.4342 1096.21 Q63.4342 1100.57 61.8948 1102.87 Q60.3671 1105.17 57.462 1105.17 Q54.5569 1105.17 53.0176 1102.87 Q51.4898 1100.57 51.4898 1096.21 Q51.4898 1091.83 53.0176 1089.54 Q54.5569 1087.24 57.462 1087.24 Z" fill="#000000" fill-rule="evenodd" fill-opacity="1" /><path clip-path="url(#clip020)" d="M67.543 1101.89 L69.9851 1101.89 L69.9851 1104.83 L67.543 1104.83 L67.543 1101.89 Z" fill="#000000" fill-rule="evenodd" fill-opacity="1" /><path clip-path="url(#clip020)" d="M75.4827 1102.86 L79.3022 1102.86 L79.3022 1089.68 L75.1471 1090.51 L75.1471 1088.38 L79.279 1087.55 L81.617 1087.55 L81.617 1102.86 L85.4364 1102.86 L85.4364 1104.83 L75.4827 1104.83 L75.4827 1102.86 Z" fill="#000000" fill-rule="evenodd" fill-opacity="1" /><path clip-path="url(#clip020)" d="M90.1817 1087.55 L99.3599 1087.55 L99.3599 1089.52 L92.3229 1089.52 L92.3229 1093.75 Q92.8322 1093.58 93.3414 1093.5 Q93.8507 1093.41 94.3599 1093.41 Q97.2535 1093.41 98.9433 1094.99 Q100.633 1096.58 100.633 1099.29 Q100.633 1102.08 98.897 1103.63 Q97.1609 1105.17 94.0012 1105.17 Q92.9132 1105.17 91.7789 1104.98 Q90.6563 1104.8 89.4526 1104.43 L89.4526 1102.08 Q90.4942 1102.64 91.6053 1102.92 Q92.7164 1103.2 93.9549 1103.2 Q95.9572 1103.2 97.1261 1102.15 Q98.2951 1101.09 98.2951 1099.29 Q98.2951 1097.48 97.1261 1096.43 Q95.9572 1095.37 93.9549 1095.37 Q93.0174 1095.37 92.0799 1095.58 Q91.1539 1095.79 90.1817 1096.23 L90.1817 1087.55 Z" fill="#000000" fill-rule="evenodd" fill-opacity="1" /><path clip-path="url(#clip020)" d="M56.9643 866.823 Q55.1588 866.823 54.2444 868.605 Q53.3417 870.376 53.3417 873.941 Q53.3417 877.494 54.2444 879.277 Q55.1588 881.047 56.9643 881.047 Q58.7814 881.047 59.6842 879.277 Q60.5986 877.494 60.5986 873.941 Q60.5986 870.376 59.6842 868.605 Q58.7814 866.823 56.9643 866.823 M56.9643 864.971 Q59.8694 864.971 61.3972 867.274 Q62.9365 869.566 62.9365 873.941 Q62.9365 878.304 61.3972 880.608 Q59.8694 882.899 56.9643 882.899 Q54.0592 882.899 52.5199 880.608 Q50.9921 878.304 50.9921 873.941 Q50.9921 869.566 52.5199 867.274 Q54.0592 864.971 56.9643 864.971 Z" fill="#000000" fill-rule="evenodd" fill-opacity="1" /><path clip-path="url(#clip020)" d="M67.0453 879.624 L69.4874 879.624 L69.4874 882.564 L67.0453 882.564 L67.0453 879.624 Z" fill="#000000" fill-rule="evenodd" fill-opacity="1" /><path clip-path="url(#clip020)" d="M76.5938 880.596 L84.7535 880.596 L84.7535 882.564 L73.7814 882.564 L73.7814 880.596 Q75.1124 879.219 77.404 876.904 Q79.7072 874.577 80.2975 873.906 Q81.4202 872.645 81.86 871.777 Q82.3114 870.897 82.3114 870.052 Q82.3114 868.675 81.3392 867.807 Q80.3785 866.939 78.8276 866.939 Q77.7281 866.939 76.5012 867.321 Q75.286 867.703 73.8971 868.478 L73.8971 866.117 Q75.3091 865.55 76.536 865.26 Q77.7628 864.971 78.7813 864.971 Q81.4665 864.971 83.0637 866.314 Q84.6609 867.656 84.6609 869.902 Q84.6609 870.966 84.2558 871.927 Q83.8623 872.876 82.8091 874.172 Q82.5197 874.508 80.9688 876.117 Q79.4179 877.714 76.5938 880.596 Z" fill="#000000" fill-rule="evenodd" fill-opacity="1" /><path clip-path="url(#clip020)" d="M94.6609 866.823 Q92.8553 866.823 91.941 868.605 Q91.0382 870.376 91.0382 873.941 Q91.0382 877.494 91.941 879.277 Q92.8553 881.047 94.6609 881.047 Q96.478 881.047 97.3808 879.277 Q98.2951 877.494 98.2951 873.941 Q98.2951 870.376 97.3808 868.605 Q96.478 866.823 94.6609 866.823 M94.6609 864.971 Q97.566 864.971 99.0937 867.274 Q100.633 869.566 100.633 873.941 Q100.633 878.304 99.0937 880.608 Q97.566 882.899 94.6609 882.899 Q91.7558 882.899 90.2165 880.608 Q88.6887 878.304 88.6887 873.941 Q88.6887 869.566 90.2165 867.274 Q91.7558 864.971 94.6609 864.971 Z" fill="#000000" fill-rule="evenodd" fill-opacity="1" /><path clip-path="url(#clip020)" d="M57.462 644.556 Q55.6565 644.556 54.7421 646.338 Q53.8393 648.109 53.8393 651.674 Q53.8393 655.227 54.7421 657.009 Q55.6565 658.78 57.462 658.78 Q59.2791 658.78 60.1819 657.009 Q61.0962 655.227 61.0962 651.674 Q61.0962 648.109 60.1819 646.338 Q59.2791 644.556 57.462 644.556 M57.462 642.704 Q60.3671 642.704 61.8948 645.007 Q63.4342 647.299 63.4342 651.674 Q63.4342 656.037 61.8948 658.341 Q60.3671 660.632 57.462 660.632 Q54.5569 660.632 53.0176 658.341 Q51.4898 656.037 51.4898 651.674 Q51.4898 647.299 53.0176 645.007 Q54.5569 642.704 57.462 642.704 Z" fill="#000000" fill-rule="evenodd" fill-opacity="1" /><path clip-path="url(#clip020)" d="M67.543 657.357 L69.9851 657.357 L69.9851 660.297 L67.543 660.297 L67.543 657.357 Z" fill="#000000" fill-rule="evenodd" fill-opacity="1" /><path clip-path="url(#clip020)" d="M77.0915 658.329 L85.2512 658.329 L85.2512 660.297 L74.279 660.297 L74.279 658.329 Q75.61 656.952 77.9017 654.637 Q80.2049 652.31 80.7952 651.639 Q81.9179 650.378 82.3577 649.51 Q82.8091 648.63 82.8091 647.785 Q82.8091 646.408 81.8369 645.54 Q80.8762 644.672 79.3253 644.672 Q78.2258 644.672 76.9989 645.054 Q75.7837 645.435 74.3948 646.211 L74.3948 643.85 Q75.8068 643.283 77.0337 642.993 Q78.2605 642.704 79.279 642.704 Q81.9642 642.704 83.5614 644.047 Q85.1586 645.389 85.1586 647.635 Q85.1586 648.699 84.7535 649.66 Q84.36 650.609 83.3068 651.905 Q83.0174 652.241 81.4665 653.85 Q79.9156 655.447 77.0915 658.329 Z" fill="#000000" fill-rule="evenodd" fill-opacity="1" /><path clip-path="url(#clip020)" d="M90.1817 643.017 L99.3599 643.017 L99.3599 644.984 L92.3229 644.984 L92.3229 649.22 Q92.8322 649.047 93.3414 648.966 Q93.8507 648.873 94.3599 648.873 Q97.2535 648.873 98.9433 650.459 Q100.633 652.044 100.633 654.753 Q100.633 657.542 98.897 659.093 Q97.1609 660.632 94.0012 660.632 Q92.9132 660.632 91.7789 660.447 Q90.6563 660.262 89.4526 659.891 L89.4526 657.542 Q90.4942 658.109 91.6053 658.387 Q92.7164 658.665 93.9549 658.665 Q95.9572 658.665 97.1261 657.611 Q98.2951 656.558 98.2951 654.753 Q98.2951 652.947 97.1261 651.894 Q95.9572 650.841 93.9549 650.841 Q93.0174 650.841 92.0799 651.049 Q91.1539 651.257 90.1817 651.697 L90.1817 643.017 Z" fill="#000000" fill-rule="evenodd" fill-opacity="1" /><path clip-path="url(#clip020)" d="M56.9643 422.289 Q55.1588 422.289 54.2444 424.071 Q53.3417 425.842 53.3417 429.407 Q53.3417 432.96 54.2444 434.742 Q55.1588 436.513 56.9643 436.513 Q58.7814 436.513 59.6842 434.742 Q60.5986 432.96 60.5986 429.407 Q60.5986 425.842 59.6842 424.071 Q58.7814 422.289 56.9643 422.289 M56.9643 420.437 Q59.8694 420.437 61.3972 422.74 Q62.9365 425.032 62.9365 429.407 Q62.9365 433.77 61.3972 436.073 Q59.8694 438.365 56.9643 438.365 Q54.0592 438.365 52.5199 436.073 Q50.9921 433.77 50.9921 429.407 Q50.9921 425.032 52.5199 422.74 Q54.0592 420.437 56.9643 420.437 Z" fill="#000000" fill-rule="evenodd" fill-opacity="1" /><path clip-path="url(#clip020)" d="M67.0453 435.09 L69.4874 435.09 L69.4874 438.03 L67.0453 438.03 L67.0453 435.09 Z" fill="#000000" fill-rule="evenodd" fill-opacity="1" /><path clip-path="url(#clip020)" d="M81.6633 428.712 Q83.3415 429.071 84.279 430.205 Q85.2281 431.34 85.2281 433.006 Q85.2281 435.564 83.4688 436.965 Q81.7096 438.365 78.4688 438.365 Q77.3809 438.365 76.2235 438.145 Q75.0776 437.937 73.8508 437.509 L73.8508 435.252 Q74.823 435.819 75.9804 436.108 Q77.1378 436.398 78.3994 436.398 Q80.5984 436.398 81.7443 435.53 Q82.9017 434.661 82.9017 433.006 Q82.9017 431.479 81.8253 430.622 Q80.7605 429.754 78.8508 429.754 L76.8369 429.754 L76.8369 427.833 L78.9434 427.833 Q80.6679 427.833 81.5822 427.15 Q82.4966 426.455 82.4966 425.159 Q82.4966 423.828 81.5475 423.122 Q80.61 422.405 78.8508 422.405 Q77.8901 422.405 76.7906 422.613 Q75.6911 422.821 74.3716 423.261 L74.3716 421.178 Q75.7026 420.807 76.86 420.622 Q78.029 420.437 79.0591 420.437 Q81.7211 420.437 83.272 421.652 Q84.823 422.856 84.823 424.916 Q84.823 426.351 84.0012 427.347 Q83.1795 428.33 81.6633 428.712 Z" fill="#000000" fill-rule="evenodd" fill-opacity="1" /><path clip-path="url(#clip020)" d="M94.6609 422.289 Q92.8553 422.289 91.941 424.071 Q91.0382 425.842 91.0382 429.407 Q91.0382 432.96 91.941 434.742 Q92.8553 436.513 94.6609 436.513 Q96.478 436.513 97.3808 434.742 Q98.2951 432.96 98.2951 429.407 Q98.2951 425.842 97.3808 424.071 Q96.478 422.289 94.6609 422.289 M94.6609 420.437 Q97.566 420.437 99.0937 422.74 Q100.633 425.032 100.633 429.407 Q100.633 433.77 99.0937 436.073 Q97.566 438.365 94.6609 438.365 Q91.7558 438.365 90.2165 436.073 Q88.6887 433.77 88.6887 429.407 Q88.6887 425.032 90.2165 422.74 Q91.7558 420.437 94.6609 420.437 Z" fill="#000000" fill-rule="evenodd" fill-opacity="1" /><path clip-path="url(#clip020)" d="M57.462 200.022 Q55.6565 200.022 54.7421 201.804 Q53.8393 203.575 53.8393 207.14 Q53.8393 210.693 54.7421 212.475 Q55.6565 214.246 57.462 214.246 Q59.2791 214.246 60.1819 212.475 Q61.0962 210.693 61.0962 207.14 Q61.0962 203.575 60.1819 201.804 Q59.2791 200.022 57.462 200.022 M57.462 198.17 Q60.3671 198.17 61.8948 200.473 Q63.4342 202.765 63.4342 207.14 Q63.4342 211.503 61.8948 213.806 Q60.3671 216.098 57.462 216.098 Q54.5569 216.098 53.0176 213.806 Q51.4898 211.503 51.4898 207.14 Q51.4898 202.765 53.0176 200.473 Q54.5569 198.17 57.462 198.17 Z" fill="#000000" fill-rule="evenodd" fill-opacity="1" /><path clip-path="url(#clip020)" d="M67.543 212.823 L69.9851 212.823 L69.9851 215.762 L67.543 215.762 L67.543 212.823 Z" fill="#000000" fill-rule="evenodd" fill-opacity="1" /><path clip-path="url(#clip020)" d="M82.1609 206.445 Q83.8392 206.804 84.7767 207.938 Q85.7257 209.073 85.7257 210.739 Q85.7257 213.297 83.9665 214.698 Q82.2072 216.098 78.9665 216.098 Q77.8786 216.098 76.7212 215.878 Q75.5753 215.67 74.3485 215.242 L74.3485 212.985 Q75.3207 213.552 76.4781 213.841 Q77.6355 214.131 78.8971 214.131 Q81.0961 214.131 82.242 213.263 Q83.3994 212.394 83.3994 210.739 Q83.3994 209.212 82.323 208.355 Q81.2582 207.487 79.3485 207.487 L77.3346 207.487 L77.3346 205.566 L79.441 205.566 Q81.1656 205.566 82.0799 204.883 Q82.9943 204.188 82.9943 202.892 Q82.9943 201.561 82.0452 200.855 Q81.1077 200.138 79.3485 200.138 Q78.3878 200.138 77.2883 200.346 Q76.1888 200.554 74.8693 200.994 L74.8693 198.911 Q76.2003 198.54 77.3577 198.355 Q78.5267 198.17 79.5568 198.17 Q82.2188 198.17 83.7697 199.385 Q85.3206 200.589 85.3206 202.649 Q85.3206 204.084 84.4989 205.08 Q83.6771 206.063 82.1609 206.445 Z" fill="#000000" fill-rule="evenodd" fill-opacity="1" /><path clip-path="url(#clip020)" d="M90.1817 198.482 L99.3599 198.482 L99.3599 200.45 L92.3229 200.45 L92.3229 204.686 Q92.8322 204.513 93.3414 204.432 Q93.8507 204.339 94.3599 204.339 Q97.2535 204.339 98.9433 205.925 Q100.633 207.51 100.633 210.219 Q100.633 213.008 98.897 214.559 Q97.1609 216.098 94.0012 216.098 Q92.9132 216.098 91.7789 215.913 Q90.6563 215.728 89.4526 215.357 L89.4526 213.008 Q90.4942 213.575 91.6053 213.853 Q92.7164 214.131 93.9549 214.131 Q95.9572 214.131 97.1261 213.077 Q98.2951 212.024 98.2951 210.219 Q98.2951 208.413 97.1261 207.36 Q95.9572 206.307 93.9549 206.307 Q93.0174 206.307 92.0799 206.515 Q91.1539 206.723 90.1817 207.163 L90.1817 198.482 Z" fill="#000000" fill-rule="evenodd" fill-opacity="1" /><polyline clip-path="url(#clip022)" style="stroke:#009af9; stroke-linecap:round; stroke-linejoin:round; stroke-width:4; stroke-opacity:1; fill:none" points="
  199.354,1206.25 209.552,1199.93 219.75,936.971 229.949,1417.85 240.147,872.605 250.346,1184.12 260.544,1282.41 270.743,864.373 280.941,1368.44 291.14,972.81 
  301.338,1133.82 311.536,1300.82 321.735,744.114 331.933,1356.72 342.132,981.048 352.33,975.759 362.529,1236.88 372.727,851.56 382.926,1271.06 393.124,970.142 
  403.322,923.468 413.521,1297.87 423.719,880.414 433.918,1200.8 444.116,1037.38 454.315,948.002 464.513,1348.66 474.712,694.931 484.91,1180.54 495.109,1029.21 
  505.307,796.493 515.505,1157.8 525.704,588.062 535.902,1059.25 546.101,1025.89 556.299,640.371 566.498,1309.84 576.696,786.299 586.895,1054.82 597.093,1154.92 
  607.291,778.834 617.49,1321.56 627.688,841.936 637.887,986.082 648.085,1302.38 658.284,633.352 668.482,1315.24 678.681,912.636 688.879,1012.99 699.077,1295.76 
  709.276,643.445 719.474,1269.56 729.673,1028.14 739.871,827.259 750.07,1254.15 760.268,709.968 770.467,1171.33 780.665,958.691 790.864,691.267 801.062,1272.56 
  811.26,754.569 821.459,1071.07 831.657,1030.17 841.856,781.685 852.054,1320.51 862.253,662.586 872.451,1109.96 882.65,1097.61 892.848,769.078 903.046,1263.67 
  913.245,735.149 923.443,1042.77 933.642,1135.74 943.84,587.538 954.039,1269.19 964.237,757.809 974.436,901.318 984.634,1113.74 994.832,564.438 1005.03,1165.4 
  1015.23,703.866 1025.43,668.902 1035.63,1074.71 1045.82,298.594 1056.02,999.031 1066.22,669.588 1076.42,656.461 1086.62,1181.5 1096.82,418.424 1107.02,1087.68 
  1117.21,949.728 1127.41,549.704 1137.61,1132.54 1147.81,550.836 1158.01,834.643 1168.21,866.957 1178.4,87.1648 1188.6,1163.14 1198.8,514.515 1209,839.377 
  1219.2,897.804 1229.4,597.03 1239.6,1163.83 1249.79,627.575 1259.99,833.922 1270.19,1094.39 1280.39,547.983 1290.59,1170.45 1300.79,701.435 1310.98,877.752 
  1321.18,1174.76 1331.38,611.155 1341.58,1221.6 1351.78,862.628 1361.98,796.99 1372.18,1215.55 1382.37,599.875 1392.57,1186.61 1402.77,872.853 1412.97,736.448 
  1423.17,1291.48 1433.37,627.104 1443.56,1156.2 1453.76,944.823 1463.96,783.84 1474.16,1321.13 1484.36,566.399 1494.56,1119.09 1504.75,1095.32 1514.95,701.27 
  1525.15,1257.92 1535.35,768.306 1545.55,928.25 1555.75,1124.88 1565.95,376.666 1576.14,1181.75 1586.34,698.676 1596.54,852.42 1606.74,1094.22 1616.94,703.723 
  1627.14,1255.2 1637.33,863.547 1647.53,885.267 1657.73,1240.02 1667.93,785.944 1678.13,1192.17 1688.33,910.506 1698.53,887.802 1708.72,1318.92 1718.92,721.473 
  1729.12,1246.92 1739.32,1066.9 1749.52,909.195 1759.72,1299.26 1769.91,816.526 1780.11,1159.83 1790.31,1108.28 1800.51,751.569 1810.71,1365.23 1820.91,776.809 
  1831.11,1158.89 1841.3,1097.31 1851.5,935.043 1861.7,1348.23 1871.9,789.471 1882.1,1099.24 1892.3,1257.91 1902.49,765.038 1912.69,1334.99 1922.89,917.965 
  1933.09,1046.36 1943.29,1352.21 1953.49,659.89 1963.69,1365.94 1973.88,1054.54 1984.08,979.58 1994.28,1320.15 2004.48,794.627 2014.68,1304.74 2024.88,1035.06 
  2035.07,919.263 2045.27,1322.66 2055.47,892.601 2065.67,1142.28 2075.87,1031.42 2086.07,814.615 2096.26,1249.65 2106.46,626.922 2116.66,1113.26 2126.86,1098.96 
  2137.06,872.484 2147.26,1309.98 2157.46,968.532 2167.65,1167.89 2177.85,1271.74 2188.05,834.642 2198.25,1397.75 2208.45,945.043 2218.65,1133.02 2228.84,1231.16 
  2239.04,993.228 2249.24,1378.23 2259.44,997.923 2269.64,1150.67 2279.84,1361.27 2290.04,923.591 
  "/>
<path clip-path="url(#clip020)" d="
M1604.34 197.942 L2278.89 197.942 L2278.89 94.2618 L1604.34 94.2618  Z
  " fill="#ffffff" fill-rule="evenodd" fill-opacity="1"/>
<polyline clip-path="url(#clip020)" style="stroke:#000000; stroke-linecap:round; stroke-linejoin:round; stroke-width:4; stroke-opacity:1; fill:none" points="
  1604.34,197.942 2278.89,197.942 2278.89,94.2618 1604.34,94.2618 1604.34,197.942 
  "/>
<polyline clip-path="url(#clip020)" style="stroke:#009af9; stroke-linecap:round; stroke-linejoin:round; stroke-width:4; stroke-opacity:1; fill:none" points="
  1628.96,146.102 1776.7,146.102 
  "/>
<path clip-path="url(#clip020)" d="M1814.73 150.349 Q1809.56 150.349 1807.57 151.53 Q1805.58 152.711 1805.58 155.558 Q1805.58 157.826 1807.06 159.169 Q1808.57 160.488 1811.14 160.488 Q1814.68 160.488 1816.81 157.988 Q1818.96 155.465 1818.96 151.299 L1818.96 150.349 L1814.73 150.349 M1823.22 148.59 L1823.22 163.382 L1818.96 163.382 L1818.96 159.447 Q1817.5 161.808 1815.33 162.942 Q1813.15 164.053 1810 164.053 Q1806.02 164.053 1803.66 161.831 Q1801.32 159.586 1801.32 155.836 Q1801.32 151.461 1804.24 149.238 Q1807.18 147.016 1812.99 147.016 L1818.96 147.016 L1818.96 146.599 Q1818.96 143.66 1817.02 142.062 Q1815.1 140.442 1811.6 140.442 Q1809.38 140.442 1807.27 140.975 Q1805.17 141.507 1803.22 142.572 L1803.22 138.637 Q1805.56 137.734 1807.76 137.294 Q1809.96 136.831 1812.04 136.831 Q1817.67 136.831 1820.44 139.748 Q1823.22 142.664 1823.22 148.59 Z" fill="#000000" fill-rule="evenodd" fill-opacity="1" /><path clip-path="url(#clip020)" d="M1831.56 153.15 L1831.56 137.456 L1835.81 137.456 L1835.81 152.988 Q1835.81 156.669 1837.25 158.521 Q1838.69 160.349 1841.56 160.349 Q1845 160.349 1847 158.15 Q1849.01 155.951 1849.01 152.155 L1849.01 137.456 L1853.27 137.456 L1853.27 163.382 L1849.01 163.382 L1849.01 159.4 Q1847.46 161.761 1845.4 162.919 Q1843.36 164.053 1840.65 164.053 Q1836.19 164.053 1833.87 161.275 Q1831.56 158.498 1831.56 153.15 M1842.27 136.831 L1842.27 136.831 Z" fill="#000000" fill-rule="evenodd" fill-opacity="1" /><path clip-path="url(#clip020)" d="M1866.25 130.095 L1866.25 137.456 L1875.03 137.456 L1875.03 140.766 L1866.25 140.766 L1866.25 154.84 Q1866.25 158.011 1867.11 158.914 Q1867.99 159.817 1870.65 159.817 L1875.03 159.817 L1875.03 163.382 L1870.65 163.382 Q1865.72 163.382 1863.85 161.553 Q1861.97 159.701 1861.97 154.84 L1861.97 140.766 L1858.85 140.766 L1858.85 137.456 L1861.97 137.456 L1861.97 130.095 L1866.25 130.095 Z" fill="#000000" fill-rule="evenodd" fill-opacity="1" /><path clip-path="url(#clip020)" d="M1890.68 140.442 Q1887.25 140.442 1885.26 143.127 Q1883.27 145.789 1883.27 150.442 Q1883.27 155.095 1885.24 157.78 Q1887.23 160.442 1890.68 160.442 Q1894.08 160.442 1896.07 157.757 Q1898.06 155.072 1898.06 150.442 Q1898.06 145.836 1896.07 143.15 Q1894.08 140.442 1890.68 140.442 M1890.68 136.831 Q1896.23 136.831 1899.4 140.442 Q1902.57 144.053 1902.57 150.442 Q1902.57 156.808 1899.4 160.442 Q1896.23 164.053 1890.68 164.053 Q1885.1 164.053 1881.93 160.442 Q1878.78 156.808 1878.78 150.442 Q1878.78 144.053 1881.93 140.442 Q1885.1 136.831 1890.68 136.831 Z" fill="#000000" fill-rule="evenodd" fill-opacity="1" /><path clip-path="url(#clip020)" d="M1928.29 138.451 L1928.29 142.433 Q1926.49 141.437 1924.66 140.951 Q1922.85 140.442 1921 140.442 Q1916.86 140.442 1914.56 143.081 Q1912.27 145.697 1912.27 150.442 Q1912.27 155.187 1914.56 157.826 Q1916.86 160.442 1921 160.442 Q1922.85 160.442 1924.66 159.956 Q1926.49 159.447 1928.29 158.451 L1928.29 162.386 Q1926.51 163.22 1924.59 163.636 Q1922.69 164.053 1920.54 164.053 Q1914.68 164.053 1911.23 160.373 Q1907.78 156.692 1907.78 150.442 Q1907.78 144.099 1911.25 140.465 Q1914.75 136.831 1920.81 136.831 Q1922.78 136.831 1924.66 137.248 Q1926.53 137.641 1928.29 138.451 Z" fill="#000000" fill-rule="evenodd" fill-opacity="1" /><path clip-path="url(#clip020)" d="M1945.74 140.442 Q1942.32 140.442 1940.33 143.127 Q1938.34 145.789 1938.34 150.442 Q1938.34 155.095 1940.3 157.78 Q1942.3 160.442 1945.74 160.442 Q1949.15 160.442 1951.14 157.757 Q1953.13 155.072 1953.13 150.442 Q1953.13 145.836 1951.14 143.15 Q1949.15 140.442 1945.74 140.442 M1945.74 136.831 Q1951.3 136.831 1954.47 140.442 Q1957.64 144.053 1957.64 150.442 Q1957.64 156.808 1954.47 160.442 Q1951.3 164.053 1945.74 164.053 Q1940.17 164.053 1936.99 160.442 Q1933.85 156.808 1933.85 150.442 Q1933.85 144.053 1936.99 140.442 Q1940.17 136.831 1945.74 136.831 Z" fill="#000000" fill-rule="evenodd" fill-opacity="1" /><path clip-path="url(#clip020)" d="M1979.73 141.437 Q1979.01 141.021 1978.15 140.836 Q1977.32 140.627 1976.3 140.627 Q1972.69 140.627 1970.74 142.988 Q1968.82 145.326 1968.82 149.724 L1968.82 163.382 L1964.54 163.382 L1964.54 137.456 L1968.82 137.456 L1968.82 141.484 Q1970.17 139.123 1972.32 137.988 Q1974.47 136.831 1977.55 136.831 Q1977.99 136.831 1978.52 136.9 Q1979.05 136.947 1979.7 137.062 L1979.73 141.437 Z" fill="#000000" fill-rule="evenodd" fill-opacity="1" /><path clip-path="url(#clip020)" d="M1998.38 141.437 Q1997.67 141.021 1996.81 140.836 Q1995.98 140.627 1994.96 140.627 Q1991.35 140.627 1989.4 142.988 Q1987.48 145.326 1987.48 149.724 L1987.48 163.382 L1983.2 163.382 L1983.2 137.456 L1987.48 137.456 L1987.48 141.484 Q1988.82 139.123 1990.98 137.988 Q1993.13 136.831 1996.21 136.831 Q1996.65 136.831 1997.18 136.9 Q1997.71 136.947 1998.36 137.062 L1998.38 141.437 Z" fill="#000000" fill-rule="evenodd" fill-opacity="1" /><path clip-path="url(#clip020)" d="M2023.99 149.354 L2023.99 151.437 L2004.4 151.437 Q2004.68 155.836 2007.04 158.15 Q2009.42 160.442 2013.66 160.442 Q2016.11 160.442 2018.41 159.84 Q2020.72 159.238 2022.99 158.035 L2022.99 162.062 Q2020.7 163.035 2018.29 163.544 Q2015.88 164.053 2013.41 164.053 Q2007.2 164.053 2003.57 160.442 Q1999.96 156.831 1999.96 150.674 Q1999.96 144.308 2003.38 140.581 Q2006.83 136.831 2012.67 136.831 Q2017.9 136.831 2020.93 140.211 Q2023.99 143.567 2023.99 149.354 M2019.73 148.104 Q2019.68 144.609 2017.76 142.525 Q2015.86 140.442 2012.71 140.442 Q2009.15 140.442 2006.99 142.456 Q2004.86 144.47 2004.54 148.127 L2019.73 148.104 Z" fill="#000000" fill-rule="evenodd" fill-opacity="1" /><path clip-path="url(#clip020)" d="M2030.98 127.363 L2035.23 127.363 L2035.23 163.382 L2030.98 163.382 L2030.98 127.363 Z" fill="#000000" fill-rule="evenodd" fill-opacity="1" /><path clip-path="url(#clip020)" d="M2055.93 150.349 Q2050.77 150.349 2048.78 151.53 Q2046.79 152.711 2046.79 155.558 Q2046.79 157.826 2048.27 159.169 Q2049.77 160.488 2052.34 160.488 Q2055.88 160.488 2058.01 157.988 Q2060.17 155.465 2060.17 151.299 L2060.17 150.349 L2055.93 150.349 M2064.42 148.59 L2064.42 163.382 L2060.17 163.382 L2060.17 159.447 Q2058.71 161.808 2056.53 162.942 Q2054.36 164.053 2051.21 164.053 Q2047.23 164.053 2044.86 161.831 Q2042.53 159.586 2042.53 155.836 Q2042.53 151.461 2045.44 149.238 Q2048.38 147.016 2054.19 147.016 L2060.17 147.016 L2060.17 146.599 Q2060.17 143.66 2058.22 142.062 Q2056.3 140.442 2052.8 140.442 Q2050.58 140.442 2048.48 140.975 Q2046.37 141.507 2044.42 142.572 L2044.42 138.637 Q2046.76 137.734 2048.96 137.294 Q2051.16 136.831 2053.24 136.831 Q2058.87 136.831 2061.65 139.748 Q2064.42 142.664 2064.42 148.59 Z" fill="#000000" fill-rule="evenodd" fill-opacity="1" /><path clip-path="url(#clip020)" d="M2077.41 130.095 L2077.41 137.456 L2086.18 137.456 L2086.18 140.766 L2077.41 140.766 L2077.41 154.84 Q2077.41 158.011 2078.27 158.914 Q2079.15 159.817 2081.81 159.817 L2086.18 159.817 L2086.18 163.382 L2081.81 163.382 Q2076.88 163.382 2075 161.553 Q2073.13 159.701 2073.13 154.84 L2073.13 140.766 L2070 140.766 L2070 137.456 L2073.13 137.456 L2073.13 130.095 L2077.41 130.095 Z" fill="#000000" fill-rule="evenodd" fill-opacity="1" /><path clip-path="url(#clip020)" d="M2091.79 137.456 L2096.04 137.456 L2096.04 163.382 L2091.79 163.382 L2091.79 137.456 M2091.79 127.363 L2096.04 127.363 L2096.04 132.757 L2091.79 132.757 L2091.79 127.363 Z" fill="#000000" fill-rule="evenodd" fill-opacity="1" /><path clip-path="url(#clip020)" d="M2115 140.442 Q2111.58 140.442 2109.59 143.127 Q2107.6 145.789 2107.6 150.442 Q2107.6 155.095 2109.56 157.78 Q2111.55 160.442 2115 160.442 Q2118.41 160.442 2120.4 157.757 Q2122.39 155.072 2122.39 150.442 Q2122.39 145.836 2120.4 143.15 Q2118.41 140.442 2115 140.442 M2115 136.831 Q2120.56 136.831 2123.73 140.442 Q2126.9 144.053 2126.9 150.442 Q2126.9 156.808 2123.73 160.442 Q2120.56 164.053 2115 164.053 Q2109.42 164.053 2106.25 160.442 Q2103.1 156.808 2103.1 150.442 Q2103.1 144.053 2106.25 140.442 Q2109.42 136.831 2115 136.831 Z" fill="#000000" fill-rule="evenodd" fill-opacity="1" /><path clip-path="url(#clip020)" d="M2155.51 147.734 L2155.51 163.382 L2151.25 163.382 L2151.25 147.873 Q2151.25 144.192 2149.82 142.363 Q2148.38 140.535 2145.51 140.535 Q2142.06 140.535 2140.07 142.734 Q2138.08 144.933 2138.08 148.729 L2138.08 163.382 L2133.8 163.382 L2133.8 137.456 L2138.08 137.456 L2138.08 141.484 Q2139.61 139.146 2141.67 137.988 Q2143.75 136.831 2146.46 136.831 Q2150.93 136.831 2153.22 139.609 Q2155.51 142.363 2155.51 147.734 Z" fill="#000000" fill-rule="evenodd" fill-opacity="1" /><path clip-path="url(#clip020)" d="M2189.31 127.41 Q2186.21 132.734 2184.7 137.942 Q2183.2 143.15 2183.2 148.498 Q2183.2 153.845 2184.7 159.099 Q2186.23 164.331 2189.31 169.632 L2185.6 169.632 Q2182.13 164.192 2180.4 158.937 Q2178.68 153.683 2178.68 148.498 Q2178.68 143.336 2180.4 138.104 Q2182.11 132.873 2185.6 127.41 L2189.31 127.41 Z" fill="#000000" fill-rule="evenodd" fill-opacity="1" /><path clip-path="url(#clip020)" d="M2210.7 127.363 L2210.7 130.905 L2206.62 130.905 Q2204.33 130.905 2203.43 131.831 Q2202.55 132.757 2202.55 135.164 L2202.55 137.456 L2209.56 137.456 L2209.56 140.766 L2202.55 140.766 L2202.55 163.382 L2198.27 163.382 L2198.27 140.766 L2194.19 140.766 L2194.19 137.456 L2198.27 137.456 L2198.27 135.65 Q2198.27 131.322 2200.28 129.354 Q2202.29 127.363 2206.67 127.363 L2210.7 127.363 Z" fill="#000000" fill-rule="evenodd" fill-opacity="1" /><path clip-path="url(#clip020)" d="M2235.81 147.734 L2235.81 163.382 L2231.55 163.382 L2231.55 147.873 Q2231.55 144.192 2230.12 142.363 Q2228.68 140.535 2225.81 140.535 Q2222.36 140.535 2220.37 142.734 Q2218.38 144.933 2218.38 148.729 L2218.38 163.382 L2214.1 163.382 L2214.1 127.363 L2218.38 127.363 L2218.38 141.484 Q2219.91 139.146 2221.97 137.988 Q2224.05 136.831 2226.76 136.831 Q2231.23 136.831 2233.52 139.609 Q2235.81 142.363 2235.81 147.734 Z" fill="#000000" fill-rule="evenodd" fill-opacity="1" /><path clip-path="url(#clip020)" d="M2243.64 127.41 L2247.34 127.41 Q2250.81 132.873 2252.53 138.104 Q2254.26 143.336 2254.26 148.498 Q2254.26 153.683 2252.53 158.937 Q2250.81 164.192 2247.34 169.632 L2243.64 169.632 Q2246.72 164.331 2248.22 159.099 Q2249.75 153.845 2249.75 148.498 Q2249.75 143.15 2248.22 137.942 Q2246.72 132.734 2243.64 127.41 Z" fill="#000000" fill-rule="evenodd" fill-opacity="1" /></svg>
