<?xml version="1.0" encoding="utf-8"?>
<svg xmlns="http://www.w3.org/2000/svg" xmlns:xlink="http://www.w3.org/1999/xlink" width="600" height="400" viewBox="0 0 2400 1600">
<defs>
  <clipPath id="clip610">
    <rect x="0" y="0" width="2400" height="1600"/>
  </clipPath>
</defs>
<path clip-path="url(#clip610)" d="
M0 1600 L2400 1600 L2400 0 L0 0  Z
  " fill="#ffffff" fill-rule="evenodd" fill-opacity="1"/>
<defs>
  <clipPath id="clip611">
    <rect x="480" y="0" width="1681" height="1600"/>
  </clipPath>
</defs>
<path clip-path="url(#clip610)" d="
M136.633 1457.78 L2352.76 1457.78 L2352.76 47.2441 L136.633 47.2441  Z
  " fill="#ffffff" fill-rule="evenodd" fill-opacity="1"/>
<defs>
  <clipPath id="clip612">
    <rect x="136" y="47" width="2217" height="1412"/>
  </clipPath>
</defs>
<polyline clip-path="url(#clip612)" style="stroke:#000000; stroke-linecap:round; stroke-linejoin:round; stroke-width:2; stroke-opacity:0.1; fill:none" points="
  1175.73,1457.78 1175.73,47.2441 
  "/>
<polyline clip-path="url(#clip612)" style="stroke:#000000; stroke-linecap:round; stroke-linejoin:round; stroke-width:2; stroke-opacity:0.1; fill:none" points="
  1196.39,1457.78 1196.39,47.2441 
  "/>
<polyline clip-path="url(#clip610)" style="stroke:#000000; stroke-linecap:round; stroke-linejoin:round; stroke-width:4; stroke-opacity:1; fill:none" points="
  136.633,1457.78 2352.76,1457.78 
  "/>
<polyline clip-path="url(#clip610)" style="stroke:#000000; stroke-linecap:round; stroke-linejoin:round; stroke-width:4; stroke-opacity:1; fill:none" points="
  1175.73,1457.78 1175.73,1438.88 
  "/>
<polyline clip-path="url(#clip610)" style="stroke:#000000; stroke-linecap:round; stroke-linejoin:round; stroke-width:4; stroke-opacity:1; fill:none" points="
  1196.39,1457.78 1196.39,1438.88 
  "/>
<path clip-path="url(#clip610)" d="M1167.73 1539.45 L1171.41 1539.45 L1171.41 1535.07 L1173.07 1535.07 L1173.07 1539.45 L1180.1 1539.45 Q1181.69 1539.45 1182.14 1539.02 Q1182.59 1538.58 1182.59 1537.25 L1182.59 1535.07 L1184.37 1535.07 L1184.37 1537.25 Q1184.37 1539.72 1183.46 1540.66 Q1182.53 1541.59 1180.1 1541.59 L1173.07 1541.59 L1173.07 1543.16 L1171.41 1543.16 L1171.41 1541.59 L1167.73 1541.59 L1167.73 1539.45 Z" fill="#000000" fill-rule="evenodd" fill-opacity="1" /><path clip-path="url(#clip610)" d="M1179.26 1532.48 L1171.41 1532.48 L1171.41 1530.35 L1179.18 1530.35 Q1181.02 1530.35 1181.94 1529.64 Q1182.86 1528.92 1182.86 1527.48 Q1182.86 1525.76 1181.76 1524.76 Q1180.66 1523.76 1178.76 1523.76 L1171.41 1523.76 L1171.41 1521.63 L1184.37 1521.63 L1184.37 1523.76 L1182.38 1523.76 Q1183.56 1524.53 1184.14 1525.56 Q1184.71 1526.58 1184.71 1527.94 Q1184.71 1530.17 1183.32 1531.33 Q1181.93 1532.48 1179.26 1532.48 M1171.1 1527.13 L1171.1 1527.13 Z" fill="#000000" fill-rule="evenodd" fill-opacity="1" /><path clip-path="url(#clip610)" d="M1176.55 1506.47 L1184.37 1506.47 L1184.37 1508.6 L1176.62 1508.6 Q1174.78 1508.6 1173.86 1509.31 Q1172.95 1510.03 1172.95 1511.47 Q1172.95 1513.19 1174.05 1514.19 Q1175.15 1515.18 1177.05 1515.18 L1184.37 1515.18 L1184.37 1517.32 L1171.41 1517.32 L1171.41 1515.18 L1173.42 1515.18 Q1172.26 1514.42 1171.68 1513.39 Q1171.1 1512.35 1171.1 1510.99 Q1171.1 1508.76 1172.49 1507.61 Q1173.86 1506.47 1176.55 1506.47 Z" fill="#000000" fill-rule="evenodd" fill-opacity="1" /><path clip-path="url(#clip610)" d="M1177.36 1491.13 L1178.4 1491.13 L1178.4 1500.92 Q1180.6 1500.78 1181.76 1499.6 Q1182.9 1498.41 1182.9 1496.29 Q1182.9 1495.07 1182.6 1493.92 Q1182.3 1492.76 1181.7 1491.63 L1183.71 1491.63 Q1184.2 1492.77 1184.45 1493.98 Q1184.71 1495.18 1184.71 1496.42 Q1184.71 1499.52 1182.9 1501.34 Q1181.1 1503.14 1178.02 1503.14 Q1174.84 1503.14 1172.97 1501.43 Q1171.1 1499.71 1171.1 1496.79 Q1171.1 1494.17 1172.79 1492.66 Q1174.47 1491.13 1177.36 1491.13 M1176.73 1493.26 Q1174.99 1493.28 1173.94 1494.24 Q1172.9 1495.19 1172.9 1496.77 Q1172.9 1498.55 1173.91 1499.63 Q1174.92 1500.69 1176.75 1500.85 L1176.73 1493.26 Z" fill="#000000" fill-rule="evenodd" fill-opacity="1" /><path clip-path="url(#clip610)" d="M1173.38 1479.1 L1166.36 1479.1 L1166.36 1476.98 L1184.37 1476.98 L1184.37 1479.1 L1182.43 1479.1 Q1183.59 1479.78 1184.15 1480.81 Q1184.71 1481.82 1184.71 1483.26 Q1184.71 1485.61 1182.83 1487.09 Q1180.96 1488.56 1177.9 1488.56 Q1174.85 1488.56 1172.97 1487.09 Q1171.1 1485.61 1171.1 1483.26 Q1171.1 1481.82 1171.66 1480.81 Q1172.22 1479.78 1173.38 1479.1 M1177.9 1486.36 Q1180.25 1486.36 1181.6 1485.4 Q1182.93 1484.43 1182.93 1482.74 Q1182.93 1481.05 1181.6 1480.08 Q1180.25 1479.1 1177.9 1479.1 Q1175.55 1479.1 1174.22 1480.08 Q1172.88 1481.05 1172.88 1482.74 Q1172.88 1484.43 1174.22 1485.4 Q1175.55 1486.36 1177.9 1486.36 Z" fill="#000000" fill-rule="evenodd" fill-opacity="1" /><path clip-path="url(#clip610)" d="M1199.92 1571.82 L1192.07 1571.82 L1192.07 1569.69 L1199.83 1569.69 Q1201.67 1569.69 1202.6 1568.98 Q1203.51 1568.26 1203.51 1566.82 Q1203.51 1565.1 1202.42 1564.1 Q1201.32 1563.1 1199.42 1563.1 L1192.07 1563.1 L1192.07 1560.97 L1205.03 1560.97 L1205.03 1563.1 L1203.04 1563.1 Q1204.22 1563.87 1204.8 1564.9 Q1205.37 1565.92 1205.37 1567.28 Q1205.37 1569.51 1203.98 1570.67 Q1202.59 1571.82 1199.92 1571.82 M1191.76 1566.47 L1191.76 1566.47 Z" fill="#000000" fill-rule="evenodd" fill-opacity="1" /><path clip-path="url(#clip610)" d="M1197.21 1545.81 L1205.03 1545.81 L1205.03 1547.94 L1197.28 1547.94 Q1195.44 1547.94 1194.52 1548.65 Q1193.61 1549.37 1193.61 1550.81 Q1193.61 1552.53 1194.71 1553.53 Q1195.81 1554.52 1197.7 1554.52 L1205.03 1554.52 L1205.03 1556.66 L1192.07 1556.66 L1192.07 1554.52 L1194.08 1554.52 Q1192.91 1553.76 1192.33 1552.73 Q1191.76 1551.69 1191.76 1550.33 Q1191.76 1548.1 1193.14 1546.95 Q1194.52 1545.81 1197.21 1545.81 Z" fill="#000000" fill-rule="evenodd" fill-opacity="1" /><path clip-path="url(#clip610)" d="M1188.39 1539.45 L1192.07 1539.45 L1192.07 1535.07 L1193.72 1535.07 L1193.72 1539.45 L1200.76 1539.45 Q1202.35 1539.45 1202.8 1539.02 Q1203.25 1538.58 1203.25 1537.25 L1203.25 1535.07 L1205.03 1535.07 L1205.03 1537.25 Q1205.03 1539.72 1204.12 1540.66 Q1203.19 1541.59 1200.76 1541.59 L1193.72 1541.59 L1193.72 1543.16 L1192.07 1543.16 L1192.07 1541.59 L1188.39 1541.59 L1188.39 1539.45 Z" fill="#000000" fill-rule="evenodd" fill-opacity="1" /><path clip-path="url(#clip610)" d="M1199.92 1532.48 L1192.07 1532.48 L1192.07 1530.35 L1199.83 1530.35 Q1201.67 1530.35 1202.6 1529.64 Q1203.51 1528.92 1203.51 1527.48 Q1203.51 1525.76 1202.42 1524.76 Q1201.32 1523.76 1199.42 1523.76 L1192.07 1523.76 L1192.07 1521.63 L1205.03 1521.63 L1205.03 1523.76 L1203.04 1523.76 Q1204.22 1524.53 1204.8 1525.56 Q1205.37 1526.58 1205.37 1527.94 Q1205.37 1530.17 1203.98 1531.33 Q1202.59 1532.48 1199.92 1532.48 M1191.76 1527.13 L1191.76 1527.13 Z" fill="#000000" fill-rule="evenodd" fill-opacity="1" /><path clip-path="url(#clip610)" d="M1197.21 1506.47 L1205.03 1506.47 L1205.03 1508.6 L1197.28 1508.6 Q1195.44 1508.6 1194.52 1509.31 Q1193.61 1510.03 1193.61 1511.47 Q1193.61 1513.19 1194.71 1514.19 Q1195.81 1515.18 1197.7 1515.18 L1205.03 1515.18 L1205.03 1517.32 L1192.07 1517.32 L1192.07 1515.18 L1194.08 1515.18 Q1192.91 1514.42 1192.33 1513.39 Q1191.76 1512.35 1191.76 1510.99 Q1191.76 1508.76 1193.14 1507.61 Q1194.52 1506.47 1197.21 1506.47 Z" fill="#000000" fill-rule="evenodd" fill-opacity="1" /><path clip-path="url(#clip610)" d="M1198.02 1491.13 L1199.06 1491.13 L1199.06 1500.92 Q1201.26 1500.78 1202.42 1499.6 Q1203.56 1498.41 1203.56 1496.29 Q1203.56 1495.07 1203.26 1493.92 Q1202.96 1492.76 1202.36 1491.63 L1204.37 1491.63 Q1204.86 1492.77 1205.11 1493.98 Q1205.37 1495.18 1205.37 1496.42 Q1205.37 1499.52 1203.56 1501.34 Q1201.76 1503.14 1198.68 1503.14 Q1195.49 1503.14 1193.63 1501.43 Q1191.76 1499.71 1191.76 1496.79 Q1191.76 1494.17 1193.45 1492.66 Q1195.12 1491.13 1198.02 1491.13 M1197.39 1493.26 Q1195.64 1493.28 1194.6 1494.24 Q1193.56 1495.19 1193.56 1496.77 Q1193.56 1498.55 1194.57 1499.63 Q1195.58 1500.69 1197.4 1500.85 L1197.39 1493.26 Z" fill="#000000" fill-rule="evenodd" fill-opacity="1" /><path clip-path="url(#clip610)" d="M1194.04 1479.1 L1187.02 1479.1 L1187.02 1476.98 L1205.03 1476.98 L1205.03 1479.1 L1203.09 1479.1 Q1204.24 1479.78 1204.81 1480.81 Q1205.37 1481.82 1205.37 1483.26 Q1205.37 1485.61 1203.49 1487.09 Q1201.62 1488.56 1198.56 1488.56 Q1195.51 1488.56 1193.63 1487.09 Q1191.76 1485.61 1191.76 1483.26 Q1191.76 1481.82 1192.32 1480.81 Q1192.88 1479.78 1194.04 1479.1 M1198.56 1486.36 Q1200.91 1486.36 1202.25 1485.4 Q1203.58 1484.43 1203.58 1482.74 Q1203.58 1481.05 1202.25 1480.08 Q1200.91 1479.1 1198.56 1479.1 Q1196.21 1479.1 1194.88 1480.08 Q1193.54 1481.05 1193.54 1482.74 Q1193.54 1484.43 1194.88 1485.4 Q1196.21 1486.36 1198.56 1486.36 Z" fill="#000000" fill-rule="evenodd" fill-opacity="1" /><polyline clip-path="url(#clip612)" style="stroke:#000000; stroke-linecap:round; stroke-linejoin:round; stroke-width:2; stroke-opacity:0.1; fill:none" points="
  136.633,1323.98 2352.76,1323.98 
  "/>
<polyline clip-path="url(#clip612)" style="stroke:#000000; stroke-linecap:round; stroke-linejoin:round; stroke-width:2; stroke-opacity:0.1; fill:none" points="
  136.633,1092.93 2352.76,1092.93 
  "/>
<polyline clip-path="url(#clip612)" style="stroke:#000000; stroke-linecap:round; stroke-linejoin:round; stroke-width:2; stroke-opacity:0.1; fill:none" points="
  136.633,861.874 2352.76,861.874 
  "/>
<polyline clip-path="url(#clip612)" style="stroke:#000000; stroke-linecap:round; stroke-linejoin:round; stroke-width:2; stroke-opacity:0.1; fill:none" points="
  136.633,630.823 2352.76,630.823 
  "/>
<polyline clip-path="url(#clip612)" style="stroke:#000000; stroke-linecap:round; stroke-linejoin:round; stroke-width:2; stroke-opacity:0.1; fill:none" points="
  136.633,399.772 2352.76,399.772 
  "/>
<polyline clip-path="url(#clip612)" style="stroke:#000000; stroke-linecap:round; stroke-linejoin:round; stroke-width:2; stroke-opacity:0.1; fill:none" points="
  136.633,168.721 2352.76,168.721 
  "/>
<polyline clip-path="url(#clip610)" style="stroke:#000000; stroke-linecap:round; stroke-linejoin:round; stroke-width:4; stroke-opacity:1; fill:none" points="
  136.633,1457.78 136.633,47.2441 
  "/>
<polyline clip-path="url(#clip610)" style="stroke:#000000; stroke-linecap:round; stroke-linejoin:round; stroke-width:4; stroke-opacity:1; fill:none" points="
  136.633,1323.98 155.531,1323.98 
  "/>
<polyline clip-path="url(#clip610)" style="stroke:#000000; stroke-linecap:round; stroke-linejoin:round; stroke-width:4; stroke-opacity:1; fill:none" points="
  136.633,1092.93 155.531,1092.93 
  "/>
<polyline clip-path="url(#clip610)" style="stroke:#000000; stroke-linecap:round; stroke-linejoin:round; stroke-width:4; stroke-opacity:1; fill:none" points="
  136.633,861.874 155.531,861.874 
  "/>
<polyline clip-path="url(#clip610)" style="stroke:#000000; stroke-linecap:round; stroke-linejoin:round; stroke-width:4; stroke-opacity:1; fill:none" points="
  136.633,630.823 155.531,630.823 
  "/>
<polyline clip-path="url(#clip610)" style="stroke:#000000; stroke-linecap:round; stroke-linejoin:round; stroke-width:4; stroke-opacity:1; fill:none" points="
  136.633,399.772 155.531,399.772 
  "/>
<polyline clip-path="url(#clip610)" style="stroke:#000000; stroke-linecap:round; stroke-linejoin:round; stroke-width:4; stroke-opacity:1; fill:none" points="
  136.633,168.721 155.531,168.721 
  "/>
<path clip-path="url(#clip610)" d="M56.9643 1316.88 Q55.1588 1316.88 54.2444 1318.66 Q53.3417 1320.43 53.3417 1323.99 Q53.3417 1327.55 54.2444 1329.33 Q55.1588 1331.1 56.9643 1331.1 Q58.7814 1331.1 59.6842 1329.33 Q60.5986 1327.55 60.5986 1323.99 Q60.5986 1320.43 59.6842 1318.66 Q58.7814 1316.88 56.9643 1316.88 M56.9643 1315.02 Q59.8694 1315.02 61.3972 1317.33 Q62.9365 1319.62 62.9365 1323.99 Q62.9365 1328.36 61.3972 1330.66 Q59.8694 1332.95 56.9643 1332.95 Q54.0592 1332.95 52.5199 1330.66 Q50.9921 1328.36 50.9921 1323.99 Q50.9921 1319.62 52.5199 1317.33 Q54.0592 1315.02 56.9643 1315.02 Z" fill="#000000" fill-rule="evenodd" fill-opacity="1" /><path clip-path="url(#clip610)" d="M67.0453 1329.68 L69.4874 1329.68 L69.4874 1332.62 L67.0453 1332.62 L67.0453 1329.68 Z" fill="#000000" fill-rule="evenodd" fill-opacity="1" /><path clip-path="url(#clip610)" d="M74.9851 1330.65 L78.8045 1330.65 L78.8045 1317.47 L74.6494 1318.3 L74.6494 1316.17 L78.7813 1315.34 L81.1193 1315.34 L81.1193 1330.65 L84.9387 1330.65 L84.9387 1332.62 L74.9851 1332.62 L74.9851 1330.65 Z" fill="#000000" fill-rule="evenodd" fill-opacity="1" /><path clip-path="url(#clip610)" d="M94.6609 1316.88 Q92.8553 1316.88 91.941 1318.66 Q91.0382 1320.43 91.0382 1323.99 Q91.0382 1327.55 91.941 1329.33 Q92.8553 1331.1 94.6609 1331.1 Q96.478 1331.1 97.3808 1329.33 Q98.2951 1327.55 98.2951 1323.99 Q98.2951 1320.43 97.3808 1318.66 Q96.478 1316.88 94.6609 1316.88 M94.6609 1315.02 Q97.566 1315.02 99.0937 1317.33 Q100.633 1319.62 100.633 1323.99 Q100.633 1328.36 99.0937 1330.66 Q97.566 1332.95 94.6609 1332.95 Q91.7558 1332.95 90.2165 1330.66 Q88.6887 1328.36 88.6887 1323.99 Q88.6887 1319.62 90.2165 1317.33 Q91.7558 1315.02 94.6609 1315.02 Z" fill="#000000" fill-rule="evenodd" fill-opacity="1" /><path clip-path="url(#clip610)" d="M57.462 1085.82 Q55.6565 1085.82 54.7421 1087.61 Q53.8393 1089.38 53.8393 1092.94 Q53.8393 1096.5 54.7421 1098.28 Q55.6565 1100.05 57.462 1100.05 Q59.2791 1100.05 60.1819 1098.28 Q61.0962 1096.5 61.0962 1092.94 Q61.0962 1089.38 60.1819 1087.61 Q59.2791 1085.82 57.462 1085.82 M57.462 1083.97 Q60.3671 1083.97 61.8948 1086.28 Q63.4342 1088.57 63.4342 1092.94 Q63.4342 1097.31 61.8948 1099.61 Q60.3671 1101.9 57.462 1101.9 Q54.5569 1101.9 53.0176 1099.61 Q51.4898 1097.31 51.4898 1092.94 Q51.4898 1088.57 53.0176 1086.28 Q54.5569 1083.97 57.462 1083.97 Z" fill="#000000" fill-rule="evenodd" fill-opacity="1" /><path clip-path="url(#clip610)" d="M67.543 1098.63 L69.9851 1098.63 L69.9851 1101.57 L67.543 1101.57 L67.543 1098.63 Z" fill="#000000" fill-rule="evenodd" fill-opacity="1" /><path clip-path="url(#clip610)" d="M75.4827 1099.6 L79.3022 1099.6 L79.3022 1086.41 L75.1471 1087.25 L75.1471 1085.12 L79.279 1084.29 L81.617 1084.29 L81.617 1099.6 L85.4364 1099.6 L85.4364 1101.57 L75.4827 1101.57 L75.4827 1099.6 Z" fill="#000000" fill-rule="evenodd" fill-opacity="1" /><path clip-path="url(#clip610)" d="M90.1817 1084.29 L99.3599 1084.29 L99.3599 1086.25 L92.3229 1086.25 L92.3229 1090.49 Q92.8322 1090.32 93.3414 1090.23 Q93.8507 1090.14 94.3599 1090.14 Q97.2535 1090.14 98.9433 1091.73 Q100.633 1093.31 100.633 1096.02 Q100.633 1098.81 98.897 1100.36 Q97.1609 1101.9 94.0012 1101.9 Q92.9132 1101.9 91.7789 1101.72 Q90.6563 1101.53 89.4526 1101.16 L89.4526 1098.81 Q90.4942 1099.38 91.6053 1099.66 Q92.7164 1099.93 93.9549 1099.93 Q95.9572 1099.93 97.1261 1098.88 Q98.2951 1097.83 98.2951 1096.02 Q98.2951 1094.22 97.1261 1093.16 Q95.9572 1092.11 93.9549 1092.11 Q93.0174 1092.11 92.0799 1092.32 Q91.1539 1092.53 90.1817 1092.97 L90.1817 1084.29 Z" fill="#000000" fill-rule="evenodd" fill-opacity="1" /><path clip-path="url(#clip610)" d="M56.9643 854.773 Q55.1588 854.773 54.2444 856.556 Q53.3417 858.327 53.3417 861.892 Q53.3417 865.445 54.2444 867.227 Q55.1588 868.998 56.9643 868.998 Q58.7814 868.998 59.6842 867.227 Q60.5986 865.445 60.5986 861.892 Q60.5986 858.327 59.6842 856.556 Q58.7814 854.773 56.9643 854.773 M56.9643 852.922 Q59.8694 852.922 61.3972 855.225 Q62.9365 857.517 62.9365 861.892 Q62.9365 866.255 61.3972 868.558 Q59.8694 870.85 56.9643 870.85 Q54.0592 870.85 52.5199 868.558 Q50.9921 866.255 50.9921 861.892 Q50.9921 857.517 52.5199 855.225 Q54.0592 852.922 56.9643 852.922 Z" fill="#000000" fill-rule="evenodd" fill-opacity="1" /><path clip-path="url(#clip610)" d="M67.0453 867.574 L69.4874 867.574 L69.4874 870.514 L67.0453 870.514 L67.0453 867.574 Z" fill="#000000" fill-rule="evenodd" fill-opacity="1" /><path clip-path="url(#clip610)" d="M76.5938 868.547 L84.7535 868.547 L84.7535 870.514 L73.7814 870.514 L73.7814 868.547 Q75.1124 867.169 77.404 864.854 Q79.7072 862.528 80.2975 861.857 Q81.4202 860.595 81.86 859.727 Q82.3114 858.848 82.3114 858.003 Q82.3114 856.625 81.3392 855.757 Q80.3785 854.889 78.8276 854.889 Q77.7281 854.889 76.5012 855.271 Q75.286 855.653 73.8971 856.429 L73.8971 854.067 Q75.3091 853.5 76.536 853.211 Q77.7628 852.922 78.7813 852.922 Q81.4665 852.922 83.0637 854.264 Q84.6609 855.607 84.6609 857.852 Q84.6609 858.917 84.2558 859.878 Q83.8623 860.827 82.8091 862.123 Q82.5197 862.459 80.9688 864.067 Q79.4179 865.665 76.5938 868.547 Z" fill="#000000" fill-rule="evenodd" fill-opacity="1" /><path clip-path="url(#clip610)" d="M94.6609 854.773 Q92.8553 854.773 91.941 856.556 Q91.0382 858.327 91.0382 861.892 Q91.0382 865.445 91.941 867.227 Q92.8553 868.998 94.6609 868.998 Q96.478 868.998 97.3808 867.227 Q98.2951 865.445 98.2951 861.892 Q98.2951 858.327 97.3808 856.556 Q96.478 854.773 94.6609 854.773 M94.6609 852.922 Q97.566 852.922 99.0937 855.225 Q100.633 857.517 100.633 861.892 Q100.633 866.255 99.0937 868.558 Q97.566 870.85 94.6609 870.85 Q91.7558 870.85 90.2165 868.558 Q88.6887 866.255 88.6887 861.892 Q88.6887 857.517 90.2165 855.225 Q91.7558 852.922 94.6609 852.922 Z" fill="#000000" fill-rule="evenodd" fill-opacity="1" /><path clip-path="url(#clip610)" d="M57.462 623.722 Q55.6565 623.722 54.7421 625.505 Q53.8393 627.276 53.8393 630.841 Q53.8393 634.394 54.7421 636.176 Q55.6565 637.947 57.462 637.947 Q59.2791 637.947 60.1819 636.176 Q61.0962 634.394 61.0962 630.841 Q61.0962 627.276 60.1819 625.505 Q59.2791 623.722 57.462 623.722 M57.462 621.871 Q60.3671 621.871 61.8948 624.174 Q63.4342 626.466 63.4342 630.841 Q63.4342 635.204 61.8948 637.507 Q60.3671 639.799 57.462 639.799 Q54.5569 639.799 53.0176 637.507 Q51.4898 635.204 51.4898 630.841 Q51.4898 626.466 53.0176 624.174 Q54.5569 621.871 57.462 621.871 Z" fill="#000000" fill-rule="evenodd" fill-opacity="1" /><path clip-path="url(#clip610)" d="M67.543 636.523 L69.9851 636.523 L69.9851 639.463 L67.543 639.463 L67.543 636.523 Z" fill="#000000" fill-rule="evenodd" fill-opacity="1" /><path clip-path="url(#clip610)" d="M77.0915 637.496 L85.2512 637.496 L85.2512 639.463 L74.279 639.463 L74.279 637.496 Q75.61 636.118 77.9017 633.803 Q80.2049 631.477 80.7952 630.806 Q81.9179 629.544 82.3577 628.676 Q82.8091 627.797 82.8091 626.952 Q82.8091 625.574 81.8369 624.706 Q80.8762 623.838 79.3253 623.838 Q78.2258 623.838 76.9989 624.22 Q75.7837 624.602 74.3948 625.378 L74.3948 623.016 Q75.8068 622.449 77.0337 622.16 Q78.2605 621.871 79.279 621.871 Q81.9642 621.871 83.5614 623.213 Q85.1586 624.556 85.1586 626.801 Q85.1586 627.866 84.7535 628.827 Q84.36 629.776 83.3068 631.072 Q83.0174 631.408 81.4665 633.016 Q79.9156 634.614 77.0915 637.496 Z" fill="#000000" fill-rule="evenodd" fill-opacity="1" /><path clip-path="url(#clip610)" d="M90.1817 622.183 L99.3599 622.183 L99.3599 624.151 L92.3229 624.151 L92.3229 628.387 Q92.8322 628.213 93.3414 628.132 Q93.8507 628.04 94.3599 628.04 Q97.2535 628.04 98.9433 629.625 Q100.633 631.211 100.633 633.919 Q100.633 636.709 98.897 638.259 Q97.1609 639.799 94.0012 639.799 Q92.9132 639.799 91.7789 639.614 Q90.6563 639.428 89.4526 639.058 L89.4526 636.709 Q90.4942 637.276 91.6053 637.553 Q92.7164 637.831 93.9549 637.831 Q95.9572 637.831 97.1261 636.778 Q98.2951 635.725 98.2951 633.919 Q98.2951 632.114 97.1261 631.06 Q95.9572 630.007 93.9549 630.007 Q93.0174 630.007 92.0799 630.216 Q91.1539 630.424 90.1817 630.864 L90.1817 622.183 Z" fill="#000000" fill-rule="evenodd" fill-opacity="1" /><path clip-path="url(#clip610)" d="M56.9643 392.671 Q55.1588 392.671 54.2444 394.454 Q53.3417 396.225 53.3417 399.789 Q53.3417 403.343 54.2444 405.125 Q55.1588 406.896 56.9643 406.896 Q58.7814 406.896 59.6842 405.125 Q60.5986 403.343 60.5986 399.789 Q60.5986 396.225 59.6842 394.454 Q58.7814 392.671 56.9643 392.671 M56.9643 390.82 Q59.8694 390.82 61.3972 393.123 Q62.9365 395.415 62.9365 399.789 Q62.9365 404.153 61.3972 406.456 Q59.8694 408.748 56.9643 408.748 Q54.0592 408.748 52.5199 406.456 Q50.9921 404.153 50.9921 399.789 Q50.9921 395.415 52.5199 393.123 Q54.0592 390.82 56.9643 390.82 Z" fill="#000000" fill-rule="evenodd" fill-opacity="1" /><path clip-path="url(#clip610)" d="M67.0453 405.472 L69.4874 405.472 L69.4874 408.412 L67.0453 408.412 L67.0453 405.472 Z" fill="#000000" fill-rule="evenodd" fill-opacity="1" /><path clip-path="url(#clip610)" d="M81.6633 399.095 Q83.3415 399.454 84.279 400.588 Q85.2281 401.722 85.2281 403.389 Q85.2281 405.947 83.4688 407.347 Q81.7096 408.748 78.4688 408.748 Q77.3809 408.748 76.2235 408.528 Q75.0776 408.32 73.8508 407.891 L73.8508 405.634 Q74.823 406.201 75.9804 406.491 Q77.1378 406.78 78.3994 406.78 Q80.5984 406.78 81.7443 405.912 Q82.9017 405.044 82.9017 403.389 Q82.9017 401.861 81.8253 401.005 Q80.7605 400.137 78.8508 400.137 L76.8369 400.137 L76.8369 398.215 L78.9434 398.215 Q80.6679 398.215 81.5822 397.533 Q82.4966 396.838 82.4966 395.542 Q82.4966 394.211 81.5475 393.505 Q80.61 392.787 78.8508 392.787 Q77.8901 392.787 76.7906 392.996 Q75.6911 393.204 74.3716 393.644 L74.3716 391.56 Q75.7026 391.19 76.86 391.005 Q78.029 390.82 79.0591 390.82 Q81.7211 390.82 83.272 392.035 Q84.823 393.239 84.823 395.299 Q84.823 396.734 84.0012 397.729 Q83.1795 398.713 81.6633 399.095 Z" fill="#000000" fill-rule="evenodd" fill-opacity="1" /><path clip-path="url(#clip610)" d="M94.6609 392.671 Q92.8553 392.671 91.941 394.454 Q91.0382 396.225 91.0382 399.789 Q91.0382 403.343 91.941 405.125 Q92.8553 406.896 94.6609 406.896 Q96.478 406.896 97.3808 405.125 Q98.2951 403.343 98.2951 399.789 Q98.2951 396.225 97.3808 394.454 Q96.478 392.671 94.6609 392.671 M94.6609 390.82 Q97.566 390.82 99.0937 393.123 Q100.633 395.415 100.633 399.789 Q100.633 404.153 99.0937 406.456 Q97.566 408.748 94.6609 408.748 Q91.7558 408.748 90.2165 406.456 Q88.6887 404.153 88.6887 399.789 Q88.6887 395.415 90.2165 393.123 Q91.7558 390.82 94.6609 390.82 Z" fill="#000000" fill-rule="evenodd" fill-opacity="1" /><path clip-path="url(#clip610)" d="M57.462 161.62 Q55.6565 161.62 54.7421 163.403 Q53.8393 165.174 53.8393 168.738 Q53.8393 172.292 54.7421 174.074 Q55.6565 175.845 57.462 175.845 Q59.2791 175.845 60.1819 174.074 Q61.0962 172.292 61.0962 168.738 Q61.0962 165.174 60.1819 163.403 Q59.2791 161.62 57.462 161.62 M57.462 159.769 Q60.3671 159.769 61.8948 162.072 Q63.4342 164.364 63.4342 168.738 Q63.4342 173.102 61.8948 175.405 Q60.3671 177.697 57.462 177.697 Q54.5569 177.697 53.0176 175.405 Q51.4898 173.102 51.4898 168.738 Q51.4898 164.364 53.0176 162.072 Q54.5569 159.769 57.462 159.769 Z" fill="#000000" fill-rule="evenodd" fill-opacity="1" /><path clip-path="url(#clip610)" d="M67.543 174.421 L69.9851 174.421 L69.9851 177.361 L67.543 177.361 L67.543 174.421 Z" fill="#000000" fill-rule="evenodd" fill-opacity="1" /><path clip-path="url(#clip610)" d="M82.1609 168.044 Q83.8392 168.403 84.7767 169.537 Q85.7257 170.671 85.7257 172.338 Q85.7257 174.896 83.9665 176.296 Q82.2072 177.697 78.9665 177.697 Q77.8786 177.697 76.7212 177.477 Q75.5753 177.269 74.3485 176.84 L74.3485 174.583 Q75.3207 175.15 76.4781 175.44 Q77.6355 175.729 78.8971 175.729 Q81.0961 175.729 82.242 174.861 Q83.3994 173.993 83.3994 172.338 Q83.3994 170.81 82.323 169.954 Q81.2582 169.086 79.3485 169.086 L77.3346 169.086 L77.3346 167.164 L79.441 167.164 Q81.1656 167.164 82.0799 166.482 Q82.9943 165.787 82.9943 164.491 Q82.9943 163.16 82.0452 162.454 Q81.1077 161.736 79.3485 161.736 Q78.3878 161.736 77.2883 161.945 Q76.1888 162.153 74.8693 162.593 L74.8693 160.509 Q76.2003 160.139 77.3577 159.954 Q78.5267 159.769 79.5568 159.769 Q82.2188 159.769 83.7697 160.984 Q85.3206 162.188 85.3206 164.248 Q85.3206 165.683 84.4989 166.678 Q83.6771 167.662 82.1609 168.044 Z" fill="#000000" fill-rule="evenodd" fill-opacity="1" /><path clip-path="url(#clip610)" d="M90.1817 160.081 L99.3599 160.081 L99.3599 162.049 L92.3229 162.049 L92.3229 166.285 Q92.8322 166.111 93.3414 166.03 Q93.8507 165.938 94.3599 165.938 Q97.2535 165.938 98.9433 167.523 Q100.633 169.109 100.633 171.817 Q100.633 174.607 98.897 176.157 Q97.1609 177.697 94.0012 177.697 Q92.9132 177.697 91.7789 177.512 Q90.6563 177.326 89.4526 176.956 L89.4526 174.607 Q90.4942 175.174 91.6053 175.451 Q92.7164 175.729 93.9549 175.729 Q95.9572 175.729 97.1261 174.676 Q98.2951 173.623 98.2951 171.817 Q98.2951 170.012 97.1261 168.958 Q95.9572 167.905 93.9549 167.905 Q93.0174 167.905 92.0799 168.113 Q91.1539 168.322 90.1817 168.762 L90.1817 160.081 Z" fill="#000000" fill-rule="evenodd" fill-opacity="1" /><polyline clip-path="url(#clip612)" style="stroke:#009af9; stroke-linecap:round; stroke-linejoin:round; stroke-width:4; stroke-opacity:1; fill:none" points="
  199.354,1227.57 209.552,1189.24 219.75,968.436 229.949,1417.85 240.147,904.569 250.346,1174.23 260.544,1308.44 270.743,838.338 280.941,1385.5 291.14,947.825 
  301.338,1146.36 311.536,1291.64 321.735,758.363 331.933,1359.53 342.132,1002.75 352.33,976.01 362.529,1256.44 372.727,841.289 382.926,1276.66 393.124,954.549 
  403.322,914.82 413.521,1300.27 423.719,880.601 433.918,1217.73 444.116,1048.37 454.315,964.507 464.513,1363.65 474.712,706.031 484.91,1173.99 495.109,1040.46 
  505.307,781.555 515.505,1168.83 525.704,564.4 535.902,1073.63 546.101,1018.18 556.299,666.011 566.498,1300.8 576.696,809.733 586.895,1035.75 597.093,1168.16 
  607.291,743.412 617.49,1339.29 627.688,809.602 637.887,1010.17 648.085,1292.79 658.284,661.799 668.482,1315.26 678.681,938.407 688.879,994.795 699.077,1321.06 
  709.276,604.905 719.474,1283.51 729.673,1007.04 739.871,836.135 750.07,1250.32 760.268,728.909 770.467,1172.26 780.665,982.821 790.864,685.853 801.062,1283.77 
  811.26,744.226 821.459,1065.12 831.657,1019.71 841.856,775.819 852.054,1327.1 862.253,660.548 872.451,1131.48 882.65,1105.2 892.848,785.953 903.046,1265.79 
  913.245,738.646 923.443,1025.21 933.642,1141.39 943.84,548.123 954.039,1288.04 964.237,737.918 974.436,926.935 984.634,1111.08 994.832,594.468 1005.03,1157.4 
  1015.23,733.34 1025.43,635.715 1035.63,1097.78 1045.82,250.847 1056.02,1006.03 1066.22,633.803 1076.42,675.38 1086.62,1168.69 1096.82,442.306 1107.02,1080.58 
  1117.21,973.738 1127.41,521.177 1137.61,1144.8 1147.81,512.042 1158.01,840.733 1168.21,837.033 1178.4,87.1648 1188.6,1156.44 1198.8,525.708 1209,842.761 
  1219.2,913.427 1229.4,591.525 1239.6,1165.86 1249.79,612.262 1259.99,814.808 1270.19,1090 1280.39,529.968 1290.59,1182.16 1300.79,696.953 1310.98,895.923 
  1321.18,1175.78 1331.38,624.622 1341.58,1210.19 1351.78,872.556 1361.98,764.017 1372.18,1223.49 1382.37,564.32 1392.57,1208.95 1402.77,856.834 1412.97,767.202 
  1423.17,1288.36 1433.37,655.814 1443.56,1143.08 1453.76,967.845 1463.96,752.791 1474.16,1340.39 1484.36,521.602 1494.56,1137.29 1504.75,1074.82 1514.95,723.334 
  1525.15,1262.6 1535.35,801.505 1545.55,921.474 1555.75,1153.15 1565.95,347.905 1576.14,1190.2 1586.34,665.262 1596.54,848.89 1606.74,1075.55 1616.94,708.546 
  1627.14,1255.69 1637.33,882.054 1647.53,890.632 1657.73,1252.43 1667.93,781.627 1678.13,1188.38 1688.33,898.883 1698.53,871.688 1708.72,1322.2 1718.92,705.23 
  1729.12,1266.77 1739.32,1066.74 1749.52,927.964 1759.72,1304.82 1769.91,830.857 1780.11,1149.31 1790.31,1116.92 1800.51,719.63 1810.71,1383.57 1820.91,750.151 
  1831.11,1179.83 1841.3,1089.02 1851.5,963.17 1861.7,1346.05 1871.9,816.725 1882.1,1082.67 1892.3,1278.35 1902.49,730.942 1912.69,1350.54 1922.89,888.142 
  1933.09,1069.92 1943.29,1342.93 1953.49,681.619 1963.69,1367.28 1973.88,1078.21 1984.08,967.494 1994.28,1337.24 2004.48,770.935 2014.68,1310.85 2024.88,1014.4 
  2035.07,919.85 2045.27,1322.76 2055.47,911.134 2065.67,1157.7 2075.87,1051.26 2086.07,822.373 2096.26,1261.56 2106.46,613.598 2116.66,1092.08 2126.86,1094.33 
  2137.06,849.144 2147.26,1311.97 2157.46,961.571 2167.65,1187.58 2177.85,1276.97 2188.05,856.355 2198.25,1396.53 2208.45,957.205 2218.65,1109.82 2228.84,1237.88 
  2239.04,965.27 2249.24,1390.32 2259.44,977.465 2269.64,1175.42 2279.84,1359.37 2290.04,954.923 
  "/>
<path clip-path="url(#clip610)" d="
M1604.34 197.942 L2278.89 197.942 L2278.89 94.2618 L1604.34 94.2618  Z
  " fill="#ffffff" fill-rule="evenodd" fill-opacity="1"/>
<polyline clip-path="url(#clip610)" style="stroke:#000000; stroke-linecap:round; stroke-linejoin:round; stroke-width:4; stroke-opacity:1; fill:none" points="
  1604.34,197.942 2278.89,197.942 2278.89,94.2618 1604.34,94.2618 1604.34,197.942 
  "/>
<polyline clip-path="url(#clip610)" style="stroke:#009af9; stroke-linecap:round; stroke-linejoin:round; stroke-width:4; stroke-opacity:1; fill:none" points="
  1628.96,146.102 1776.7,146.102 
  "/>
<path clip-path="url(#clip610)" d="M1814.73 150.349 Q1809.56 150.349 1807.57 151.53 Q1805.58 152.711 1805.58 155.558 Q1805.58 157.826 1807.06 159.169 Q1808.57 160.488 1811.14 160.488 Q1814.68 160.488 1816.81 157.988 Q1818.96 155.465 1818.96 151.299 L1818.96 150.349 L1814.73 150.349 M1823.22 148.59 L1823.22 163.382 L1818.96 163.382 L1818.96 159.447 Q1817.5 161.808 1815.33 162.942 Q1813.15 164.053 1810 164.053 Q1806.02 164.053 1803.66 161.831 Q1801.32 159.586 1801.32 155.836 Q1801.32 151.461 1804.24 149.238 Q1807.18 147.016 1812.99 147.016 L1818.96 147.016 L1818.96 146.599 Q1818.96 143.66 1817.02 142.062 Q1815.1 140.442 1811.6 140.442 Q1809.38 140.442 1807.27 140.975 Q1805.17 141.507 1803.22 142.572 L1803.22 138.637 Q1805.56 137.734 1807.76 137.294 Q1809.96 136.831 1812.04 136.831 Q1817.67 136.831 1820.44 139.748 Q1823.22 142.664 1823.22 148.59 Z" fill="#000000" fill-rule="evenodd" fill-opacity="1" /><path clip-path="url(#clip610)" d="M1831.56 153.15 L1831.56 137.456 L1835.81 137.456 L1835.81 152.988 Q1835.81 156.669 1837.25 158.521 Q1838.69 160.349 1841.56 160.349 Q1845 160.349 1847 158.15 Q1849.01 155.951 1849.01 152.155 L1849.01 137.456 L1853.27 137.456 L1853.27 163.382 L1849.01 163.382 L1849.01 159.4 Q1847.46 161.761 1845.4 162.919 Q1843.36 164.053 1840.65 164.053 Q1836.19 164.053 1833.87 161.275 Q1831.56 158.498 1831.56 153.15 M1842.27 136.831 L1842.27 136.831 Z" fill="#000000" fill-rule="evenodd" fill-opacity="1" /><path clip-path="url(#clip610)" d="M1866.25 130.095 L1866.25 137.456 L1875.03 137.456 L1875.03 140.766 L1866.25 140.766 L1866.25 154.84 Q1866.25 158.011 1867.11 158.914 Q1867.99 159.817 1870.65 159.817 L1875.03 159.817 L1875.03 163.382 L1870.65 163.382 Q1865.72 163.382 1863.85 161.553 Q1861.97 159.701 1861.97 154.84 L1861.97 140.766 L1858.85 140.766 L1858.85 137.456 L1861.97 137.456 L1861.97 130.095 L1866.25 130.095 Z" fill="#000000" fill-rule="evenodd" fill-opacity="1" /><path clip-path="url(#clip610)" d="M1890.68 140.442 Q1887.25 140.442 1885.26 143.127 Q1883.27 145.789 1883.27 150.442 Q1883.27 155.095 1885.24 157.78 Q1887.23 160.442 1890.68 160.442 Q1894.08 160.442 1896.07 157.757 Q1898.06 155.072 1898.06 150.442 Q1898.06 145.836 1896.07 143.15 Q1894.08 140.442 1890.68 140.442 M1890.68 136.831 Q1896.23 136.831 1899.4 140.442 Q1902.57 144.053 1902.57 150.442 Q1902.57 156.808 1899.4 160.442 Q1896.23 164.053 1890.68 164.053 Q1885.1 164.053 1881.93 160.442 Q1878.78 156.808 1878.78 150.442 Q1878.78 144.053 1881.93 140.442 Q1885.1 136.831 1890.68 136.831 Z" fill="#000000" fill-rule="evenodd" fill-opacity="1" /><path clip-path="url(#clip610)" d="M1928.29 138.451 L1928.29 142.433 Q1926.49 141.437 1924.66 140.951 Q1922.85 140.442 1921 140.442 Q1916.86 140.442 1914.56 143.081 Q1912.27 145.697 1912.27 150.442 Q1912.27 155.187 1914.56 157.826 Q1916.86 160.442 1921 160.442 Q1922.85 160.442 1924.66 159.956 Q1926.49 159.447 1928.29 158.451 L1928.29 162.386 Q1926.51 163.22 1924.59 163.636 Q1922.69 164.053 1920.54 164.053 Q1914.68 164.053 1911.23 160.373 Q1907.78 156.692 1907.78 150.442 Q1907.78 144.099 1911.25 140.465 Q1914.75 136.831 1920.81 136.831 Q1922.78 136.831 1924.66 137.248 Q1926.53 137.641 1928.29 138.451 Z" fill="#000000" fill-rule="evenodd" fill-opacity="1" /><path clip-path="url(#clip610)" d="M1945.74 140.442 Q1942.32 140.442 1940.33 143.127 Q1938.34 145.789 1938.34 150.442 Q1938.34 155.095 1940.3 157.78 Q1942.3 160.442 1945.74 160.442 Q1949.15 160.442 1951.14 157.757 Q1953.13 155.072 1953.13 150.442 Q1953.13 145.836 1951.14 143.15 Q1949.15 140.442 1945.74 140.442 M1945.74 136.831 Q1951.3 136.831 1954.47 140.442 Q1957.64 144.053 1957.64 150.442 Q1957.64 156.808 1954.47 160.442 Q1951.3 164.053 1945.74 164.053 Q1940.17 164.053 1936.99 160.442 Q1933.85 156.808 1933.85 150.442 Q1933.85 144.053 1936.99 140.442 Q1940.17 136.831 1945.74 136.831 Z" fill="#000000" fill-rule="evenodd" fill-opacity="1" /><path clip-path="url(#clip610)" d="M1979.73 141.437 Q1979.01 141.021 1978.15 140.836 Q1977.32 140.627 1976.3 140.627 Q1972.69 140.627 1970.74 142.988 Q1968.82 145.326 1968.82 149.724 L1968.82 163.382 L1964.54 163.382 L1964.54 137.456 L1968.82 137.456 L1968.82 141.484 Q1970.17 139.123 1972.32 137.988 Q1974.47 136.831 1977.55 136.831 Q1977.99 136.831 1978.52 136.9 Q1979.05 136.947 1979.7 137.062 L1979.73 141.437 Z" fill="#000000" fill-rule="evenodd" fill-opacity="1" /><path clip-path="url(#clip610)" d="M1998.38 141.437 Q1997.67 141.021 1996.81 140.836 Q1995.98 140.627 1994.96 140.627 Q1991.35 140.627 1989.4 142.988 Q1987.48 145.326 1987.48 149.724 L1987.48 163.382 L1983.2 163.382 L1983.2 137.456 L1987.48 137.456 L1987.48 141.484 Q1988.82 139.123 1990.98 137.988 Q1993.13 136.831 1996.21 136.831 Q1996.65 136.831 1997.18 136.9 Q1997.71 136.947 1998.36 137.062 L1998.38 141.437 Z" fill="#000000" fill-rule="evenodd" fill-opacity="1" /><path clip-path="url(#clip610)" d="M2023.99 149.354 L2023.99 151.437 L2004.4 151.437 Q2004.68 155.836 2007.04 158.15 Q2009.42 160.442 2013.66 160.442 Q2016.11 160.442 2018.41 159.84 Q2020.72 159.238 2022.99 158.035 L2022.99 162.062 Q2020.7 163.035 2018.29 163.544 Q2015.88 164.053 2013.41 164.053 Q2007.2 164.053 2003.57 160.442 Q1999.96 156.831 1999.96 150.674 Q1999.96 144.308 2003.38 140.581 Q2006.83 136.831 2012.67 136.831 Q2017.9 136.831 2020.93 140.211 Q2023.99 143.567 2023.99 149.354 M2019.73 148.104 Q2019.68 144.609 2017.76 142.525 Q2015.86 140.442 2012.71 140.442 Q2009.15 140.442 2006.99 142.456 Q2004.86 144.47 2004.54 148.127 L2019.73 148.104 Z" fill="#000000" fill-rule="evenodd" fill-opacity="1" /><path clip-path="url(#clip610)" d="M2030.98 127.363 L2035.23 127.363 L2035.23 163.382 L2030.98 163.382 L2030.98 127.363 Z" fill="#000000" fill-rule="evenodd" fill-opacity="1" /><path clip-path="url(#clip610)" d="M2055.93 150.349 Q2050.77 150.349 2048.78 151.53 Q2046.79 152.711 2046.79 155.558 Q2046.79 157.826 2048.27 159.169 Q2049.77 160.488 2052.34 160.488 Q2055.88 160.488 2058.01 157.988 Q2060.17 155.465 2060.17 151.299 L2060.17 150.349 L2055.93 150.349 M2064.42 148.59 L2064.42 163.382 L2060.17 163.382 L2060.17 159.447 Q2058.71 161.808 2056.53 162.942 Q2054.36 164.053 2051.21 164.053 Q2047.23 164.053 2044.86 161.831 Q2042.53 159.586 2042.53 155.836 Q2042.53 151.461 2045.44 149.238 Q2048.38 147.016 2054.19 147.016 L2060.17 147.016 L2060.17 146.599 Q2060.17 143.66 2058.22 142.062 Q2056.3 140.442 2052.8 140.442 Q2050.58 140.442 2048.48 140.975 Q2046.37 141.507 2044.42 142.572 L2044.42 138.637 Q2046.76 137.734 2048.96 137.294 Q2051.16 136.831 2053.24 136.831 Q2058.87 136.831 2061.65 139.748 Q2064.42 142.664 2064.42 148.59 Z" fill="#000000" fill-rule="evenodd" fill-opacity="1" /><path clip-path="url(#clip610)" d="M2077.41 130.095 L2077.41 137.456 L2086.18 137.456 L2086.18 140.766 L2077.41 140.766 L2077.41 154.84 Q2077.41 158.011 2078.27 158.914 Q2079.15 159.817 2081.81 159.817 L2086.18 159.817 L2086.18 163.382 L2081.81 163.382 Q2076.88 163.382 2075 161.553 Q2073.13 159.701 2073.13 154.84 L2073.13 140.766 L2070 140.766 L2070 137.456 L2073.13 137.456 L2073.13 130.095 L2077.41 130.095 Z" fill="#000000" fill-rule="evenodd" fill-opacity="1" /><path clip-path="url(#clip610)" d="M2091.79 137.456 L2096.04 137.456 L2096.04 163.382 L2091.79 163.382 L2091.79 137.456 M2091.79 127.363 L2096.04 127.363 L2096.04 132.757 L2091.79 132.757 L2091.79 127.363 Z" fill="#000000" fill-rule="evenodd" fill-opacity="1" /><path clip-path="url(#clip610)" d="M2115 140.442 Q2111.58 140.442 2109.59 143.127 Q2107.6 145.789 2107.6 150.442 Q2107.6 155.095 2109.56 157.78 Q2111.55 160.442 2115 160.442 Q2118.41 160.442 2120.4 157.757 Q2122.39 155.072 2122.39 150.442 Q2122.39 145.836 2120.4 143.15 Q2118.41 140.442 2115 140.442 M2115 136.831 Q2120.56 136.831 2123.73 140.442 Q2126.9 144.053 2126.9 150.442 Q2126.9 156.808 2123.73 160.442 Q2120.56 164.053 2115 164.053 Q2109.42 164.053 2106.25 160.442 Q2103.1 156.808 2103.1 150.442 Q2103.1 144.053 2106.25 140.442 Q2109.42 136.831 2115 136.831 Z" fill="#000000" fill-rule="evenodd" fill-opacity="1" /><path clip-path="url(#clip610)" d="M2155.51 147.734 L2155.51 163.382 L2151.25 163.382 L2151.25 147.873 Q2151.25 144.192 2149.82 142.363 Q2148.38 140.535 2145.51 140.535 Q2142.06 140.535 2140.07 142.734 Q2138.08 144.933 2138.08 148.729 L2138.08 163.382 L2133.8 163.382 L2133.8 137.456 L2138.08 137.456 L2138.08 141.484 Q2139.61 139.146 2141.67 137.988 Q2143.75 136.831 2146.46 136.831 Q2150.93 136.831 2153.22 139.609 Q2155.51 142.363 2155.51 147.734 Z" fill="#000000" fill-rule="evenodd" fill-opacity="1" /><path clip-path="url(#clip610)" d="M2189.31 127.41 Q2186.21 132.734 2184.7 137.942 Q2183.2 143.15 2183.2 148.498 Q2183.2 153.845 2184.7 159.099 Q2186.23 164.331 2189.31 169.632 L2185.6 169.632 Q2182.13 164.192 2180.4 158.937 Q2178.68 153.683 2178.68 148.498 Q2178.68 143.336 2180.4 138.104 Q2182.11 132.873 2185.6 127.41 L2189.31 127.41 Z" fill="#000000" fill-rule="evenodd" fill-opacity="1" /><path clip-path="url(#clip610)" d="M2210.7 127.363 L2210.7 130.905 L2206.62 130.905 Q2204.33 130.905 2203.43 131.831 Q2202.55 132.757 2202.55 135.164 L2202.55 137.456 L2209.56 137.456 L2209.56 140.766 L2202.55 140.766 L2202.55 163.382 L2198.27 163.382 L2198.27 140.766 L2194.19 140.766 L2194.19 137.456 L2198.27 137.456 L2198.27 135.65 Q2198.27 131.322 2200.28 129.354 Q2202.29 127.363 2206.67 127.363 L2210.7 127.363 Z" fill="#000000" fill-rule="evenodd" fill-opacity="1" /><path clip-path="url(#clip610)" d="M2235.81 147.734 L2235.81 163.382 L2231.55 163.382 L2231.55 147.873 Q2231.55 144.192 2230.12 142.363 Q2228.68 140.535 2225.81 140.535 Q2222.36 140.535 2220.37 142.734 Q2218.38 144.933 2218.38 148.729 L2218.38 163.382 L2214.1 163.382 L2214.1 127.363 L2218.38 127.363 L2218.38 141.484 Q2219.91 139.146 2221.97 137.988 Q2224.05 136.831 2226.76 136.831 Q2231.23 136.831 2233.52 139.609 Q2235.81 142.363 2235.81 147.734 Z" fill="#000000" fill-rule="evenodd" fill-opacity="1" /><path clip-path="url(#clip610)" d="M2243.64 127.41 L2247.34 127.41 Q2250.81 132.873 2252.53 138.104 Q2254.26 143.336 2254.26 148.498 Q2254.26 153.683 2252.53 158.937 Q2250.81 164.192 2247.34 169.632 L2243.64 169.632 Q2246.72 164.331 2248.22 159.099 Q2249.75 153.845 2249.75 148.498 Q2249.75 143.15 2248.22 137.942 Q2246.72 132.734 2243.64 127.41 Z" fill="#000000" fill-rule="evenodd" fill-opacity="1" /></svg>
