<?xml version="1.0" encoding="utf-8"?>
<svg xmlns="http://www.w3.org/2000/svg" xmlns:xlink="http://www.w3.org/1999/xlink" width="600" height="400" viewBox="0 0 2400 1600">
<defs>
  <clipPath id="clip680">
    <rect x="0" y="0" width="2400" height="1600"/>
  </clipPath>
</defs>
<path clip-path="url(#clip680)" d="
M0 1600 L2400 1600 L2400 0 L0 0  Z
  " fill="#ffffff" fill-rule="evenodd" fill-opacity="1"/>
<defs>
  <clipPath id="clip681">
    <rect x="480" y="0" width="1681" height="1600"/>
  </clipPath>
</defs>
<path clip-path="url(#clip680)" d="
M306.084 1486.45 L2352.76 1486.45 L2352.76 47.2441 L306.084 47.2441  Z
  " fill="#ffffff" fill-rule="evenodd" fill-opacity="1"/>
<defs>
  <clipPath id="clip682">
    <rect x="306" y="47" width="2048" height="1440"/>
  </clipPath>
</defs>
<polyline clip-path="url(#clip682)" style="stroke:#000000; stroke-linecap:round; stroke-linejoin:round; stroke-width:2; stroke-opacity:0.1; fill:none" points="
  1329.42,1486.45 1329.42,47.2441 
  "/>
<polyline clip-path="url(#clip682)" style="stroke:#000000; stroke-linecap:round; stroke-linejoin:round; stroke-width:2; stroke-opacity:0.1; fill:none" points="
  823.744,1486.45 823.744,47.2441 
  "/>
<polyline clip-path="url(#clip680)" style="stroke:#000000; stroke-linecap:round; stroke-linejoin:round; stroke-width:4; stroke-opacity:1; fill:none" points="
  306.084,1486.45 2352.76,1486.45 
  "/>
<polyline clip-path="url(#clip680)" style="stroke:#000000; stroke-linecap:round; stroke-linejoin:round; stroke-width:4; stroke-opacity:1; fill:none" points="
  1329.42,1486.45 1329.42,1467.55 
  "/>
<polyline clip-path="url(#clip680)" style="stroke:#000000; stroke-linecap:round; stroke-linejoin:round; stroke-width:4; stroke-opacity:1; fill:none" points="
  823.744,1486.45 823.744,1467.55 
  "/>
<path clip-path="url(#clip680)" d="M1123.93 1544.96 L1123.93 1558.71 L1119.65 1558.71 L1119.65 1522.92 L1123.93 1522.92 L1123.93 1526.86 Q1125.28 1524.54 1127.31 1523.43 Q1129.37 1522.3 1132.22 1522.3 Q1136.94 1522.3 1139.88 1526.05 Q1142.85 1529.8 1142.85 1535.91 Q1142.85 1542.02 1139.88 1545.77 Q1136.94 1549.52 1132.22 1549.52 Q1129.37 1549.52 1127.31 1548.41 Q1125.28 1547.27 1123.93 1544.96 M1138.43 1535.91 Q1138.43 1531.21 1136.48 1528.55 Q1134.56 1525.86 1131.18 1525.86 Q1127.8 1525.86 1125.86 1528.55 Q1123.93 1531.21 1123.93 1535.91 Q1123.93 1540.61 1125.86 1543.29 Q1127.8 1545.95 1131.18 1545.95 Q1134.56 1545.95 1136.48 1543.29 Q1138.43 1540.61 1138.43 1535.91 Z" fill="#000000" fill-rule="evenodd" fill-opacity="1" /><path clip-path="url(#clip680)" d="M1164.93 1526.9 Q1164.21 1526.49 1163.36 1526.3 Q1162.52 1526.09 1161.5 1526.09 Q1157.89 1526.09 1155.95 1528.45 Q1154.03 1530.79 1154.03 1535.19 L1154.03 1548.85 L1149.74 1548.85 L1149.74 1522.92 L1154.03 1522.92 L1154.03 1526.95 Q1155.37 1524.59 1157.52 1523.45 Q1159.68 1522.3 1162.75 1522.3 Q1163.19 1522.3 1163.73 1522.37 Q1164.26 1522.41 1164.91 1522.53 L1164.93 1526.9 Z" fill="#000000" fill-rule="evenodd" fill-opacity="1" /><path clip-path="url(#clip680)" d="M1190.53 1534.82 L1190.53 1536.9 L1170.95 1536.9 Q1171.23 1541.3 1173.59 1543.62 Q1175.97 1545.91 1180.21 1545.91 Q1182.66 1545.91 1184.95 1545.31 Q1187.27 1544.7 1189.54 1543.5 L1189.54 1547.53 Q1187.24 1548.5 1184.84 1549.01 Q1182.43 1549.52 1179.95 1549.52 Q1173.75 1549.52 1170.12 1545.91 Q1166.5 1542.3 1166.5 1536.14 Q1166.5 1529.77 1169.93 1526.05 Q1173.38 1522.3 1179.21 1522.3 Q1184.44 1522.3 1187.48 1525.68 Q1190.53 1529.03 1190.53 1534.82 M1186.27 1533.57 Q1186.23 1530.07 1184.3 1527.99 Q1182.41 1525.91 1179.26 1525.91 Q1175.69 1525.91 1173.54 1527.92 Q1171.41 1529.94 1171.09 1533.59 L1186.27 1533.57 Z" fill="#000000" fill-rule="evenodd" fill-opacity="1" /><path clip-path="url(#clip680)" d="M1194.47 1522.92 L1198.98 1522.92 L1207.08 1544.68 L1215.18 1522.92 L1219.7 1522.92 L1209.98 1548.85 L1204.19 1548.85 L1194.47 1522.92 Z" fill="#000000" fill-rule="evenodd" fill-opacity="1" /><path clip-path="url(#clip680)" d="M1225.58 1522.92 L1229.84 1522.92 L1229.84 1548.85 L1225.58 1548.85 L1225.58 1522.92 M1225.58 1512.83 L1229.84 1512.83 L1229.84 1518.22 L1225.58 1518.22 L1225.58 1512.83 Z" fill="#000000" fill-rule="evenodd" fill-opacity="1" /><path clip-path="url(#clip680)" d="M1248.8 1525.91 Q1245.37 1525.91 1243.38 1528.59 Q1241.39 1531.26 1241.39 1535.91 Q1241.39 1540.56 1243.36 1543.25 Q1245.35 1545.91 1248.8 1545.91 Q1252.2 1545.91 1254.19 1543.22 Q1256.18 1540.54 1256.18 1535.91 Q1256.18 1531.3 1254.19 1528.62 Q1252.2 1525.91 1248.8 1525.91 M1248.8 1522.3 Q1254.35 1522.3 1257.52 1525.91 Q1260.69 1529.52 1260.69 1535.91 Q1260.69 1542.27 1257.52 1545.91 Q1254.35 1549.52 1248.8 1549.52 Q1243.22 1549.52 1240.05 1545.91 Q1236.9 1542.27 1236.9 1535.91 Q1236.9 1529.52 1240.05 1525.91 Q1243.22 1522.3 1248.8 1522.3 Z" fill="#000000" fill-rule="evenodd" fill-opacity="1" /><path clip-path="url(#clip680)" d="M1267.31 1538.62 L1267.31 1522.92 L1271.57 1522.92 L1271.57 1538.45 Q1271.57 1542.13 1273.01 1543.99 Q1274.44 1545.82 1277.31 1545.82 Q1280.76 1545.82 1282.75 1543.62 Q1284.77 1541.42 1284.77 1537.62 L1284.77 1522.92 L1289.03 1522.92 L1289.03 1548.85 L1284.77 1548.85 L1284.77 1544.87 Q1283.22 1547.23 1281.16 1548.38 Q1279.12 1549.52 1276.41 1549.52 Q1271.94 1549.52 1269.63 1546.74 Q1267.31 1543.96 1267.31 1538.62 M1278.03 1522.3 L1278.03 1522.3 Z" fill="#000000" fill-rule="evenodd" fill-opacity="1" /><path clip-path="url(#clip680)" d="M1314.33 1523.69 L1314.33 1527.71 Q1312.52 1526.79 1310.58 1526.32 Q1308.63 1525.86 1306.55 1525.86 Q1303.38 1525.86 1301.78 1526.83 Q1300.21 1527.81 1300.21 1529.75 Q1300.21 1531.23 1301.34 1532.09 Q1302.48 1532.92 1305.9 1533.69 L1307.36 1534.01 Q1311.9 1534.98 1313.79 1536.76 Q1315.72 1538.52 1315.72 1541.7 Q1315.72 1545.31 1312.85 1547.41 Q1310 1549.52 1305 1549.52 Q1302.92 1549.52 1300.65 1549.1 Q1298.4 1548.71 1295.9 1547.9 L1295.9 1543.5 Q1298.26 1544.73 1300.55 1545.35 Q1302.85 1545.95 1305.09 1545.95 Q1308.1 1545.95 1309.72 1544.94 Q1311.34 1543.89 1311.34 1542.02 Q1311.34 1540.28 1310.16 1539.36 Q1309 1538.43 1305.05 1537.57 L1303.56 1537.23 Q1299.61 1536.39 1297.85 1534.68 Q1296.09 1532.95 1296.09 1529.94 Q1296.09 1526.28 1298.68 1524.29 Q1301.27 1522.3 1306.04 1522.3 Q1308.4 1522.3 1310.48 1522.64 Q1312.57 1522.99 1314.33 1523.69 Z" fill="#000000" fill-rule="evenodd" fill-opacity="1" /><path clip-path="url(#clip680)" d="M1359.74 1534.82 L1359.74 1536.9 L1340.16 1536.9 Q1340.44 1541.3 1342.8 1543.62 Q1345.18 1545.91 1349.42 1545.91 Q1351.87 1545.91 1354.17 1545.31 Q1356.48 1544.7 1358.75 1543.5 L1358.75 1547.53 Q1356.46 1548.5 1354.05 1549.01 Q1351.64 1549.52 1349.17 1549.52 Q1342.96 1549.52 1339.33 1545.91 Q1335.72 1542.3 1335.72 1536.14 Q1335.72 1529.77 1339.14 1526.05 Q1342.59 1522.3 1348.42 1522.3 Q1353.66 1522.3 1356.69 1525.68 Q1359.74 1529.03 1359.74 1534.82 M1355.48 1533.57 Q1355.44 1530.07 1353.52 1527.99 Q1351.62 1525.91 1348.47 1525.91 Q1344.91 1525.91 1342.75 1527.92 Q1340.62 1529.94 1340.3 1533.59 L1355.48 1533.57 Z" fill="#000000" fill-rule="evenodd" fill-opacity="1" /><path clip-path="url(#clip680)" d="M1383.26 1523.69 L1383.26 1527.71 Q1381.46 1526.79 1379.51 1526.32 Q1377.57 1525.86 1375.48 1525.86 Q1372.31 1525.86 1370.72 1526.83 Q1369.14 1527.81 1369.14 1529.75 Q1369.14 1531.23 1370.28 1532.09 Q1371.41 1532.92 1374.84 1533.69 L1376.29 1534.01 Q1380.83 1534.98 1382.73 1536.76 Q1384.65 1538.52 1384.65 1541.7 Q1384.65 1545.31 1381.78 1547.41 Q1378.93 1549.52 1373.93 1549.52 Q1371.85 1549.52 1369.58 1549.1 Q1367.34 1548.71 1364.84 1547.9 L1364.84 1543.5 Q1367.2 1544.73 1369.49 1545.35 Q1371.78 1545.95 1374.03 1545.95 Q1377.04 1545.95 1378.66 1544.94 Q1380.28 1543.89 1380.28 1542.02 Q1380.28 1540.28 1379.1 1539.36 Q1377.94 1538.43 1373.98 1537.57 L1372.5 1537.23 Q1368.54 1536.39 1366.78 1534.68 Q1365.02 1532.95 1365.02 1529.94 Q1365.02 1526.28 1367.61 1524.29 Q1370.21 1522.3 1374.98 1522.3 Q1377.34 1522.3 1379.42 1522.64 Q1381.5 1522.99 1383.26 1523.69 Z" fill="#000000" fill-rule="evenodd" fill-opacity="1" /><path clip-path="url(#clip680)" d="M1395.65 1515.56 L1395.65 1522.92 L1404.42 1522.92 L1404.42 1526.23 L1395.65 1526.23 L1395.65 1540.31 Q1395.65 1543.48 1396.5 1544.38 Q1397.38 1545.28 1400.04 1545.28 L1404.42 1545.28 L1404.42 1548.85 L1400.04 1548.85 Q1395.11 1548.85 1393.24 1547.02 Q1391.36 1545.17 1391.36 1540.31 L1391.36 1526.23 L1388.24 1526.23 L1388.24 1522.92 L1391.36 1522.92 L1391.36 1515.56 L1395.65 1515.56 Z" fill="#000000" fill-rule="evenodd" fill-opacity="1" /><path clip-path="url(#clip680)" d="M1410.02 1522.92 L1414.28 1522.92 L1414.28 1548.85 L1410.02 1548.85 L1410.02 1522.92 M1410.02 1512.83 L1414.28 1512.83 L1414.28 1518.22 L1410.02 1518.22 L1410.02 1512.83 Z" fill="#000000" fill-rule="evenodd" fill-opacity="1" /><path clip-path="url(#clip680)" d="M1443.38 1527.9 Q1444.97 1525.03 1447.2 1523.66 Q1449.42 1522.3 1452.43 1522.3 Q1456.48 1522.3 1458.68 1525.14 Q1460.88 1527.97 1460.88 1533.2 L1460.88 1548.85 L1456.6 1548.85 L1456.6 1533.34 Q1456.6 1529.61 1455.28 1527.81 Q1453.96 1526 1451.25 1526 Q1447.94 1526 1446.02 1528.2 Q1444.1 1530.4 1444.1 1534.2 L1444.1 1548.85 L1439.81 1548.85 L1439.81 1533.34 Q1439.81 1529.59 1438.49 1527.81 Q1437.17 1526 1434.42 1526 Q1431.16 1526 1429.23 1528.22 Q1427.31 1530.42 1427.31 1534.2 L1427.31 1548.85 L1423.03 1548.85 L1423.03 1522.92 L1427.31 1522.92 L1427.31 1526.95 Q1428.77 1524.57 1430.81 1523.43 Q1432.85 1522.3 1435.65 1522.3 Q1438.47 1522.3 1440.44 1523.73 Q1442.43 1525.17 1443.38 1527.9 Z" fill="#000000" fill-rule="evenodd" fill-opacity="1" /><path clip-path="url(#clip680)" d="M1481.16 1535.82 Q1475.99 1535.82 1474 1537 Q1472.01 1538.18 1472.01 1541.02 Q1472.01 1543.29 1473.49 1544.63 Q1475 1545.95 1477.57 1545.95 Q1481.11 1545.95 1483.24 1543.45 Q1485.39 1540.93 1485.39 1536.76 L1485.39 1535.82 L1481.16 1535.82 M1489.65 1534.06 L1489.65 1548.85 L1485.39 1548.85 L1485.39 1544.91 Q1483.93 1547.27 1481.76 1548.41 Q1479.58 1549.52 1476.43 1549.52 Q1472.45 1549.52 1470.09 1547.3 Q1467.75 1545.05 1467.75 1541.3 Q1467.75 1536.93 1470.67 1534.7 Q1473.61 1532.48 1479.42 1532.48 L1485.39 1532.48 L1485.39 1532.07 Q1485.39 1529.13 1483.45 1527.53 Q1481.53 1525.91 1478.03 1525.91 Q1475.81 1525.91 1473.7 1526.44 Q1471.6 1526.97 1469.65 1528.04 L1469.65 1524.1 Q1471.99 1523.2 1474.19 1522.76 Q1476.39 1522.3 1478.47 1522.3 Q1484.09 1522.3 1486.87 1525.21 Q1489.65 1528.13 1489.65 1534.06 Z" fill="#000000" fill-rule="evenodd" fill-opacity="1" /><path clip-path="url(#clip680)" d="M1502.64 1515.56 L1502.64 1522.92 L1511.41 1522.92 L1511.41 1526.23 L1502.64 1526.23 L1502.64 1540.31 Q1502.64 1543.48 1503.49 1544.38 Q1504.37 1545.28 1507.03 1545.28 L1511.41 1545.28 L1511.41 1548.85 L1507.03 1548.85 Q1502.1 1548.85 1500.23 1547.02 Q1498.35 1545.17 1498.35 1540.31 L1498.35 1526.23 L1495.23 1526.23 L1495.23 1522.92 L1498.35 1522.92 L1498.35 1515.56 L1502.64 1515.56 Z" fill="#000000" fill-rule="evenodd" fill-opacity="1" /><path clip-path="url(#clip680)" d="M1539.19 1534.82 L1539.19 1536.9 L1519.6 1536.9 Q1519.88 1541.3 1522.24 1543.62 Q1524.63 1545.91 1528.86 1545.91 Q1531.32 1545.91 1533.61 1545.31 Q1535.92 1544.7 1538.19 1543.5 L1538.19 1547.53 Q1535.9 1548.5 1533.49 1549.01 Q1531.09 1549.52 1528.61 1549.52 Q1522.4 1549.52 1518.77 1545.91 Q1515.16 1542.3 1515.16 1536.14 Q1515.16 1529.77 1518.59 1526.05 Q1522.03 1522.3 1527.87 1522.3 Q1533.1 1522.3 1536.13 1525.68 Q1539.19 1529.03 1539.19 1534.82 M1534.93 1533.57 Q1534.88 1530.07 1532.96 1527.99 Q1531.06 1525.91 1527.91 1525.91 Q1524.35 1525.91 1522.2 1527.92 Q1520.07 1529.94 1519.74 1533.59 L1534.93 1533.57 Z" fill="#000000" fill-rule="evenodd" fill-opacity="1" /><path clip-path="url(#clip680)" d="M713.641 1533.2 L713.641 1548.85 L709.381 1548.85 L709.381 1533.34 Q709.381 1529.66 707.946 1527.83 Q706.511 1526 703.641 1526 Q700.192 1526 698.201 1528.2 Q696.21 1530.4 696.21 1534.2 L696.21 1548.85 L691.928 1548.85 L691.928 1512.83 L696.21 1512.83 L696.21 1526.95 Q697.738 1524.61 699.798 1523.45 Q701.881 1522.3 704.59 1522.3 Q709.057 1522.3 711.349 1525.07 Q713.641 1527.83 713.641 1533.2 Z" fill="#000000" fill-rule="evenodd" fill-opacity="1" /><path clip-path="url(#clip680)" d="M733.918 1535.82 Q728.756 1535.82 726.765 1537 Q724.775 1538.18 724.775 1541.02 Q724.775 1543.29 726.256 1544.63 Q727.761 1545.95 730.33 1545.95 Q733.872 1545.95 736.002 1543.45 Q738.154 1540.93 738.154 1536.76 L738.154 1535.82 L733.918 1535.82 M742.414 1534.06 L742.414 1548.85 L738.154 1548.85 L738.154 1544.91 Q736.696 1547.27 734.52 1548.41 Q732.344 1549.52 729.196 1549.52 Q725.215 1549.52 722.853 1547.3 Q720.515 1545.05 720.515 1541.3 Q720.515 1536.93 723.432 1534.7 Q726.372 1532.48 732.182 1532.48 L738.154 1532.48 L738.154 1532.07 Q738.154 1529.13 736.21 1527.53 Q734.289 1525.91 730.793 1525.91 Q728.571 1525.91 726.465 1526.44 Q724.358 1526.97 722.414 1528.04 L722.414 1524.1 Q724.752 1523.2 726.951 1522.76 Q729.15 1522.3 731.233 1522.3 Q736.858 1522.3 739.636 1525.21 Q742.414 1528.13 742.414 1534.06 Z" fill="#000000" fill-rule="evenodd" fill-opacity="1" /><path clip-path="url(#clip680)" d="M772.737 1533.2 L772.737 1548.85 L768.478 1548.85 L768.478 1533.34 Q768.478 1529.66 767.043 1527.83 Q765.608 1526 762.737 1526 Q759.288 1526 757.298 1528.2 Q755.307 1530.4 755.307 1534.2 L755.307 1548.85 L751.025 1548.85 L751.025 1522.92 L755.307 1522.92 L755.307 1526.95 Q756.835 1524.61 758.895 1523.45 Q760.978 1522.3 763.687 1522.3 Q768.154 1522.3 770.446 1525.07 Q772.737 1527.83 772.737 1533.2 Z" fill="#000000" fill-rule="evenodd" fill-opacity="1" /><path clip-path="url(#clip680)" d="M798.293 1526.86 L798.293 1512.83 L802.552 1512.83 L802.552 1548.85 L798.293 1548.85 L798.293 1544.96 Q796.95 1547.27 794.89 1548.41 Q792.853 1549.52 789.983 1549.52 Q785.284 1549.52 782.321 1545.77 Q779.381 1542.02 779.381 1535.91 Q779.381 1529.8 782.321 1526.05 Q785.284 1522.3 789.983 1522.3 Q792.853 1522.3 794.89 1523.43 Q796.95 1524.54 798.293 1526.86 M783.779 1535.91 Q783.779 1540.61 785.7 1543.29 Q787.645 1545.95 791.024 1545.95 Q794.404 1545.95 796.348 1543.29 Q798.293 1540.61 798.293 1535.91 Q798.293 1531.21 796.348 1528.55 Q794.404 1525.86 791.024 1525.86 Q787.645 1525.86 785.7 1528.55 Q783.779 1531.21 783.779 1535.91 Z" fill="#000000" fill-rule="evenodd" fill-opacity="1" /><path clip-path="url(#clip680)" d="M830.607 1515.56 L830.607 1522.92 L839.381 1522.92 L839.381 1526.23 L830.607 1526.23 L830.607 1540.31 Q830.607 1543.48 831.464 1544.38 Q832.344 1545.28 835.006 1545.28 L839.381 1545.28 L839.381 1548.85 L835.006 1548.85 Q830.075 1548.85 828.2 1547.02 Q826.325 1545.17 826.325 1540.31 L826.325 1526.23 L823.2 1526.23 L823.2 1522.92 L826.325 1522.92 L826.325 1515.56 L830.607 1515.56 Z" fill="#000000" fill-rule="evenodd" fill-opacity="1" /><path clip-path="url(#clip680)" d="M844.543 1538.62 L844.543 1522.92 L848.802 1522.92 L848.802 1538.45 Q848.802 1542.13 850.237 1543.99 Q851.672 1545.82 854.543 1545.82 Q857.992 1545.82 859.982 1543.62 Q861.996 1541.42 861.996 1537.62 L861.996 1522.92 L866.255 1522.92 L866.255 1548.85 L861.996 1548.85 L861.996 1544.87 Q860.445 1547.23 858.385 1548.38 Q856.348 1549.52 853.64 1549.52 Q849.172 1549.52 846.857 1546.74 Q844.543 1543.96 844.543 1538.62 M855.26 1522.3 L855.26 1522.3 Z" fill="#000000" fill-rule="evenodd" fill-opacity="1" /><path clip-path="url(#clip680)" d="M896.579 1533.2 L896.579 1548.85 L892.32 1548.85 L892.32 1533.34 Q892.32 1529.66 890.885 1527.83 Q889.45 1526 886.579 1526 Q883.13 1526 881.14 1528.2 Q879.149 1530.4 879.149 1534.2 L879.149 1548.85 L874.867 1548.85 L874.867 1522.92 L879.149 1522.92 L879.149 1526.95 Q880.677 1524.61 882.737 1523.45 Q884.82 1522.3 887.528 1522.3 Q891.996 1522.3 894.288 1525.07 Q896.579 1527.83 896.579 1533.2 Z" fill="#000000" fill-rule="evenodd" fill-opacity="1" /><path clip-path="url(#clip680)" d="M927.25 1534.82 L927.25 1536.9 L907.667 1536.9 Q907.945 1541.3 910.306 1543.62 Q912.69 1545.91 916.926 1545.91 Q919.38 1545.91 921.672 1545.31 Q923.987 1544.7 926.255 1543.5 L926.255 1547.53 Q923.963 1548.5 921.556 1549.01 Q919.149 1549.52 916.672 1549.52 Q910.468 1549.52 906.834 1545.91 Q903.223 1542.3 903.223 1536.14 Q903.223 1529.77 906.649 1526.05 Q910.098 1522.3 915.931 1522.3 Q921.163 1522.3 924.195 1525.68 Q927.25 1529.03 927.25 1534.82 M922.991 1533.57 Q922.945 1530.07 921.024 1527.99 Q919.126 1525.91 915.977 1525.91 Q912.413 1525.91 910.26 1527.92 Q908.13 1529.94 907.806 1533.59 L922.991 1533.57 Z" fill="#000000" fill-rule="evenodd" fill-opacity="1" /><path clip-path="url(#clip680)" d="M951.301 1526.86 L951.301 1512.83 L955.561 1512.83 L955.561 1548.85 L951.301 1548.85 L951.301 1544.96 Q949.959 1547.27 947.899 1548.41 Q945.862 1549.52 942.991 1549.52 Q938.292 1549.52 935.329 1545.77 Q932.389 1542.02 932.389 1535.91 Q932.389 1529.8 935.329 1526.05 Q938.292 1522.3 942.991 1522.3 Q945.862 1522.3 947.899 1523.43 Q949.959 1524.54 951.301 1526.86 M936.787 1535.91 Q936.787 1540.61 938.709 1543.29 Q940.653 1545.95 944.033 1545.95 Q947.412 1545.95 949.357 1543.29 Q951.301 1540.61 951.301 1535.91 Q951.301 1531.21 949.357 1528.55 Q947.412 1525.86 944.033 1525.86 Q940.653 1525.86 938.709 1528.55 Q936.787 1531.21 936.787 1535.91 Z" fill="#000000" fill-rule="evenodd" fill-opacity="1" /><polyline clip-path="url(#clip682)" style="stroke:#000000; stroke-linecap:round; stroke-linejoin:round; stroke-width:2; stroke-opacity:0.1; fill:none" points="
  306.084,1233.21 2352.76,1233.21 
  "/>
<polyline clip-path="url(#clip682)" style="stroke:#000000; stroke-linecap:round; stroke-linejoin:round; stroke-width:2; stroke-opacity:0.1; fill:none" points="
  306.084,923.117 2352.76,923.117 
  "/>
<polyline clip-path="url(#clip682)" style="stroke:#000000; stroke-linecap:round; stroke-linejoin:round; stroke-width:2; stroke-opacity:0.1; fill:none" points="
  306.084,613.021 2352.76,613.021 
  "/>
<polyline clip-path="url(#clip682)" style="stroke:#000000; stroke-linecap:round; stroke-linejoin:round; stroke-width:2; stroke-opacity:0.1; fill:none" points="
  306.084,302.924 2352.76,302.924 
  "/>
<polyline clip-path="url(#clip680)" style="stroke:#000000; stroke-linecap:round; stroke-linejoin:round; stroke-width:4; stroke-opacity:1; fill:none" points="
  306.084,1486.45 306.084,47.2441 
  "/>
<polyline clip-path="url(#clip680)" style="stroke:#000000; stroke-linecap:round; stroke-linejoin:round; stroke-width:4; stroke-opacity:1; fill:none" points="
  306.084,1233.21 324.981,1233.21 
  "/>
<polyline clip-path="url(#clip680)" style="stroke:#000000; stroke-linecap:round; stroke-linejoin:round; stroke-width:4; stroke-opacity:1; fill:none" points="
  306.084,923.117 324.981,923.117 
  "/>
<polyline clip-path="url(#clip680)" style="stroke:#000000; stroke-linecap:round; stroke-linejoin:round; stroke-width:4; stroke-opacity:1; fill:none" points="
  306.084,613.021 324.981,613.021 
  "/>
<polyline clip-path="url(#clip680)" style="stroke:#000000; stroke-linecap:round; stroke-linejoin:round; stroke-width:4; stroke-opacity:1; fill:none" points="
  306.084,302.924 324.981,302.924 
  "/>
<path clip-path="url(#clip680)" d="M258.139 1219.01 Q254.528 1219.01 252.7 1222.58 Q250.894 1226.12 250.894 1233.25 Q250.894 1240.36 252.7 1243.92 Q254.528 1247.46 258.139 1247.46 Q261.774 1247.46 263.579 1243.92 Q265.408 1240.36 265.408 1233.25 Q265.408 1226.12 263.579 1222.58 Q261.774 1219.01 258.139 1219.01 M258.139 1215.31 Q263.95 1215.31 267.005 1219.92 Q270.084 1224.5 270.084 1233.25 Q270.084 1241.98 267.005 1246.58 Q263.95 1251.17 258.139 1251.17 Q252.329 1251.17 249.251 1246.58 Q246.195 1241.98 246.195 1233.25 Q246.195 1224.5 249.251 1219.92 Q252.329 1215.31 258.139 1215.31 Z" fill="#000000" fill-rule="evenodd" fill-opacity="1" /><path clip-path="url(#clip680)" d="M53.3995 942.91 L61.0384 942.91 L61.0384 916.544 L52.7282 918.211 L52.7282 913.952 L60.9921 912.285 L65.668 912.285 L65.668 942.91 L73.3068 942.91 L73.3068 946.845 L53.3995 946.845 L53.3995 942.91 Z" fill="#000000" fill-rule="evenodd" fill-opacity="1" /><path clip-path="url(#clip680)" d="M82.7512 940.965 L87.6354 940.965 L87.6354 946.845 L82.7512 946.845 L82.7512 940.965 Z" fill="#000000" fill-rule="evenodd" fill-opacity="1" /><path clip-path="url(#clip680)" d="M107.821 915.364 Q104.209 915.364 102.381 918.928 Q100.575 922.47 100.575 929.6 Q100.575 936.706 102.381 940.271 Q104.209 943.813 107.821 943.813 Q111.455 943.813 113.26 940.271 Q115.089 936.706 115.089 929.6 Q115.089 922.47 113.26 918.928 Q111.455 915.364 107.821 915.364 M107.821 911.66 Q113.631 911.66 116.686 916.266 Q119.765 920.85 119.765 929.6 Q119.765 938.327 116.686 942.933 Q113.631 947.516 107.821 947.516 Q102.01 947.516 98.9317 942.933 Q95.8761 938.327 95.8761 929.6 Q95.8761 920.85 98.9317 916.266 Q102.01 911.66 107.821 911.66 Z" fill="#000000" fill-rule="evenodd" fill-opacity="1" /><path clip-path="url(#clip680)" d="M156.154 921.382 L145.575 932.007 L156.154 942.586 L153.399 945.387 L142.774 934.762 L132.149 945.387 L129.418 942.586 L139.973 932.007 L129.418 921.382 L132.149 918.581 L142.774 929.206 L153.399 918.581 L156.154 921.382 Z" fill="#000000" fill-rule="evenodd" fill-opacity="1" /><path clip-path="url(#clip680)" d="M168.515 942.91 L176.153 942.91 L176.153 916.544 L167.843 918.211 L167.843 913.952 L176.107 912.285 L180.783 912.285 L180.783 942.91 L188.422 942.91 L188.422 946.845 L168.515 946.845 L168.515 942.91 Z" fill="#000000" fill-rule="evenodd" fill-opacity="1" /><path clip-path="url(#clip680)" d="M207.866 915.364 Q204.255 915.364 202.426 918.928 Q200.621 922.47 200.621 929.6 Q200.621 936.706 202.426 940.271 Q204.255 943.813 207.866 943.813 Q211.501 943.813 213.306 940.271 Q215.135 936.706 215.135 929.6 Q215.135 922.47 213.306 918.928 Q211.501 915.364 207.866 915.364 M207.866 911.66 Q213.676 911.66 216.732 916.266 Q219.811 920.85 219.811 929.6 Q219.811 938.327 216.732 942.933 Q213.676 947.516 207.866 947.516 Q202.056 947.516 198.977 942.933 Q195.922 938.327 195.922 929.6 Q195.922 920.85 198.977 916.266 Q202.056 911.66 207.866 911.66 Z" fill="#000000" fill-rule="evenodd" fill-opacity="1" /><path clip-path="url(#clip680)" d="M219.811 905.761 L243.922 905.761 L243.922 908.959 L219.811 908.959 L219.811 905.761 Z" fill="#000000" fill-rule="evenodd" fill-opacity="1" /><path clip-path="url(#clip680)" d="M260.718 903.881 Q258.16 903.881 256.655 905.63 Q255.169 907.379 255.169 910.426 Q255.169 913.454 256.655 915.222 Q258.16 916.971 260.718 916.971 Q263.275 916.971 264.761 915.222 Q266.266 913.454 266.266 910.426 Q266.266 907.379 264.761 905.63 Q263.275 903.881 260.718 903.881 M268.259 891.975 L268.259 895.436 Q266.83 894.759 265.363 894.401 Q263.915 894.044 262.485 894.044 Q258.724 894.044 256.73 896.583 Q254.756 899.122 254.473 904.257 Q255.583 902.62 257.257 901.755 Q258.931 900.871 260.943 900.871 Q265.175 900.871 267.62 903.448 Q270.084 906.006 270.084 910.426 Q270.084 914.751 267.526 917.366 Q264.968 919.98 260.718 919.98 Q255.846 919.98 253.27 916.256 Q250.693 912.513 250.693 905.423 Q250.693 898.765 253.853 894.815 Q257.012 890.847 262.335 890.847 Q263.764 890.847 265.213 891.129 Q266.68 891.411 268.259 891.975 Z" fill="#000000" fill-rule="evenodd" fill-opacity="1" /><path clip-path="url(#clip680)" d="M56.6171 632.813 L72.9365 632.813 L72.9365 636.748 L50.9921 636.748 L50.9921 632.813 Q53.6541 630.058 58.2375 625.429 Q62.8439 620.776 64.0245 619.434 Q66.2698 616.91 67.1494 615.174 Q68.0522 613.415 68.0522 611.725 Q68.0522 608.971 66.1078 607.235 Q64.1865 605.498 61.0847 605.498 Q58.8856 605.498 56.4319 606.262 Q54.0014 607.026 51.2236 608.577 L51.2236 603.855 Q54.0477 602.721 56.5014 602.142 Q58.955 601.563 60.9921 601.563 Q66.3624 601.563 69.5568 604.248 Q72.7513 606.934 72.7513 611.424 Q72.7513 613.554 71.9411 615.475 Q71.1541 617.373 69.0476 619.966 Q68.4689 620.637 65.367 623.855 Q62.2652 627.049 56.6171 632.813 Z" fill="#000000" fill-rule="evenodd" fill-opacity="1" /><path clip-path="url(#clip680)" d="M82.7512 630.869 L87.6354 630.869 L87.6354 636.748 L82.7512 636.748 L82.7512 630.869 Z" fill="#000000" fill-rule="evenodd" fill-opacity="1" /><path clip-path="url(#clip680)" d="M107.821 605.267 Q104.209 605.267 102.381 608.832 Q100.575 612.373 100.575 619.503 Q100.575 626.609 102.381 630.174 Q104.209 633.716 107.821 633.716 Q111.455 633.716 113.26 630.174 Q115.089 626.609 115.089 619.503 Q115.089 612.373 113.26 608.832 Q111.455 605.267 107.821 605.267 M107.821 601.563 Q113.631 601.563 116.686 606.17 Q119.765 610.753 119.765 619.503 Q119.765 628.23 116.686 632.836 Q113.631 637.42 107.821 637.42 Q102.01 637.42 98.9317 632.836 Q95.8761 628.23 95.8761 619.503 Q95.8761 610.753 98.9317 606.17 Q102.01 601.563 107.821 601.563 Z" fill="#000000" fill-rule="evenodd" fill-opacity="1" /><path clip-path="url(#clip680)" d="M156.154 611.285 L145.575 621.91 L156.154 632.489 L153.399 635.29 L142.774 624.665 L132.149 635.29 L129.418 632.489 L139.973 621.91 L129.418 611.285 L132.149 608.485 L142.774 619.109 L153.399 608.485 L156.154 611.285 Z" fill="#000000" fill-rule="evenodd" fill-opacity="1" /><path clip-path="url(#clip680)" d="M168.515 632.813 L176.153 632.813 L176.153 606.447 L167.843 608.114 L167.843 603.855 L176.107 602.188 L180.783 602.188 L180.783 632.813 L188.422 632.813 L188.422 636.748 L168.515 636.748 L168.515 632.813 Z" fill="#000000" fill-rule="evenodd" fill-opacity="1" /><path clip-path="url(#clip680)" d="M207.866 605.267 Q204.255 605.267 202.426 608.832 Q200.621 612.373 200.621 619.503 Q200.621 626.609 202.426 630.174 Q204.255 633.716 207.866 633.716 Q211.501 633.716 213.306 630.174 Q215.135 626.609 215.135 619.503 Q215.135 612.373 213.306 608.832 Q211.501 605.267 207.866 605.267 M207.866 601.563 Q213.676 601.563 216.732 606.17 Q219.811 610.753 219.811 619.503 Q219.811 628.23 216.732 632.836 Q213.676 637.42 207.866 637.42 Q202.056 637.42 198.977 632.836 Q195.922 628.23 195.922 619.503 Q195.922 610.753 198.977 606.17 Q202.056 601.563 207.866 601.563 Z" fill="#000000" fill-rule="evenodd" fill-opacity="1" /><path clip-path="url(#clip680)" d="M219.811 595.665 L243.922 595.665 L243.922 598.862 L219.811 598.862 L219.811 595.665 Z" fill="#000000" fill-rule="evenodd" fill-opacity="1" /><path clip-path="url(#clip680)" d="M260.718 593.784 Q258.16 593.784 256.655 595.533 Q255.169 597.282 255.169 600.329 Q255.169 603.357 256.655 605.125 Q258.16 606.874 260.718 606.874 Q263.275 606.874 264.761 605.125 Q266.266 603.357 266.266 600.329 Q266.266 597.282 264.761 595.533 Q263.275 593.784 260.718 593.784 M268.259 581.878 L268.259 585.339 Q266.83 584.662 265.363 584.305 Q263.915 583.947 262.485 583.947 Q258.724 583.947 256.73 586.486 Q254.756 589.025 254.473 594.16 Q255.583 592.524 257.257 591.659 Q258.931 590.775 260.943 590.775 Q265.175 590.775 267.62 593.351 Q270.084 595.909 270.084 600.329 Q270.084 604.655 267.526 607.269 Q264.968 609.883 260.718 609.883 Q255.846 609.883 253.27 606.159 Q250.693 602.417 250.693 595.326 Q250.693 588.668 253.853 584.718 Q257.012 580.75 262.335 580.75 Q263.764 580.75 265.213 581.032 Q266.68 581.314 268.259 581.878 Z" fill="#000000" fill-rule="evenodd" fill-opacity="1" /><path clip-path="url(#clip680)" d="M66.7559 308.017 Q70.1124 308.735 71.9874 311.003 Q73.8855 313.272 73.8855 316.605 Q73.8855 321.721 70.367 324.522 Q66.8485 327.323 60.3671 327.323 Q58.1912 327.323 55.8764 326.883 Q53.5847 326.466 51.131 325.61 L51.131 321.096 Q53.0754 322.23 55.3903 322.809 Q57.7051 323.388 60.2282 323.388 Q64.6263 323.388 66.918 321.652 Q69.2328 319.915 69.2328 316.605 Q69.2328 313.55 67.08 311.837 Q64.9504 310.101 61.131 310.101 L57.1032 310.101 L57.1032 306.258 L61.3161 306.258 Q64.7652 306.258 66.5939 304.892 Q68.4226 303.503 68.4226 300.911 Q68.4226 298.249 66.5245 296.837 Q64.6495 295.402 61.131 295.402 Q59.2097 295.402 57.0106 295.818 Q54.8115 296.235 52.1727 297.115 L52.1727 292.948 Q54.8347 292.207 57.1495 291.837 Q59.4875 291.466 61.5476 291.466 Q66.8717 291.466 69.9735 293.897 Q73.0753 296.304 73.0753 300.425 Q73.0753 303.295 71.4318 305.286 Q69.7883 307.253 66.7559 308.017 Z" fill="#000000" fill-rule="evenodd" fill-opacity="1" /><path clip-path="url(#clip680)" d="M82.7512 320.772 L87.6354 320.772 L87.6354 326.651 L82.7512 326.651 L82.7512 320.772 Z" fill="#000000" fill-rule="evenodd" fill-opacity="1" /><path clip-path="url(#clip680)" d="M107.821 295.17 Q104.209 295.17 102.381 298.735 Q100.575 302.277 100.575 309.406 Q100.575 316.513 102.381 320.077 Q104.209 323.619 107.821 323.619 Q111.455 323.619 113.26 320.077 Q115.089 316.513 115.089 309.406 Q115.089 302.277 113.26 298.735 Q111.455 295.17 107.821 295.17 M107.821 291.466 Q113.631 291.466 116.686 296.073 Q119.765 300.656 119.765 309.406 Q119.765 318.133 116.686 322.739 Q113.631 327.323 107.821 327.323 Q102.01 327.323 98.9317 322.739 Q95.8761 318.133 95.8761 309.406 Q95.8761 300.656 98.9317 296.073 Q102.01 291.466 107.821 291.466 Z" fill="#000000" fill-rule="evenodd" fill-opacity="1" /><path clip-path="url(#clip680)" d="M156.154 301.189 L145.575 311.814 L156.154 322.392 L153.399 325.193 L142.774 314.568 L132.149 325.193 L129.418 322.392 L139.973 311.814 L129.418 301.189 L132.149 298.388 L142.774 309.013 L153.399 298.388 L156.154 301.189 Z" fill="#000000" fill-rule="evenodd" fill-opacity="1" /><path clip-path="url(#clip680)" d="M168.515 322.716 L176.153 322.716 L176.153 296.351 L167.843 298.017 L167.843 293.758 L176.107 292.091 L180.783 292.091 L180.783 322.716 L188.422 322.716 L188.422 326.651 L168.515 326.651 L168.515 322.716 Z" fill="#000000" fill-rule="evenodd" fill-opacity="1" /><path clip-path="url(#clip680)" d="M207.866 295.17 Q204.255 295.17 202.426 298.735 Q200.621 302.277 200.621 309.406 Q200.621 316.513 202.426 320.077 Q204.255 323.619 207.866 323.619 Q211.501 323.619 213.306 320.077 Q215.135 316.513 215.135 309.406 Q215.135 302.277 213.306 298.735 Q211.501 295.17 207.866 295.17 M207.866 291.466 Q213.676 291.466 216.732 296.073 Q219.811 300.656 219.811 309.406 Q219.811 318.133 216.732 322.739 Q213.676 327.323 207.866 327.323 Q202.056 327.323 198.977 322.739 Q195.922 318.133 195.922 309.406 Q195.922 300.656 198.977 296.073 Q202.056 291.466 207.866 291.466 Z" fill="#000000" fill-rule="evenodd" fill-opacity="1" /><path clip-path="url(#clip680)" d="M219.811 285.568 L243.922 285.568 L243.922 288.765 L219.811 288.765 L219.811 285.568 Z" fill="#000000" fill-rule="evenodd" fill-opacity="1" /><path clip-path="url(#clip680)" d="M260.718 283.687 Q258.16 283.687 256.655 285.436 Q255.169 287.185 255.169 290.232 Q255.169 293.26 256.655 295.028 Q258.16 296.777 260.718 296.777 Q263.275 296.777 264.761 295.028 Q266.266 293.26 266.266 290.232 Q266.266 287.185 264.761 285.436 Q263.275 283.687 260.718 283.687 M268.259 271.782 L268.259 275.242 Q266.83 274.565 265.363 274.208 Q263.915 273.851 262.485 273.851 Q258.724 273.851 256.73 276.39 Q254.756 278.929 254.473 284.063 Q255.583 282.427 257.257 281.562 Q258.931 280.678 260.943 280.678 Q265.175 280.678 267.62 283.254 Q270.084 285.812 270.084 290.232 Q270.084 294.558 267.526 297.172 Q264.968 299.787 260.718 299.787 Q255.846 299.787 253.27 296.063 Q250.693 292.32 250.693 285.229 Q250.693 278.571 253.853 274.622 Q257.012 270.653 262.335 270.653 Q263.764 270.653 265.213 270.935 Q266.68 271.218 268.259 271.782 Z" fill="#000000" fill-rule="evenodd" fill-opacity="1" /><polyline clip-path="url(#clip682)" style="stroke:#009af9; stroke-linecap:round; stroke-linejoin:round; stroke-width:4; stroke-opacity:1; fill:none" points="
  364.009,1080.57 380.099,1359.28 396.189,1134.05 412.279,1276.86 428.369,1128.81 444.459,1223.56 460.55,1200.44 476.64,1268.64 492.73,1262.59 508.82,1128.44 
  524.91,1177.39 541.001,1074.72 557.091,996.67 573.181,1120.83 589.271,841.021 605.361,1238.51 621.452,986.168 637.542,1387.9 653.632,1167.43 669.722,1445.72 
  685.812,1276.22 701.902,1434.61 717.993,1273.22 734.083,1331.44 750.173,1215.48 766.263,1386.7 782.353,1258.02 798.444,1266.17 814.534,1143.25 830.624,1034.86 
  846.714,975.067 862.804,805.699 878.895,577.563 894.985,1000.63 911.075,87.9763 927.165,954.226 943.255,580.913 959.346,953.84 975.436,1069.05 991.526,1106.56 
  1007.62,1201.93 1023.71,1122.66 1039.8,1240.82 1055.89,1213.71 1071.98,1272.03 1088.07,1328.73 1104.16,1326.95 1120.25,1214.68 1136.34,1348.12 1152.43,1250.49 
  1168.52,1142.58 1184.61,1291.46 1200.7,1014.02 1216.79,1146.43 1232.88,1061.15 1248.97,1144.7 1265.06,1176.23 1281.15,1070.2 1297.24,1299.65 1313.33,1169.57 
  1329.42,1395.06 1345.51,1253.25 1361.6,1373.28 1377.69,1267.06 1393.78,1237.05 1409.87,1169.1 1425.96,1252.89 1442.05,1230.94 1458.14,1292.24 1474.23,1173.46 
  1490.32,1106.01 1506.41,1226.86 1522.5,941.042 1538.59,999.248 1554.68,1146.34 1570.77,913.148 1586.86,1273.22 1602.95,968.966 1619.04,1401.33 1635.13,1240.31 
  1651.22,1294.72 1667.31,1191.09 1683.4,1351.92 1699.49,1157.4 1715.58,1169.05 1731.67,1103.66 1747.76,1297.69 1763.85,1107.84 1779.95,1286.57 1796.04,1200.3 
  1812.13,1269.26 1828.22,1188.57 1844.31,1287.26 1860.4,1005.93 1876.49,1161.81 1892.58,943.073 1908.67,1126.14 1924.76,1147.26 1940.85,1207.59 1956.94,1179.02 
  1973.03,1268.6 1989.12,1304.31 2005.21,1185.25 2021.3,1213.52 2037.39,1264.52 2053.48,1201.75 2069.57,1228.72 2085.66,1198.9 2101.75,1218.78 2117.84,1166.04 
  2133.93,1188.12 2150.02,1074.46 2166.11,1147.04 2182.2,980.64 2198.29,1086.51 2214.38,1045.95 2230.47,1130.59 2246.56,1199.85 2262.65,1176.66 2278.74,1283.99 
  2294.83,1335.43 
  "/>
<path clip-path="url(#clip680)" d="
M1628.92 198.898 L2284.53 198.898 L2284.53 95.2176 L1628.92 95.2176  Z
  " fill="#ffffff" fill-rule="evenodd" fill-opacity="1"/>
<polyline clip-path="url(#clip680)" style="stroke:#000000; stroke-linecap:round; stroke-linejoin:round; stroke-width:4; stroke-opacity:1; fill:none" points="
  1628.92,198.898 2284.53,198.898 2284.53,95.2176 1628.92,95.2176 1628.92,198.898 
  "/>
<polyline clip-path="url(#clip680)" style="stroke:#009af9; stroke-linecap:round; stroke-linejoin:round; stroke-width:4; stroke-opacity:1; fill:none" points="
  1651.66,147.058 1788.11,147.058 
  "/>
<path clip-path="url(#clip680)" d="M1824.25 151.305 Q1819.09 151.305 1817.1 152.486 Q1815.11 153.666 1815.11 156.514 Q1815.11 158.782 1816.59 160.125 Q1818.09 161.444 1820.66 161.444 Q1824.2 161.444 1826.33 158.944 Q1828.48 156.421 1828.48 152.254 L1828.48 151.305 L1824.25 151.305 M1832.74 149.546 L1832.74 164.338 L1828.48 164.338 L1828.48 160.402 Q1827.03 162.763 1824.85 163.898 Q1822.67 165.009 1819.53 165.009 Q1815.55 165.009 1813.18 162.787 Q1810.85 160.541 1810.85 156.791 Q1810.85 152.416 1813.76 150.194 Q1816.7 147.972 1822.51 147.972 L1828.48 147.972 L1828.48 147.555 Q1828.48 144.615 1826.54 143.018 Q1824.62 141.398 1821.12 141.398 Q1818.9 141.398 1816.8 141.93 Q1814.69 142.463 1812.74 143.527 L1812.74 139.592 Q1815.08 138.69 1817.28 138.25 Q1819.48 137.787 1821.56 137.787 Q1827.19 137.787 1829.97 140.703 Q1832.74 143.62 1832.74 149.546 Z" fill="#000000" fill-rule="evenodd" fill-opacity="1" /><path clip-path="url(#clip680)" d="M1841.08 154.106 L1841.08 138.412 L1845.34 138.412 L1845.34 153.944 Q1845.34 157.625 1846.77 159.476 Q1848.21 161.305 1851.08 161.305 Q1854.53 161.305 1856.52 159.106 Q1858.53 156.907 1858.53 153.111 L1858.53 138.412 L1862.79 138.412 L1862.79 164.338 L1858.53 164.338 L1858.53 160.356 Q1856.98 162.717 1854.92 163.875 Q1852.88 165.009 1850.17 165.009 Q1845.71 165.009 1843.39 162.231 Q1841.08 159.453 1841.08 154.106 M1851.79 137.787 L1851.79 137.787 Z" fill="#000000" fill-rule="evenodd" fill-opacity="1" /><path clip-path="url(#clip680)" d="M1875.78 131.051 L1875.78 138.412 L1884.55 138.412 L1884.55 141.722 L1875.78 141.722 L1875.78 155.796 Q1875.78 158.967 1876.63 159.87 Q1877.51 160.773 1880.17 160.773 L1884.55 160.773 L1884.55 164.338 L1880.17 164.338 Q1875.24 164.338 1873.37 162.509 Q1871.49 160.657 1871.49 155.796 L1871.49 141.722 L1868.37 141.722 L1868.37 138.412 L1871.49 138.412 L1871.49 131.051 L1875.78 131.051 Z" fill="#000000" fill-rule="evenodd" fill-opacity="1" /><path clip-path="url(#clip680)" d="M1900.2 141.398 Q1896.77 141.398 1894.78 144.083 Q1892.79 146.745 1892.79 151.398 Q1892.79 156.051 1894.76 158.736 Q1896.75 161.398 1900.2 161.398 Q1903.6 161.398 1905.59 158.713 Q1907.58 156.027 1907.58 151.398 Q1907.58 146.791 1905.59 144.106 Q1903.6 141.398 1900.2 141.398 M1900.2 137.787 Q1905.75 137.787 1908.92 141.398 Q1912.1 145.009 1912.1 151.398 Q1912.1 157.764 1908.92 161.398 Q1905.75 165.009 1900.2 165.009 Q1894.62 165.009 1891.45 161.398 Q1888.3 157.764 1888.3 151.398 Q1888.3 145.009 1891.45 141.398 Q1894.62 137.787 1900.2 137.787 Z" fill="#000000" fill-rule="evenodd" fill-opacity="1" /><path clip-path="url(#clip680)" d="M1937.81 139.407 L1937.81 143.389 Q1936.01 142.393 1934.18 141.907 Q1932.37 141.398 1930.52 141.398 Q1926.38 141.398 1924.09 144.037 Q1921.79 146.652 1921.79 151.398 Q1921.79 156.143 1924.09 158.782 Q1926.38 161.398 1930.52 161.398 Q1932.37 161.398 1934.18 160.912 Q1936.01 160.402 1937.81 159.407 L1937.81 163.342 Q1936.03 164.176 1934.11 164.592 Q1932.21 165.009 1930.06 165.009 Q1924.2 165.009 1920.75 161.328 Q1917.3 157.648 1917.3 151.398 Q1917.3 145.055 1920.78 141.421 Q1924.27 137.787 1930.34 137.787 Q1932.3 137.787 1934.18 138.203 Q1936.05 138.597 1937.81 139.407 Z" fill="#000000" fill-rule="evenodd" fill-opacity="1" /><path clip-path="url(#clip680)" d="M1955.27 141.398 Q1951.84 141.398 1949.85 144.083 Q1947.86 146.745 1947.86 151.398 Q1947.86 156.051 1949.83 158.736 Q1951.82 161.398 1955.27 161.398 Q1958.67 161.398 1960.66 158.713 Q1962.65 156.027 1962.65 151.398 Q1962.65 146.791 1960.66 144.106 Q1958.67 141.398 1955.27 141.398 M1955.27 137.787 Q1960.82 137.787 1963.99 141.398 Q1967.16 145.009 1967.16 151.398 Q1967.16 157.764 1963.99 161.398 Q1960.82 165.009 1955.27 165.009 Q1949.69 165.009 1946.52 161.398 Q1943.37 157.764 1943.37 151.398 Q1943.37 145.009 1946.52 141.398 Q1949.69 137.787 1955.27 137.787 Z" fill="#000000" fill-rule="evenodd" fill-opacity="1" /><path clip-path="url(#clip680)" d="M1989.25 142.393 Q1988.53 141.977 1987.67 141.791 Q1986.84 141.583 1985.82 141.583 Q1982.21 141.583 1980.27 143.944 Q1978.35 146.282 1978.35 150.68 L1978.35 164.338 L1974.06 164.338 L1974.06 138.412 L1978.35 138.412 L1978.35 142.44 Q1979.69 140.078 1981.84 138.944 Q1983.99 137.787 1987.07 137.787 Q1987.51 137.787 1988.04 137.856 Q1988.58 137.903 1989.22 138.018 L1989.25 142.393 Z" fill="#000000" fill-rule="evenodd" fill-opacity="1" /><path clip-path="url(#clip680)" d="M2007.91 142.393 Q2007.19 141.977 2006.33 141.791 Q2005.5 141.583 2004.48 141.583 Q2000.87 141.583 1998.92 143.944 Q1997 146.282 1997 150.68 L1997 164.338 L1992.72 164.338 L1992.72 138.412 L1997 138.412 L1997 142.44 Q1998.35 140.078 2000.5 138.944 Q2002.65 137.787 2005.73 137.787 Q2006.17 137.787 2006.7 137.856 Q2007.23 137.903 2007.88 138.018 L2007.91 142.393 Z" fill="#000000" fill-rule="evenodd" fill-opacity="1" /><path clip-path="url(#clip680)" d="M2033.51 150.31 L2033.51 152.393 L2013.92 152.393 Q2014.2 156.791 2016.56 159.106 Q2018.95 161.398 2023.18 161.398 Q2025.64 161.398 2027.93 160.796 Q2030.24 160.194 2032.51 158.99 L2032.51 163.018 Q2030.22 163.99 2027.81 164.5 Q2025.41 165.009 2022.93 165.009 Q2016.72 165.009 2013.09 161.398 Q2009.48 157.787 2009.48 151.629 Q2009.48 145.264 2012.91 141.537 Q2016.35 137.787 2022.19 137.787 Q2027.42 137.787 2030.45 141.166 Q2033.51 144.523 2033.51 150.31 M2029.25 149.06 Q2029.2 145.565 2027.28 143.481 Q2025.38 141.398 2022.23 141.398 Q2018.67 141.398 2016.52 143.412 Q2014.39 145.426 2014.06 149.083 L2029.25 149.06 Z" fill="#000000" fill-rule="evenodd" fill-opacity="1" /><path clip-path="url(#clip680)" d="M2040.5 128.319 L2044.76 128.319 L2044.76 164.338 L2040.5 164.338 L2040.5 128.319 Z" fill="#000000" fill-rule="evenodd" fill-opacity="1" /><path clip-path="url(#clip680)" d="M2065.45 151.305 Q2060.29 151.305 2058.3 152.486 Q2056.31 153.666 2056.31 156.514 Q2056.31 158.782 2057.79 160.125 Q2059.29 161.444 2061.86 161.444 Q2065.4 161.444 2067.53 158.944 Q2069.69 156.421 2069.69 152.254 L2069.69 151.305 L2065.45 151.305 M2073.95 149.546 L2073.95 164.338 L2069.69 164.338 L2069.69 160.402 Q2068.23 162.763 2066.05 163.898 Q2063.88 165.009 2060.73 165.009 Q2056.75 165.009 2054.39 162.787 Q2052.05 160.541 2052.05 156.791 Q2052.05 152.416 2054.97 150.194 Q2057.9 147.972 2063.72 147.972 L2069.69 147.972 L2069.69 147.555 Q2069.69 144.615 2067.74 143.018 Q2065.82 141.398 2062.33 141.398 Q2060.1 141.398 2058 141.93 Q2055.89 142.463 2053.95 143.527 L2053.95 139.592 Q2056.28 138.69 2058.48 138.25 Q2060.68 137.787 2062.77 137.787 Q2068.39 137.787 2071.17 140.703 Q2073.95 143.62 2073.95 149.546 Z" fill="#000000" fill-rule="evenodd" fill-opacity="1" /><path clip-path="url(#clip680)" d="M2086.93 131.051 L2086.93 138.412 L2095.71 138.412 L2095.71 141.722 L2086.93 141.722 L2086.93 155.796 Q2086.93 158.967 2087.79 159.87 Q2088.67 160.773 2091.33 160.773 L2095.71 160.773 L2095.71 164.338 L2091.33 164.338 Q2086.4 164.338 2084.53 162.509 Q2082.65 160.657 2082.65 155.796 L2082.65 141.722 L2079.53 141.722 L2079.53 138.412 L2082.65 138.412 L2082.65 131.051 L2086.93 131.051 Z" fill="#000000" fill-rule="evenodd" fill-opacity="1" /><path clip-path="url(#clip680)" d="M2101.31 138.412 L2105.57 138.412 L2105.57 164.338 L2101.31 164.338 L2101.31 138.412 M2101.31 128.319 L2105.57 128.319 L2105.57 133.713 L2101.31 133.713 L2101.31 128.319 Z" fill="#000000" fill-rule="evenodd" fill-opacity="1" /><path clip-path="url(#clip680)" d="M2124.52 141.398 Q2121.1 141.398 2119.11 144.083 Q2117.12 146.745 2117.12 151.398 Q2117.12 156.051 2119.09 158.736 Q2121.08 161.398 2124.52 161.398 Q2127.93 161.398 2129.92 158.713 Q2131.91 156.027 2131.91 151.398 Q2131.91 146.791 2129.92 144.106 Q2127.93 141.398 2124.52 141.398 M2124.52 137.787 Q2130.08 137.787 2133.25 141.398 Q2136.42 145.009 2136.42 151.398 Q2136.42 157.764 2133.25 161.398 Q2130.08 165.009 2124.52 165.009 Q2118.95 165.009 2115.77 161.398 Q2112.63 157.764 2112.63 151.398 Q2112.63 145.009 2115.77 141.398 Q2118.95 137.787 2124.52 137.787 Z" fill="#000000" fill-rule="evenodd" fill-opacity="1" /><path clip-path="url(#clip680)" d="M2165.03 148.689 L2165.03 164.338 L2160.77 164.338 L2160.77 148.828 Q2160.77 145.148 2159.34 143.319 Q2157.9 141.49 2155.03 141.49 Q2151.58 141.49 2149.59 143.69 Q2147.6 145.889 2147.6 149.685 L2147.6 164.338 L2143.32 164.338 L2143.32 138.412 L2147.6 138.412 L2147.6 142.44 Q2149.13 140.102 2151.19 138.944 Q2153.27 137.787 2155.98 137.787 Q2160.45 137.787 2162.74 140.565 Q2165.03 143.319 2165.03 148.689 Z" fill="#000000" fill-rule="evenodd" fill-opacity="1" /><path clip-path="url(#clip680)" d="M2198.83 128.366 Q2195.73 133.69 2194.22 138.898 Q2192.72 144.106 2192.72 149.453 Q2192.72 154.801 2194.22 160.055 Q2195.75 165.287 2198.83 170.588 L2195.13 170.588 Q2191.65 165.148 2189.92 159.893 Q2188.21 154.639 2188.21 149.453 Q2188.21 144.291 2189.92 139.06 Q2191.63 133.828 2195.13 128.366 L2198.83 128.366 Z" fill="#000000" fill-rule="evenodd" fill-opacity="1" /><path clip-path="url(#clip680)" d="M2220.22 128.319 L2220.22 131.861 L2216.14 131.861 Q2213.85 131.861 2212.95 132.787 Q2212.07 133.713 2212.07 136.12 L2212.07 138.412 L2219.08 138.412 L2219.08 141.722 L2212.07 141.722 L2212.07 164.338 L2207.79 164.338 L2207.79 141.722 L2203.71 141.722 L2203.71 138.412 L2207.79 138.412 L2207.79 136.606 Q2207.79 132.278 2209.8 130.31 Q2211.82 128.319 2216.19 128.319 L2220.22 128.319 Z" fill="#000000" fill-rule="evenodd" fill-opacity="1" /><path clip-path="url(#clip680)" d="M2220.73 138.412 L2225.24 138.412 L2233.34 160.171 L2241.45 138.412 L2245.96 138.412 L2236.24 164.338 L2230.45 164.338 L2220.73 138.412 Z" fill="#000000" fill-rule="evenodd" fill-opacity="1" /><path clip-path="url(#clip680)" d="M2251.17 128.366 L2254.87 128.366 Q2258.34 133.828 2260.06 139.06 Q2261.79 144.291 2261.79 149.453 Q2261.79 154.639 2260.06 159.893 Q2258.34 165.148 2254.87 170.588 L2251.17 170.588 Q2254.25 165.287 2255.75 160.055 Q2257.28 154.801 2257.28 149.453 Q2257.28 144.106 2255.75 138.898 Q2254.25 133.69 2251.17 128.366 Z" fill="#000000" fill-rule="evenodd" fill-opacity="1" /></svg>
