<?xml version="1.0" encoding="UTF-8"?>
<svg xmlns="http://www.w3.org/2000/svg" xmlns:xlink="http://www.w3.org/1999/xlink" width="600" height="400" viewBox="0 0 2400 1600">
<defs>
  <clipPath id="clip520">
    <rect x="0" y="0" width="2400" height="1600"/>
  </clipPath>
</defs>
<path clip-path="url(#clip520)" d=" M0 1600 L2400 1600 L2400 0 L0 0  Z   " fill="#ffffff" fill-rule="evenodd" fill-opacity="1"/>
<defs>
  <clipPath id="clip521">
    <rect x="480" y="0" width="1681" height="1600"/>
  </clipPath>
</defs>
<path clip-path="url(#clip520)" d=" M253.264 1486.45 L2352.76 1486.45 L2352.76 47.2441 L253.264 47.2441  Z   " fill="#ffffff" fill-rule="evenodd" fill-opacity="1"/>
<defs>
  <clipPath id="clip522">
    <rect x="253" y="47" width="2100" height="1440"/>
  </clipPath>
</defs>
<polyline clip-path="url(#clip522)" style="stroke:#000000; stroke-linecap:round; stroke-linejoin:round; stroke-width:2; stroke-opacity:0.1; fill:none" points="   1303.01,1486.45 1303.01,47.2441    "/>
<polyline clip-path="url(#clip522)" style="stroke:#000000; stroke-linecap:round; stroke-linejoin:round; stroke-width:2; stroke-opacity:0.1; fill:none" points="   784.178,1486.45 784.178,47.2441    "/>
<polyline clip-path="url(#clip520)" style="stroke:#000000; stroke-linecap:round; stroke-linejoin:round; stroke-width:4; stroke-opacity:1; fill:none" points="   253.264,1486.45 2352.76,1486.45    "/>
<polyline clip-path="url(#clip520)" style="stroke:#000000; stroke-linecap:round; stroke-linejoin:round; stroke-width:4; stroke-opacity:1; fill:none" points="   1303.01,1486.45 1303.01,1467.55    "/>
<polyline clip-path="url(#clip520)" style="stroke:#000000; stroke-linecap:round; stroke-linejoin:round; stroke-width:4; stroke-opacity:1; fill:none" points="   784.178,1486.45 784.178,1467.55    "/>
<path clip-path="url(#clip520)" d="M1097.53 1544.96 L1097.53 1558.71 L1093.24 1558.71 L1093.24 1522.92 L1097.53 1522.92 L1097.53 1526.86 Q1098.87 1524.54 1100.9 1523.43 Q1102.96 1522.3 1105.81 1522.3 Q1110.53 1522.3 1113.47 1526.05 Q1116.44 1529.8 1116.44 1535.91 Q1116.44 1542.02 1113.47 1545.77 Q1110.53 1549.52 1105.81 1549.52 Q1102.96 1549.52 1100.9 1548.41 Q1098.87 1547.27 1097.53 1544.96 M1112.02 1535.91 Q1112.02 1531.21 1110.07 1528.55 Q1108.15 1525.86 1104.77 1525.86 Q1101.39 1525.86 1099.45 1528.55 Q1097.53 1531.21 1097.53 1535.91 Q1097.53 1540.61 1099.45 1543.29 Q1101.39 1545.95 1104.77 1545.95 Q1108.15 1545.95 1110.07 1543.29 Q1112.02 1540.61 1112.02 1535.91 Z" fill="#000000" fill-rule="evenodd" fill-opacity="1"/><path clip-path="url(#clip520)" d="M1138.52 1526.9 Q1137.8 1526.49 1136.95 1526.3 Q1136.11 1526.09 1135.09 1526.09 Q1131.48 1526.09 1129.54 1528.45 Q1127.62 1530.79 1127.62 1535.19 L1127.62 1548.85 L1123.34 1548.85 L1123.34 1522.92 L1127.62 1522.92 L1127.62 1526.95 Q1128.96 1524.59 1131.11 1523.45 Q1133.27 1522.3 1136.34 1522.3 Q1136.78 1522.3 1137.32 1522.37 Q1137.85 1522.41 1138.5 1522.53 L1138.52 1526.9 Z" fill="#000000" fill-rule="evenodd" fill-opacity="1"/><path clip-path="url(#clip520)" d="M1164.12 1534.82 L1164.12 1536.9 L1144.54 1536.9 Q1144.82 1541.3 1147.18 1543.62 Q1149.56 1545.91 1153.8 1545.91 Q1156.25 1545.91 1158.54 1545.31 Q1160.86 1544.7 1163.13 1543.5 L1163.13 1547.53 Q1160.83 1548.5 1158.43 1549.01 Q1156.02 1549.52 1153.54 1549.52 Q1147.34 1549.52 1143.71 1545.91 Q1140.09 1542.3 1140.09 1536.14 Q1140.09 1529.77 1143.52 1526.05 Q1146.97 1522.3 1152.8 1522.3 Q1158.03 1522.3 1161.07 1525.68 Q1164.12 1529.03 1164.12 1534.82 M1159.86 1533.57 Q1159.82 1530.07 1157.9 1527.99 Q1156 1525.91 1152.85 1525.91 Q1149.28 1525.91 1147.13 1527.92 Q1145 1529.94 1144.68 1533.59 L1159.86 1533.57 Z" fill="#000000" fill-rule="evenodd" fill-opacity="1"/><path clip-path="url(#clip520)" d="M1168.06 1522.92 L1172.57 1522.92 L1180.67 1544.68 L1188.77 1522.92 L1193.29 1522.92 L1183.57 1548.85 L1177.78 1548.85 L1168.06 1522.92 Z" fill="#000000" fill-rule="evenodd" fill-opacity="1"/><path clip-path="url(#clip520)" d="M1199.17 1522.92 L1203.43 1522.92 L1203.43 1548.85 L1199.17 1548.85 L1199.17 1522.92 M1199.17 1512.83 L1203.43 1512.83 L1203.43 1518.22 L1199.17 1518.22 L1199.17 1512.83 Z" fill="#000000" fill-rule="evenodd" fill-opacity="1"/><path clip-path="url(#clip520)" d="M1222.39 1525.91 Q1218.96 1525.91 1216.97 1528.59 Q1214.98 1531.26 1214.98 1535.91 Q1214.98 1540.56 1216.95 1543.25 Q1218.94 1545.91 1222.39 1545.91 Q1225.79 1545.91 1227.78 1543.22 Q1229.77 1540.54 1229.77 1535.91 Q1229.77 1531.3 1227.78 1528.62 Q1225.79 1525.91 1222.39 1525.91 M1222.39 1522.3 Q1227.94 1522.3 1231.11 1525.91 Q1234.28 1529.52 1234.28 1535.91 Q1234.28 1542.27 1231.11 1545.91 Q1227.94 1549.52 1222.39 1549.52 Q1216.81 1549.52 1213.64 1545.91 Q1210.49 1542.27 1210.49 1535.91 Q1210.49 1529.52 1213.64 1525.91 Q1216.81 1522.3 1222.39 1522.3 Z" fill="#000000" fill-rule="evenodd" fill-opacity="1"/><path clip-path="url(#clip520)" d="M1240.9 1538.62 L1240.9 1522.92 L1245.16 1522.92 L1245.16 1538.45 Q1245.16 1542.13 1246.6 1543.99 Q1248.03 1545.82 1250.9 1545.82 Q1254.35 1545.82 1256.34 1543.62 Q1258.36 1541.42 1258.36 1537.62 L1258.36 1522.92 L1262.62 1522.92 L1262.62 1548.85 L1258.36 1548.85 L1258.36 1544.87 Q1256.81 1547.23 1254.75 1548.38 Q1252.71 1549.52 1250 1549.52 Q1245.53 1549.52 1243.22 1546.74 Q1240.9 1543.96 1240.9 1538.62 M1251.62 1522.3 L1251.62 1522.3 Z" fill="#000000" fill-rule="evenodd" fill-opacity="1"/><path clip-path="url(#clip520)" d="M1287.92 1523.69 L1287.92 1527.71 Q1286.11 1526.79 1284.17 1526.32 Q1282.22 1525.86 1280.14 1525.86 Q1276.97 1525.86 1275.37 1526.83 Q1273.8 1527.81 1273.8 1529.75 Q1273.8 1531.23 1274.93 1532.09 Q1276.07 1532.92 1279.49 1533.69 L1280.95 1534.01 Q1285.49 1534.98 1287.39 1536.76 Q1289.31 1538.52 1289.31 1541.7 Q1289.31 1545.31 1286.44 1547.41 Q1283.59 1549.52 1278.59 1549.52 Q1276.51 1549.52 1274.24 1549.1 Q1271.99 1548.71 1269.49 1547.9 L1269.49 1543.5 Q1271.85 1544.73 1274.14 1545.35 Q1276.44 1545.95 1278.68 1545.95 Q1281.69 1545.95 1283.31 1544.94 Q1284.93 1543.89 1284.93 1542.02 Q1284.93 1540.28 1283.75 1539.36 Q1282.59 1538.43 1278.64 1537.57 L1277.15 1537.23 Q1273.2 1536.39 1271.44 1534.68 Q1269.68 1532.95 1269.68 1529.94 Q1269.68 1526.28 1272.27 1524.29 Q1274.86 1522.3 1279.63 1522.3 Q1281.99 1522.3 1284.08 1522.64 Q1286.16 1522.99 1287.92 1523.69 Z" fill="#000000" fill-rule="evenodd" fill-opacity="1"/><path clip-path="url(#clip520)" d="M1333.33 1534.82 L1333.33 1536.9 L1313.75 1536.9 Q1314.03 1541.3 1316.39 1543.62 Q1318.77 1545.91 1323.01 1545.91 Q1325.46 1545.91 1327.76 1545.31 Q1330.07 1544.7 1332.34 1543.5 L1332.34 1547.53 Q1330.05 1548.5 1327.64 1549.01 Q1325.23 1549.52 1322.76 1549.52 Q1316.55 1549.52 1312.92 1545.91 Q1309.31 1542.3 1309.31 1536.14 Q1309.31 1529.77 1312.73 1526.05 Q1316.18 1522.3 1322.01 1522.3 Q1327.25 1522.3 1330.28 1525.68 Q1333.33 1529.03 1333.33 1534.82 M1329.07 1533.57 Q1329.03 1530.07 1327.11 1527.99 Q1325.21 1525.91 1322.06 1525.91 Q1318.5 1525.91 1316.34 1527.92 Q1314.21 1529.94 1313.89 1533.59 L1329.07 1533.57 Z" fill="#000000" fill-rule="evenodd" fill-opacity="1"/><path clip-path="url(#clip520)" d="M1356.85 1523.69 L1356.85 1527.71 Q1355.05 1526.79 1353.1 1526.32 Q1351.16 1525.86 1349.07 1525.86 Q1345.9 1525.86 1344.31 1526.83 Q1342.73 1527.81 1342.73 1529.75 Q1342.73 1531.23 1343.87 1532.09 Q1345 1532.92 1348.43 1533.69 L1349.88 1534.01 Q1354.42 1534.98 1356.32 1536.76 Q1358.24 1538.52 1358.24 1541.7 Q1358.24 1545.31 1355.37 1547.41 Q1352.52 1549.52 1347.52 1549.52 Q1345.44 1549.52 1343.17 1549.1 Q1340.93 1548.71 1338.43 1547.9 L1338.43 1543.5 Q1340.79 1544.73 1343.08 1545.35 Q1345.37 1545.95 1347.62 1545.95 Q1350.63 1545.95 1352.25 1544.94 Q1353.87 1543.89 1353.87 1542.02 Q1353.87 1540.28 1352.69 1539.36 Q1351.53 1538.43 1347.57 1537.57 L1346.09 1537.23 Q1342.13 1536.39 1340.37 1534.68 Q1338.61 1532.95 1338.61 1529.94 Q1338.61 1526.28 1341.2 1524.29 Q1343.8 1522.3 1348.57 1522.3 Q1350.93 1522.3 1353.01 1522.64 Q1355.09 1522.99 1356.85 1523.69 Z" fill="#000000" fill-rule="evenodd" fill-opacity="1"/><path clip-path="url(#clip520)" d="M1369.24 1515.56 L1369.24 1522.92 L1378.01 1522.92 L1378.01 1526.23 L1369.24 1526.23 L1369.24 1540.31 Q1369.24 1543.48 1370.09 1544.38 Q1370.97 1545.28 1373.63 1545.28 L1378.01 1545.28 L1378.01 1548.85 L1373.63 1548.85 Q1368.7 1548.85 1366.83 1547.02 Q1364.95 1545.17 1364.95 1540.31 L1364.95 1526.23 L1361.83 1526.23 L1361.83 1522.92 L1364.95 1522.92 L1364.95 1515.56 L1369.24 1515.56 Z" fill="#000000" fill-rule="evenodd" fill-opacity="1"/><path clip-path="url(#clip520)" d="M1383.61 1522.92 L1387.87 1522.92 L1387.87 1548.85 L1383.61 1548.85 L1383.61 1522.92 M1383.61 1512.83 L1387.87 1512.83 L1387.87 1518.22 L1383.61 1518.22 L1383.61 1512.83 Z" fill="#000000" fill-rule="evenodd" fill-opacity="1"/><path clip-path="url(#clip520)" d="M1416.97 1527.9 Q1418.57 1525.03 1420.79 1523.66 Q1423.01 1522.3 1426.02 1522.3 Q1430.07 1522.3 1432.27 1525.14 Q1434.47 1527.97 1434.47 1533.2 L1434.47 1548.85 L1430.19 1548.85 L1430.19 1533.34 Q1430.19 1529.61 1428.87 1527.81 Q1427.55 1526 1424.84 1526 Q1421.53 1526 1419.61 1528.2 Q1417.69 1530.4 1417.69 1534.2 L1417.69 1548.85 L1413.4 1548.85 L1413.4 1533.34 Q1413.4 1529.59 1412.08 1527.81 Q1410.76 1526 1408.01 1526 Q1404.75 1526 1402.82 1528.22 Q1400.9 1530.42 1400.9 1534.2 L1400.9 1548.85 L1396.62 1548.85 L1396.62 1522.92 L1400.9 1522.92 L1400.9 1526.95 Q1402.36 1524.57 1404.4 1523.43 Q1406.44 1522.3 1409.24 1522.3 Q1412.06 1522.3 1414.03 1523.73 Q1416.02 1525.17 1416.97 1527.9 Z" fill="#000000" fill-rule="evenodd" fill-opacity="1"/><path clip-path="url(#clip520)" d="M1454.75 1535.82 Q1449.58 1535.82 1447.59 1537 Q1445.6 1538.18 1445.6 1541.02 Q1445.6 1543.29 1447.08 1544.63 Q1448.59 1545.95 1451.16 1545.95 Q1454.7 1545.95 1456.83 1543.45 Q1458.98 1540.93 1458.98 1536.76 L1458.98 1535.82 L1454.75 1535.82 M1463.24 1534.06 L1463.24 1548.85 L1458.98 1548.85 L1458.98 1544.91 Q1457.52 1547.27 1455.35 1548.41 Q1453.17 1549.52 1450.02 1549.52 Q1446.04 1549.52 1443.68 1547.3 Q1441.34 1545.05 1441.34 1541.3 Q1441.34 1536.93 1444.26 1534.7 Q1447.2 1532.48 1453.01 1532.48 L1458.98 1532.48 L1458.98 1532.07 Q1458.98 1529.13 1457.04 1527.53 Q1455.12 1525.91 1451.62 1525.91 Q1449.4 1525.91 1447.29 1526.44 Q1445.19 1526.97 1443.24 1528.04 L1443.24 1524.1 Q1445.58 1523.2 1447.78 1522.76 Q1449.98 1522.3 1452.06 1522.3 Q1457.69 1522.3 1460.46 1525.21 Q1463.24 1528.13 1463.24 1534.06 Z" fill="#000000" fill-rule="evenodd" fill-opacity="1"/><path clip-path="url(#clip520)" d="M1476.23 1515.56 L1476.23 1522.92 L1485 1522.92 L1485 1526.23 L1476.23 1526.23 L1476.23 1540.31 Q1476.23 1543.48 1477.08 1544.38 Q1477.96 1545.28 1480.62 1545.28 L1485 1545.28 L1485 1548.85 L1480.62 1548.85 Q1475.69 1548.85 1473.82 1547.02 Q1471.94 1545.17 1471.94 1540.31 L1471.94 1526.23 L1468.82 1526.23 L1468.82 1522.92 L1471.94 1522.92 L1471.94 1515.56 L1476.23 1515.56 Z" fill="#000000" fill-rule="evenodd" fill-opacity="1"/><path clip-path="url(#clip520)" d="M1512.78 1534.82 L1512.78 1536.9 L1493.19 1536.9 Q1493.47 1541.3 1495.83 1543.62 Q1498.22 1545.91 1502.45 1545.91 Q1504.91 1545.91 1507.2 1545.31 Q1509.51 1544.7 1511.78 1543.5 L1511.78 1547.53 Q1509.49 1548.5 1507.08 1549.01 Q1504.68 1549.52 1502.2 1549.52 Q1496 1549.52 1492.36 1545.91 Q1488.75 1542.3 1488.75 1536.14 Q1488.75 1529.77 1492.18 1526.05 Q1495.62 1522.3 1501.46 1522.3 Q1506.69 1522.3 1509.72 1525.68 Q1512.78 1529.03 1512.78 1534.82 M1508.52 1533.57 Q1508.47 1530.07 1506.55 1527.99 Q1504.65 1525.91 1501.5 1525.91 Q1497.94 1525.91 1495.79 1527.92 Q1493.66 1529.94 1493.33 1533.59 L1508.52 1533.57 Z" fill="#000000" fill-rule="evenodd" fill-opacity="1"/><path clip-path="url(#clip520)" d="M674.075 1533.2 L674.075 1548.85 L669.815 1548.85 L669.815 1533.34 Q669.815 1529.66 668.38 1527.83 Q666.945 1526 664.075 1526 Q660.626 1526 658.635 1528.2 Q656.644 1530.4 656.644 1534.2 L656.644 1548.85 L652.362 1548.85 L652.362 1512.83 L656.644 1512.83 L656.644 1526.95 Q658.172 1524.61 660.232 1523.45 Q662.315 1522.3 665.024 1522.3 Q669.491 1522.3 671.783 1525.07 Q674.075 1527.83 674.075 1533.2 Z" fill="#000000" fill-rule="evenodd" fill-opacity="1"/><path clip-path="url(#clip520)" d="M694.352 1535.82 Q689.19 1535.82 687.199 1537 Q685.209 1538.18 685.209 1541.02 Q685.209 1543.29 686.69 1544.63 Q688.195 1545.95 690.764 1545.95 Q694.306 1545.95 696.436 1543.45 Q698.588 1540.93 698.588 1536.76 L698.588 1535.82 L694.352 1535.82 M702.848 1534.06 L702.848 1548.85 L698.588 1548.85 L698.588 1544.91 Q697.13 1547.27 694.954 1548.41 Q692.778 1549.52 689.63 1549.52 Q685.649 1549.52 683.287 1547.3 Q680.949 1545.05 680.949 1541.3 Q680.949 1536.93 683.866 1534.7 Q686.806 1532.48 692.616 1532.48 L698.588 1532.48 L698.588 1532.07 Q698.588 1529.13 696.644 1527.53 Q694.723 1525.91 691.227 1525.91 Q689.005 1525.91 686.899 1526.44 Q684.792 1526.97 682.848 1528.04 L682.848 1524.1 Q685.186 1523.2 687.385 1522.76 Q689.584 1522.3 691.667 1522.3 Q697.292 1522.3 700.07 1525.21 Q702.848 1528.13 702.848 1534.06 Z" fill="#000000" fill-rule="evenodd" fill-opacity="1"/><path clip-path="url(#clip520)" d="M733.171 1533.2 L733.171 1548.85 L728.912 1548.85 L728.912 1533.34 Q728.912 1529.66 727.477 1527.83 Q726.042 1526 723.171 1526 Q719.722 1526 717.732 1528.2 Q715.741 1530.4 715.741 1534.2 L715.741 1548.85 L711.459 1548.85 L711.459 1522.92 L715.741 1522.92 L715.741 1526.95 Q717.269 1524.61 719.329 1523.45 Q721.412 1522.3 724.121 1522.3 Q728.588 1522.3 730.88 1525.07 Q733.171 1527.83 733.171 1533.2 Z" fill="#000000" fill-rule="evenodd" fill-opacity="1"/><path clip-path="url(#clip520)" d="M758.727 1526.86 L758.727 1512.83 L762.986 1512.83 L762.986 1548.85 L758.727 1548.85 L758.727 1544.96 Q757.384 1547.27 755.324 1548.41 Q753.287 1549.52 750.417 1549.52 Q745.718 1549.52 742.755 1545.77 Q739.815 1542.02 739.815 1535.91 Q739.815 1529.8 742.755 1526.05 Q745.718 1522.3 750.417 1522.3 Q753.287 1522.3 755.324 1523.43 Q757.384 1524.54 758.727 1526.86 M744.213 1535.91 Q744.213 1540.61 746.134 1543.29 Q748.079 1545.95 751.458 1545.95 Q754.838 1545.95 756.782 1543.29 Q758.727 1540.61 758.727 1535.91 Q758.727 1531.21 756.782 1528.55 Q754.838 1525.86 751.458 1525.86 Q748.079 1525.86 746.134 1528.55 Q744.213 1531.21 744.213 1535.91 Z" fill="#000000" fill-rule="evenodd" fill-opacity="1"/><path clip-path="url(#clip520)" d="M791.041 1515.56 L791.041 1522.92 L799.815 1522.92 L799.815 1526.23 L791.041 1526.23 L791.041 1540.31 Q791.041 1543.48 791.898 1544.38 Q792.778 1545.28 795.44 1545.28 L799.815 1545.28 L799.815 1548.85 L795.44 1548.85 Q790.509 1548.85 788.634 1547.02 Q786.759 1545.17 786.759 1540.31 L786.759 1526.23 L783.634 1526.23 L783.634 1522.92 L786.759 1522.92 L786.759 1515.56 L791.041 1515.56 Z" fill="#000000" fill-rule="evenodd" fill-opacity="1"/><path clip-path="url(#clip520)" d="M804.977 1538.62 L804.977 1522.92 L809.236 1522.92 L809.236 1538.45 Q809.236 1542.13 810.671 1543.99 Q812.106 1545.82 814.977 1545.82 Q818.426 1545.82 820.416 1543.62 Q822.43 1541.42 822.43 1537.62 L822.43 1522.92 L826.689 1522.92 L826.689 1548.85 L822.43 1548.85 L822.43 1544.87 Q820.879 1547.23 818.819 1548.38 Q816.782 1549.52 814.074 1549.52 Q809.606 1549.52 807.291 1546.74 Q804.977 1543.96 804.977 1538.62 M815.694 1522.3 L815.694 1522.3 Z" fill="#000000" fill-rule="evenodd" fill-opacity="1"/><path clip-path="url(#clip520)" d="M857.013 1533.2 L857.013 1548.85 L852.754 1548.85 L852.754 1533.34 Q852.754 1529.66 851.319 1527.83 Q849.884 1526 847.013 1526 Q843.564 1526 841.574 1528.2 Q839.583 1530.4 839.583 1534.2 L839.583 1548.85 L835.301 1548.85 L835.301 1522.92 L839.583 1522.92 L839.583 1526.95 Q841.111 1524.61 843.171 1523.45 Q845.254 1522.3 847.962 1522.3 Q852.43 1522.3 854.722 1525.07 Q857.013 1527.83 857.013 1533.2 Z" fill="#000000" fill-rule="evenodd" fill-opacity="1"/><path clip-path="url(#clip520)" d="M887.684 1534.82 L887.684 1536.9 L868.101 1536.9 Q868.379 1541.3 870.74 1543.62 Q873.124 1545.91 877.36 1545.91 Q879.814 1545.91 882.106 1545.31 Q884.421 1544.7 886.689 1543.5 L886.689 1547.53 Q884.397 1548.5 881.99 1549.01 Q879.583 1549.52 877.106 1549.52 Q870.902 1549.52 867.268 1545.91 Q863.657 1542.3 863.657 1536.14 Q863.657 1529.77 867.083 1526.05 Q870.532 1522.3 876.365 1522.3 Q881.597 1522.3 884.629 1525.68 Q887.684 1529.03 887.684 1534.82 M883.425 1533.57 Q883.379 1530.07 881.458 1527.99 Q879.56 1525.91 876.411 1525.91 Q872.847 1525.91 870.694 1527.92 Q868.564 1529.94 868.24 1533.59 L883.425 1533.57 Z" fill="#000000" fill-rule="evenodd" fill-opacity="1"/><path clip-path="url(#clip520)" d="M911.735 1526.86 L911.735 1512.83 L915.995 1512.83 L915.995 1548.85 L911.735 1548.85 L911.735 1544.96 Q910.393 1547.27 908.333 1548.41 Q906.295 1549.52 903.425 1549.52 Q898.726 1549.52 895.763 1545.77 Q892.823 1542.02 892.823 1535.91 Q892.823 1529.8 895.763 1526.05 Q898.726 1522.3 903.425 1522.3 Q906.295 1522.3 908.333 1523.43 Q910.393 1524.54 911.735 1526.86 M897.221 1535.91 Q897.221 1540.61 899.143 1543.29 Q901.087 1545.95 904.467 1545.95 Q907.846 1545.95 909.791 1543.29 Q911.735 1540.61 911.735 1535.91 Q911.735 1531.21 909.791 1528.55 Q907.846 1525.86 904.467 1525.86 Q901.087 1525.86 899.143 1528.55 Q897.221 1531.21 897.221 1535.91 Z" fill="#000000" fill-rule="evenodd" fill-opacity="1"/><polyline clip-path="url(#clip522)" style="stroke:#000000; stroke-linecap:round; stroke-linejoin:round; stroke-width:2; stroke-opacity:0.1; fill:none" points="   253.264,1362.2 2352.76,1362.2    "/>
<polyline clip-path="url(#clip522)" style="stroke:#000000; stroke-linecap:round; stroke-linejoin:round; stroke-width:2; stroke-opacity:0.1; fill:none" points="   253.264,1164.94 2352.76,1164.94    "/>
<polyline clip-path="url(#clip522)" style="stroke:#000000; stroke-linecap:round; stroke-linejoin:round; stroke-width:2; stroke-opacity:0.1; fill:none" points="   253.264,967.684 2352.76,967.684    "/>
<polyline clip-path="url(#clip522)" style="stroke:#000000; stroke-linecap:round; stroke-linejoin:round; stroke-width:2; stroke-opacity:0.1; fill:none" points="   253.264,770.427 2352.76,770.427    "/>
<polyline clip-path="url(#clip522)" style="stroke:#000000; stroke-linecap:round; stroke-linejoin:round; stroke-width:2; stroke-opacity:0.1; fill:none" points="   253.264,573.169 2352.76,573.169    "/>
<polyline clip-path="url(#clip522)" style="stroke:#000000; stroke-linecap:round; stroke-linejoin:round; stroke-width:2; stroke-opacity:0.1; fill:none" points="   253.264,375.911 2352.76,375.911    "/>
<polyline clip-path="url(#clip522)" style="stroke:#000000; stroke-linecap:round; stroke-linejoin:round; stroke-width:2; stroke-opacity:0.1; fill:none" points="   253.264,178.654 2352.76,178.654    "/>
<polyline clip-path="url(#clip520)" style="stroke:#000000; stroke-linecap:round; stroke-linejoin:round; stroke-width:4; stroke-opacity:1; fill:none" points="   253.264,1486.45 253.264,47.2441    "/>
<polyline clip-path="url(#clip520)" style="stroke:#000000; stroke-linecap:round; stroke-linejoin:round; stroke-width:4; stroke-opacity:1; fill:none" points="   253.264,1362.2 272.162,1362.2    "/>
<polyline clip-path="url(#clip520)" style="stroke:#000000; stroke-linecap:round; stroke-linejoin:round; stroke-width:4; stroke-opacity:1; fill:none" points="   253.264,1164.94 272.162,1164.94    "/>
<polyline clip-path="url(#clip520)" style="stroke:#000000; stroke-linecap:round; stroke-linejoin:round; stroke-width:4; stroke-opacity:1; fill:none" points="   253.264,967.684 272.162,967.684    "/>
<polyline clip-path="url(#clip520)" style="stroke:#000000; stroke-linecap:round; stroke-linejoin:round; stroke-width:4; stroke-opacity:1; fill:none" points="   253.264,770.427 272.162,770.427    "/>
<polyline clip-path="url(#clip520)" style="stroke:#000000; stroke-linecap:round; stroke-linejoin:round; stroke-width:4; stroke-opacity:1; fill:none" points="   253.264,573.169 272.162,573.169    "/>
<polyline clip-path="url(#clip520)" style="stroke:#000000; stroke-linecap:round; stroke-linejoin:round; stroke-width:4; stroke-opacity:1; fill:none" points="   253.264,375.911 272.162,375.911    "/>
<polyline clip-path="url(#clip520)" style="stroke:#000000; stroke-linecap:round; stroke-linejoin:round; stroke-width:4; stroke-opacity:1; fill:none" points="   253.264,178.654 272.162,178.654    "/>
<path clip-path="url(#clip520)" d="M50.9921 1362.65 L80.6679 1362.65 L80.6679 1366.59 L50.9921 1366.59 L50.9921 1362.65 Z" fill="#000000" fill-rule="evenodd" fill-opacity="1"/><path clip-path="url(#clip520)" d="M100.76 1348 Q97.1493 1348 95.3206 1351.56 Q93.515 1355.1 93.515 1362.23 Q93.515 1369.34 95.3206 1372.91 Q97.1493 1376.45 100.76 1376.45 Q104.395 1376.45 106.2 1372.91 Q108.029 1369.34 108.029 1362.23 Q108.029 1355.1 106.2 1351.56 Q104.395 1348 100.76 1348 M100.76 1344.29 Q106.571 1344.29 109.626 1348.9 Q112.705 1353.48 112.705 1362.23 Q112.705 1370.96 109.626 1375.57 Q106.571 1380.15 100.76 1380.15 Q94.9502 1380.15 91.8715 1375.57 Q88.816 1370.96 88.816 1362.23 Q88.816 1353.48 91.8715 1348.9 Q94.9502 1344.29 100.76 1344.29 Z" fill="#000000" fill-rule="evenodd" fill-opacity="1"/><path clip-path="url(#clip520)" d="M120.922 1373.6 L125.807 1373.6 L125.807 1379.48 L120.922 1379.48 L120.922 1373.6 Z" fill="#000000" fill-rule="evenodd" fill-opacity="1"/><path clip-path="url(#clip520)" d="M145.992 1348 Q142.381 1348 140.552 1351.56 Q138.746 1355.1 138.746 1362.23 Q138.746 1369.34 140.552 1372.91 Q142.381 1376.45 145.992 1376.45 Q149.626 1376.45 151.431 1372.91 Q153.26 1369.34 153.26 1362.23 Q153.26 1355.1 151.431 1351.56 Q149.626 1348 145.992 1348 M145.992 1344.29 Q151.802 1344.29 154.857 1348.9 Q157.936 1353.48 157.936 1362.23 Q157.936 1370.96 154.857 1375.57 Q151.802 1380.15 145.992 1380.15 Q140.181 1380.15 137.103 1375.57 Q134.047 1370.96 134.047 1362.23 Q134.047 1353.48 137.103 1348.9 Q140.181 1344.29 145.992 1344.29 Z" fill="#000000" fill-rule="evenodd" fill-opacity="1"/><path clip-path="url(#clip520)" d="M170.181 1375.54 L186.501 1375.54 L186.501 1379.48 L164.556 1379.48 L164.556 1375.54 Q167.218 1372.79 171.802 1368.16 Q176.408 1363.51 177.589 1362.17 Q179.834 1359.64 180.714 1357.91 Q181.616 1356.15 181.616 1354.46 Q181.616 1351.7 179.672 1349.97 Q177.751 1348.23 174.649 1348.23 Q172.45 1348.23 169.996 1348.99 Q167.566 1349.76 164.788 1351.31 L164.788 1346.59 Q167.612 1345.45 170.066 1344.87 Q172.519 1344.29 174.556 1344.29 Q179.927 1344.29 183.121 1346.98 Q186.315 1349.67 186.315 1354.16 Q186.315 1356.29 185.505 1358.21 Q184.718 1360.1 182.612 1362.7 Q182.033 1363.37 178.931 1366.59 Q175.829 1369.78 170.181 1375.54 Z" fill="#000000" fill-rule="evenodd" fill-opacity="1"/><path clip-path="url(#clip520)" d="M196.362 1344.92 L214.718 1344.92 L214.718 1348.85 L200.644 1348.85 L200.644 1357.33 Q201.663 1356.98 202.681 1356.82 Q203.7 1356.63 204.718 1356.63 Q210.505 1356.63 213.885 1359.8 Q217.264 1362.98 217.264 1368.39 Q217.264 1373.97 213.792 1377.07 Q210.32 1380.15 204.001 1380.15 Q201.825 1380.15 199.556 1379.78 Q197.311 1379.41 194.903 1378.67 L194.903 1373.97 Q196.987 1375.1 199.209 1375.66 Q201.431 1376.22 203.908 1376.22 Q207.913 1376.22 210.251 1374.11 Q212.588 1372 212.588 1368.39 Q212.588 1364.78 210.251 1362.67 Q207.913 1360.57 203.908 1360.57 Q202.033 1360.57 200.158 1360.98 Q198.306 1361.4 196.362 1362.28 L196.362 1344.92 Z" fill="#000000" fill-rule="evenodd" fill-opacity="1"/><path clip-path="url(#clip520)" d="M99.765 1150.74 Q96.1539 1150.74 94.3252 1154.31 Q92.5197 1157.85 92.5197 1164.98 Q92.5197 1172.08 94.3252 1175.65 Q96.1539 1179.19 99.765 1179.19 Q103.399 1179.19 105.205 1175.65 Q107.033 1172.08 107.033 1164.98 Q107.033 1157.85 105.205 1154.31 Q103.399 1150.74 99.765 1150.74 M99.765 1147.04 Q105.575 1147.04 108.631 1151.64 Q111.709 1156.23 111.709 1164.98 Q111.709 1173.7 108.631 1178.31 Q105.575 1182.89 99.765 1182.89 Q93.9549 1182.89 90.8762 1178.31 Q87.8206 1173.7 87.8206 1164.98 Q87.8206 1156.23 90.8762 1151.64 Q93.9549 1147.04 99.765 1147.04 Z" fill="#000000" fill-rule="evenodd" fill-opacity="1"/><path clip-path="url(#clip520)" d="M119.927 1176.34 L124.811 1176.34 L124.811 1182.22 L119.927 1182.22 L119.927 1176.34 Z" fill="#000000" fill-rule="evenodd" fill-opacity="1"/><path clip-path="url(#clip520)" d="M144.996 1150.74 Q141.385 1150.74 139.556 1154.31 Q137.751 1157.85 137.751 1164.98 Q137.751 1172.08 139.556 1175.65 Q141.385 1179.19 144.996 1179.19 Q148.63 1179.19 150.436 1175.65 Q152.265 1172.08 152.265 1164.98 Q152.265 1157.85 150.436 1154.31 Q148.63 1150.74 144.996 1150.74 M144.996 1147.04 Q150.806 1147.04 153.862 1151.64 Q156.941 1156.23 156.941 1164.98 Q156.941 1173.7 153.862 1178.31 Q150.806 1182.89 144.996 1182.89 Q139.186 1182.89 136.107 1178.31 Q133.052 1173.7 133.052 1164.98 Q133.052 1156.23 136.107 1151.64 Q139.186 1147.04 144.996 1147.04 Z" fill="#000000" fill-rule="evenodd" fill-opacity="1"/><path clip-path="url(#clip520)" d="M175.158 1150.74 Q171.547 1150.74 169.718 1154.31 Q167.913 1157.85 167.913 1164.98 Q167.913 1172.08 169.718 1175.65 Q171.547 1179.19 175.158 1179.19 Q178.792 1179.19 180.598 1175.65 Q182.427 1172.08 182.427 1164.98 Q182.427 1157.85 180.598 1154.31 Q178.792 1150.74 175.158 1150.74 M175.158 1147.04 Q180.968 1147.04 184.024 1151.64 Q187.103 1156.23 187.103 1164.98 Q187.103 1173.7 184.024 1178.31 Q180.968 1182.89 175.158 1182.89 Q169.348 1182.89 166.269 1178.31 Q163.214 1173.7 163.214 1164.98 Q163.214 1156.23 166.269 1151.64 Q169.348 1147.04 175.158 1147.04 Z" fill="#000000" fill-rule="evenodd" fill-opacity="1"/><path clip-path="url(#clip520)" d="M205.32 1150.74 Q201.709 1150.74 199.88 1154.31 Q198.075 1157.85 198.075 1164.98 Q198.075 1172.08 199.88 1175.65 Q201.709 1179.19 205.32 1179.19 Q208.954 1179.19 210.76 1175.65 Q212.588 1172.08 212.588 1164.98 Q212.588 1157.85 210.76 1154.31 Q208.954 1150.74 205.32 1150.74 M205.32 1147.04 Q211.13 1147.04 214.186 1151.64 Q217.264 1156.23 217.264 1164.98 Q217.264 1173.7 214.186 1178.31 Q211.13 1182.89 205.32 1182.89 Q199.51 1182.89 196.431 1178.31 Q193.376 1173.7 193.376 1164.98 Q193.376 1156.23 196.431 1151.64 Q199.51 1147.04 205.32 1147.04 Z" fill="#000000" fill-rule="evenodd" fill-opacity="1"/><path clip-path="url(#clip520)" d="M100.76 953.483 Q97.1493 953.483 95.3206 957.048 Q93.515 960.59 93.515 967.719 Q93.515 974.826 95.3206 978.39 Q97.1493 981.932 100.76 981.932 Q104.395 981.932 106.2 978.39 Q108.029 974.826 108.029 967.719 Q108.029 960.59 106.2 957.048 Q104.395 953.483 100.76 953.483 M100.76 949.779 Q106.571 949.779 109.626 954.386 Q112.705 958.969 112.705 967.719 Q112.705 976.446 109.626 981.052 Q106.571 985.636 100.76 985.636 Q94.9502 985.636 91.8715 981.052 Q88.816 976.446 88.816 967.719 Q88.816 958.969 91.8715 954.386 Q94.9502 949.779 100.76 949.779 Z" fill="#000000" fill-rule="evenodd" fill-opacity="1"/><path clip-path="url(#clip520)" d="M120.922 979.085 L125.807 979.085 L125.807 984.964 L120.922 984.964 L120.922 979.085 Z" fill="#000000" fill-rule="evenodd" fill-opacity="1"/><path clip-path="url(#clip520)" d="M145.992 953.483 Q142.381 953.483 140.552 957.048 Q138.746 960.59 138.746 967.719 Q138.746 974.826 140.552 978.39 Q142.381 981.932 145.992 981.932 Q149.626 981.932 151.431 978.39 Q153.26 974.826 153.26 967.719 Q153.26 960.59 151.431 957.048 Q149.626 953.483 145.992 953.483 M145.992 949.779 Q151.802 949.779 154.857 954.386 Q157.936 958.969 157.936 967.719 Q157.936 976.446 154.857 981.052 Q151.802 985.636 145.992 985.636 Q140.181 985.636 137.103 981.052 Q134.047 976.446 134.047 967.719 Q134.047 958.969 137.103 954.386 Q140.181 949.779 145.992 949.779 Z" fill="#000000" fill-rule="evenodd" fill-opacity="1"/><path clip-path="url(#clip520)" d="M170.181 981.029 L186.501 981.029 L186.501 984.964 L164.556 984.964 L164.556 981.029 Q167.218 978.275 171.802 973.645 Q176.408 968.992 177.589 967.65 Q179.834 965.127 180.714 963.39 Q181.616 961.631 181.616 959.941 Q181.616 957.187 179.672 955.451 Q177.751 953.715 174.649 953.715 Q172.45 953.715 169.996 954.478 Q167.566 955.242 164.788 956.793 L164.788 952.071 Q167.612 950.937 170.066 950.358 Q172.519 949.779 174.556 949.779 Q179.927 949.779 183.121 952.465 Q186.315 955.15 186.315 959.64 Q186.315 961.77 185.505 963.691 Q184.718 965.59 182.612 968.182 Q182.033 968.853 178.931 972.071 Q175.829 975.265 170.181 981.029 Z" fill="#000000" fill-rule="evenodd" fill-opacity="1"/><path clip-path="url(#clip520)" d="M196.362 950.404 L214.718 950.404 L214.718 954.34 L200.644 954.34 L200.644 962.812 Q201.663 962.465 202.681 962.302 Q203.7 962.117 204.718 962.117 Q210.505 962.117 213.885 965.289 Q217.264 968.46 217.264 973.877 Q217.264 979.455 213.792 982.557 Q210.32 985.636 204.001 985.636 Q201.825 985.636 199.556 985.265 Q197.311 984.895 194.903 984.154 L194.903 979.455 Q196.987 980.589 199.209 981.145 Q201.431 981.701 203.908 981.701 Q207.913 981.701 210.251 979.594 Q212.588 977.488 212.588 973.877 Q212.588 970.265 210.251 968.159 Q207.913 966.052 203.908 966.052 Q202.033 966.052 200.158 966.469 Q198.306 966.886 196.362 967.765 L196.362 950.404 Z" fill="#000000" fill-rule="evenodd" fill-opacity="1"/><path clip-path="url(#clip520)" d="M99.765 756.225 Q96.1539 756.225 94.3252 759.79 Q92.5197 763.332 92.5197 770.461 Q92.5197 777.568 94.3252 781.133 Q96.1539 784.674 99.765 784.674 Q103.399 784.674 105.205 781.133 Q107.033 777.568 107.033 770.461 Q107.033 763.332 105.205 759.79 Q103.399 756.225 99.765 756.225 M99.765 752.522 Q105.575 752.522 108.631 757.128 Q111.709 761.711 111.709 770.461 Q111.709 779.188 108.631 783.795 Q105.575 788.378 99.765 788.378 Q93.9549 788.378 90.8762 783.795 Q87.8206 779.188 87.8206 770.461 Q87.8206 761.711 90.8762 757.128 Q93.9549 752.522 99.765 752.522 Z" fill="#000000" fill-rule="evenodd" fill-opacity="1"/><path clip-path="url(#clip520)" d="M119.927 781.827 L124.811 781.827 L124.811 787.707 L119.927 787.707 L119.927 781.827 Z" fill="#000000" fill-rule="evenodd" fill-opacity="1"/><path clip-path="url(#clip520)" d="M144.996 756.225 Q141.385 756.225 139.556 759.79 Q137.751 763.332 137.751 770.461 Q137.751 777.568 139.556 781.133 Q141.385 784.674 144.996 784.674 Q148.63 784.674 150.436 781.133 Q152.265 777.568 152.265 770.461 Q152.265 763.332 150.436 759.79 Q148.63 756.225 144.996 756.225 M144.996 752.522 Q150.806 752.522 153.862 757.128 Q156.941 761.711 156.941 770.461 Q156.941 779.188 153.862 783.795 Q150.806 788.378 144.996 788.378 Q139.186 788.378 136.107 783.795 Q133.052 779.188 133.052 770.461 Q133.052 761.711 136.107 757.128 Q139.186 752.522 144.996 752.522 Z" fill="#000000" fill-rule="evenodd" fill-opacity="1"/><path clip-path="url(#clip520)" d="M165.204 753.147 L183.561 753.147 L183.561 757.082 L169.487 757.082 L169.487 765.554 Q170.505 765.207 171.524 765.045 Q172.542 764.86 173.561 764.86 Q179.348 764.86 182.728 768.031 Q186.107 771.202 186.107 776.619 Q186.107 782.197 182.635 785.299 Q179.163 788.378 172.843 788.378 Q170.667 788.378 168.399 788.008 Q166.154 787.637 163.746 786.897 L163.746 782.197 Q165.829 783.332 168.052 783.887 Q170.274 784.443 172.751 784.443 Q176.755 784.443 179.093 782.336 Q181.431 780.23 181.431 776.619 Q181.431 773.008 179.093 770.901 Q176.755 768.795 172.751 768.795 Q170.876 768.795 169.001 769.211 Q167.149 769.628 165.204 770.508 L165.204 753.147 Z" fill="#000000" fill-rule="evenodd" fill-opacity="1"/><path clip-path="url(#clip520)" d="M205.32 756.225 Q201.709 756.225 199.88 759.79 Q198.075 763.332 198.075 770.461 Q198.075 777.568 199.88 781.133 Q201.709 784.674 205.32 784.674 Q208.954 784.674 210.76 781.133 Q212.588 777.568 212.588 770.461 Q212.588 763.332 210.76 759.79 Q208.954 756.225 205.32 756.225 M205.32 752.522 Q211.13 752.522 214.186 757.128 Q217.264 761.711 217.264 770.461 Q217.264 779.188 214.186 783.795 Q211.13 788.378 205.32 788.378 Q199.51 788.378 196.431 783.795 Q193.376 779.188 193.376 770.461 Q193.376 761.711 196.431 757.128 Q199.51 752.522 205.32 752.522 Z" fill="#000000" fill-rule="evenodd" fill-opacity="1"/><path clip-path="url(#clip520)" d="M100.76 558.968 Q97.1493 558.968 95.3206 562.532 Q93.515 566.074 93.515 573.204 Q93.515 580.31 95.3206 583.875 Q97.1493 587.417 100.76 587.417 Q104.395 587.417 106.2 583.875 Q108.029 580.31 108.029 573.204 Q108.029 566.074 106.2 562.532 Q104.395 558.968 100.76 558.968 M100.76 555.264 Q106.571 555.264 109.626 559.87 Q112.705 564.454 112.705 573.204 Q112.705 581.931 109.626 586.537 Q106.571 591.12 100.76 591.12 Q94.9502 591.12 91.8715 586.537 Q88.816 581.931 88.816 573.204 Q88.816 564.454 91.8715 559.87 Q94.9502 555.264 100.76 555.264 Z" fill="#000000" fill-rule="evenodd" fill-opacity="1"/><path clip-path="url(#clip520)" d="M120.922 584.569 L125.807 584.569 L125.807 590.449 L120.922 590.449 L120.922 584.569 Z" fill="#000000" fill-rule="evenodd" fill-opacity="1"/><path clip-path="url(#clip520)" d="M145.992 558.968 Q142.381 558.968 140.552 562.532 Q138.746 566.074 138.746 573.204 Q138.746 580.31 140.552 583.875 Q142.381 587.417 145.992 587.417 Q149.626 587.417 151.431 583.875 Q153.26 580.31 153.26 573.204 Q153.26 566.074 151.431 562.532 Q149.626 558.968 145.992 558.968 M145.992 555.264 Q151.802 555.264 154.857 559.87 Q157.936 564.454 157.936 573.204 Q157.936 581.931 154.857 586.537 Q151.802 591.12 145.992 591.12 Q140.181 591.12 137.103 586.537 Q134.047 581.931 134.047 573.204 Q134.047 564.454 137.103 559.87 Q140.181 555.264 145.992 555.264 Z" fill="#000000" fill-rule="evenodd" fill-opacity="1"/><path clip-path="url(#clip520)" d="M164.973 555.889 L187.195 555.889 L187.195 557.88 L174.649 590.449 L169.765 590.449 L181.57 559.824 L164.973 559.824 L164.973 555.889 Z" fill="#000000" fill-rule="evenodd" fill-opacity="1"/><path clip-path="url(#clip520)" d="M196.362 555.889 L214.718 555.889 L214.718 559.824 L200.644 559.824 L200.644 568.296 Q201.663 567.949 202.681 567.787 Q203.7 567.602 204.718 567.602 Q210.505 567.602 213.885 570.773 Q217.264 573.944 217.264 579.361 Q217.264 584.94 213.792 588.042 Q210.32 591.12 204.001 591.12 Q201.825 591.12 199.556 590.75 Q197.311 590.38 194.903 589.639 L194.903 584.94 Q196.987 586.074 199.209 586.63 Q201.431 587.185 203.908 587.185 Q207.913 587.185 210.251 585.079 Q212.588 582.972 212.588 579.361 Q212.588 575.75 210.251 573.644 Q207.913 571.537 203.908 571.537 Q202.033 571.537 200.158 571.954 Q198.306 572.37 196.362 573.25 L196.362 555.889 Z" fill="#000000" fill-rule="evenodd" fill-opacity="1"/><path clip-path="url(#clip520)" d="M99.765 361.71 Q96.1539 361.71 94.3252 365.275 Q92.5197 368.816 92.5197 375.946 Q92.5197 383.052 94.3252 386.617 Q96.1539 390.159 99.765 390.159 Q103.399 390.159 105.205 386.617 Q107.033 383.052 107.033 375.946 Q107.033 368.816 105.205 365.275 Q103.399 361.71 99.765 361.71 M99.765 358.006 Q105.575 358.006 108.631 362.613 Q111.709 367.196 111.709 375.946 Q111.709 384.673 108.631 389.279 Q105.575 393.863 99.765 393.863 Q93.9549 393.863 90.8762 389.279 Q87.8206 384.673 87.8206 375.946 Q87.8206 367.196 90.8762 362.613 Q93.9549 358.006 99.765 358.006 Z" fill="#000000" fill-rule="evenodd" fill-opacity="1"/><path clip-path="url(#clip520)" d="M119.927 387.312 L124.811 387.312 L124.811 393.191 L119.927 393.191 L119.927 387.312 Z" fill="#000000" fill-rule="evenodd" fill-opacity="1"/><path clip-path="url(#clip520)" d="M135.806 389.256 L143.445 389.256 L143.445 362.891 L135.135 364.557 L135.135 360.298 L143.399 358.631 L148.075 358.631 L148.075 389.256 L155.714 389.256 L155.714 393.191 L135.806 393.191 L135.806 389.256 Z" fill="#000000" fill-rule="evenodd" fill-opacity="1"/><path clip-path="url(#clip520)" d="M175.158 361.71 Q171.547 361.71 169.718 365.275 Q167.913 368.816 167.913 375.946 Q167.913 383.052 169.718 386.617 Q171.547 390.159 175.158 390.159 Q178.792 390.159 180.598 386.617 Q182.427 383.052 182.427 375.946 Q182.427 368.816 180.598 365.275 Q178.792 361.71 175.158 361.71 M175.158 358.006 Q180.968 358.006 184.024 362.613 Q187.103 367.196 187.103 375.946 Q187.103 384.673 184.024 389.279 Q180.968 393.863 175.158 393.863 Q169.348 393.863 166.269 389.279 Q163.214 384.673 163.214 375.946 Q163.214 367.196 166.269 362.613 Q169.348 358.006 175.158 358.006 Z" fill="#000000" fill-rule="evenodd" fill-opacity="1"/><path clip-path="url(#clip520)" d="M205.32 361.71 Q201.709 361.71 199.88 365.275 Q198.075 368.816 198.075 375.946 Q198.075 383.052 199.88 386.617 Q201.709 390.159 205.32 390.159 Q208.954 390.159 210.76 386.617 Q212.588 383.052 212.588 375.946 Q212.588 368.816 210.76 365.275 Q208.954 361.71 205.32 361.71 M205.32 358.006 Q211.13 358.006 214.186 362.613 Q217.264 367.196 217.264 375.946 Q217.264 384.673 214.186 389.279 Q211.13 393.863 205.32 393.863 Q199.51 393.863 196.431 389.279 Q193.376 384.673 193.376 375.946 Q193.376 367.196 196.431 362.613 Q199.51 358.006 205.32 358.006 Z" fill="#000000" fill-rule="evenodd" fill-opacity="1"/><path clip-path="url(#clip520)" d="M100.76 164.452 Q97.1493 164.452 95.3206 168.017 Q93.515 171.559 93.515 178.688 Q93.515 185.795 95.3206 189.36 Q97.1493 192.901 100.76 192.901 Q104.395 192.901 106.2 189.36 Q108.029 185.795 108.029 178.688 Q108.029 171.559 106.2 168.017 Q104.395 164.452 100.76 164.452 M100.76 160.749 Q106.571 160.749 109.626 165.355 Q112.705 169.938 112.705 178.688 Q112.705 187.415 109.626 192.022 Q106.571 196.605 100.76 196.605 Q94.9502 196.605 91.8715 192.022 Q88.816 187.415 88.816 178.688 Q88.816 169.938 91.8715 165.355 Q94.9502 160.749 100.76 160.749 Z" fill="#000000" fill-rule="evenodd" fill-opacity="1"/><path clip-path="url(#clip520)" d="M120.922 190.054 L125.807 190.054 L125.807 195.934 L120.922 195.934 L120.922 190.054 Z" fill="#000000" fill-rule="evenodd" fill-opacity="1"/><path clip-path="url(#clip520)" d="M136.802 191.998 L144.441 191.998 L144.441 165.633 L136.131 167.299 L136.131 163.04 L144.394 161.374 L149.07 161.374 L149.07 191.998 L156.709 191.998 L156.709 195.934 L136.802 195.934 L136.802 191.998 Z" fill="#000000" fill-rule="evenodd" fill-opacity="1"/><path clip-path="url(#clip520)" d="M170.181 191.998 L186.501 191.998 L186.501 195.934 L164.556 195.934 L164.556 191.998 Q167.218 189.244 171.802 184.614 Q176.408 179.961 177.589 178.619 Q179.834 176.096 180.714 174.36 Q181.616 172.6 181.616 170.911 Q181.616 168.156 179.672 166.42 Q177.751 164.684 174.649 164.684 Q172.45 164.684 169.996 165.448 Q167.566 166.212 164.788 167.762 L164.788 163.04 Q167.612 161.906 170.066 161.327 Q172.519 160.749 174.556 160.749 Q179.927 160.749 183.121 163.434 Q186.315 166.119 186.315 170.61 Q186.315 172.739 185.505 174.661 Q184.718 176.559 182.612 179.151 Q182.033 179.823 178.931 183.04 Q175.829 186.235 170.181 191.998 Z" fill="#000000" fill-rule="evenodd" fill-opacity="1"/><path clip-path="url(#clip520)" d="M196.362 161.374 L214.718 161.374 L214.718 165.309 L200.644 165.309 L200.644 173.781 Q201.663 173.434 202.681 173.272 Q203.7 173.086 204.718 173.086 Q210.505 173.086 213.885 176.258 Q217.264 179.429 217.264 184.846 Q217.264 190.424 213.792 193.526 Q210.32 196.605 204.001 196.605 Q201.825 196.605 199.556 196.234 Q197.311 195.864 194.903 195.123 L194.903 190.424 Q196.987 191.559 199.209 192.114 Q201.431 192.67 203.908 192.67 Q207.913 192.67 210.251 190.563 Q212.588 188.457 212.588 184.846 Q212.588 181.235 210.251 179.128 Q207.913 177.022 203.908 177.022 Q202.033 177.022 200.158 177.438 Q198.306 177.855 196.362 178.735 L196.362 161.374 Z" fill="#000000" fill-rule="evenodd" fill-opacity="1"/><polyline clip-path="url(#clip522)" style="stroke:#009af9; stroke-linecap:round; stroke-linejoin:round; stroke-width:4; stroke-opacity:1; fill:none" points="   312.684,1206.05 314.665,1210.64 316.645,1137.43 318.626,1239.4 320.607,1155.19 322.587,1188.63 324.568,1188.11 326.549,1150.92 328.529,1195.19 330.51,1127.11    332.49,1114.23 334.471,1158.84 336.452,1076.75 338.432,1141.85 340.413,1101.72 342.394,1064.34 344.374,1167.64 346.355,1022.39 348.336,1176.95 350.316,1095.65    352.297,1115.18 354.278,1187.14 356.258,1075.83 358.239,1171.64 360.22,1134.41 362.2,1078.16 364.181,1185.68 366.162,1047.47 368.142,1128.26 370.123,1124.39    372.104,1010.98 374.084,1158.07 376.065,990.184 378.045,1059.31 380.026,1113.36 382.007,913.339 383.987,1142.01 385.968,1003.47 387.949,1011.74 389.929,1122.39    391.91,932.102 393.891,1122.15 395.871,1053.62 397.852,1001.06 399.833,1137.94 401.813,995.942 403.794,1097.48 405.775,1056.53 407.755,974.867 409.736,1115.43    411.717,962.473 413.697,1036.64 415.678,1028.18 417.659,888.426 419.639,1086.14 421.62,850.146 423.6,1010.78 425.581,991.089 427.562,900.85 429.542,1084.77    431.523,928.472 433.504,1008.64 435.484,1054.52 437.465,911.22 439.446,1083.6 441.426,946.306 443.407,967.293 445.388,1078.97 447.368,869.879 449.349,1085.28    451.33,910.842 453.31,958.097 455.291,1057.42 457.272,793.579 459.252,1039.72 461.233,905.991 463.214,835.856 465.194,1052.09 467.175,744.09 469.155,996.464    471.136,957.739 473.117,810.905 475.097,1076.27 477.078,849.56 479.059,965.083 481.039,1006.04 483.02,794.523 485.001,1058.72 486.981,849.359 488.962,918.736    490.943,984.045 492.923,742.572 494.904,1006.29 496.885,765.013 498.865,844.445 500.846,936.733 502.827,695.487 504.807,985.122 506.788,795.795 508.769,820.501    510.749,983.186 512.73,733.719 514.71,963.578 516.691,868.757 518.672,773.97 520.652,1028.12 522.633,716.946 524.614,971.916 526.594,859.721 528.575,805.817    530.556,1003.41 532.536,708.845 534.517,938.453 536.498,854.77 538.478,697.026 540.459,969.69 542.44,601.709 544.42,842.046 546.401,874.146 548.382,592.023    550.362,1004.68 552.343,698.148 554.324,822.163 556.304,963.691 558.285,614.991 560.266,997.211 562.246,791.317 564.227,777.278 566.207,980.776 568.188,621.389    570.169,951.005 572.149,759.782 574.13,715.562 576.111,927.667 578.091,597.706 580.072,882.946 582.053,752.03 584.033,621.989 586.014,921.708 587.995,561.351    589.975,820.191 591.956,786.711 593.937,555.669 595.917,957.961 597.898,585.914 599.879,802.104 601.859,828.578 603.84,603.63 605.821,954.511 607.801,642.887    609.782,793.068 611.762,848.383 613.743,586.844 615.724,898.78 617.704,579.269 619.685,668.458 621.666,839.721 623.646,404.658 625.627,900.159 627.608,565.396    629.588,615.739 631.569,886.822 633.55,412.323 635.53,868.648 637.511,696.102 639.492,559.26 641.472,936.433 643.453,464.818 645.434,811.472 647.414,727.747    649.395,517.878 651.376,902.505 653.356,512.279 655.337,754.402 657.317,742.844 659.298,466.38 661.279,875.909 663.259,465.919 665.24,661.37 667.221,742.037    669.201,357.179 671.182,884.073 673.163,465.639 675.143,608.87 677.124,786.122 679.105,397.658 681.085,842.3 683.066,556.544 685.047,566.333 687.027,818.765    689.008,445.305 690.989,775.528 692.969,559.653 694.95,492.295 696.931,811.616 698.911,306.161 700.892,755.856 702.872,504.993 704.853,417.868 706.834,821.145    708.814,235.4 710.795,717.127 712.776,605.365 714.756,363.223 716.737,856.714 718.718,332.381 720.698,622.525 722.679,696.026 724.66,292.65 726.64,838.809    728.621,402.235 730.602,580.687 732.582,739.15 734.563,317.594 736.544,795.825 738.524,419.176 740.505,479.911 742.486,733.032 744.466,185.284 746.447,771.227    748.427,365.301 750.408,405.121 752.389,726.709 754.369,203.01 756.35,705.824 758.331,476.779 760.311,347.569 762.292,778.075 764.273,292.263 766.253,631.678    768.234,555.608 770.215,320.979 772.195,789.275 774.176,243.996 776.157,627.587 778.137,529.876 780.118,268.192 782.099,759.863 784.079,87.9763 786.06,545.532    788.041,549.485 790.021,190.208 792.002,764.96 793.982,240.131 795.963,461.427 797.944,673.124 799.924,135.146 801.905,755.238 803.886,353.583 805.866,434.793    807.847,748.694 809.828,215.232 811.808,741.612 813.789,487.458 815.77,423.618 817.75,787.701 819.731,212.651 821.712,719.65 823.692,488.23 825.673,347.879    827.654,769.202 829.634,216.525 831.615,674.88 833.596,562.382 835.576,313.45 837.557,800.903 839.537,345.808 841.518,588.741 843.499,671.607 845.479,289.365    847.46,832.586 849.441,388.799 851.421,618.851 853.402,702.02 855.383,367.468 857.363,814.624 859.344,408.271 861.325,590.998 863.305,730.182 865.286,332.539    867.267,818.44 869.247,463.498 871.228,526.651 873.209,807.337 875.189,295.554 877.17,818.367 879.151,549.847 881.131,492.128 883.112,874.888 885.092,344.372    887.073,798.625 889.054,661.082 891.034,481.515 893.015,891.628 894.996,417.306 896.976,749.261 898.957,711.003 900.938,423.234 902.918,881.312 904.899,426.396    906.88,724.504 908.86,741.296 910.841,422.77 912.822,897.207 914.802,535.051 916.783,645.805 918.764,840.127 920.744,391.896 922.725,903.463 924.706,572.941    926.686,634.038 928.667,862.121 930.647,486.239 932.628,872.25 934.609,647 936.589,628.977 938.57,882.798 940.551,523.656 942.531,846.463 944.512,688.903    946.493,570.34 948.473,926.773 950.454,472.21 952.435,855.709 954.415,732.993 956.396,583.394 958.377,970.659 960.357,529.394 962.338,825.136 964.319,826.831    966.299,551.991 968.28,977.958 970.261,606.583 972.241,778.129 974.222,908.853 976.203,561.038 978.183,970.048 980.164,675.281 982.144,752.743 984.125,937.159    986.106,554.505 988.086,973.644 990.067,719.339 992.048,706.134 994.028,972.89 996.009,554.398 997.99,937.617 999.97,773.198 1001.95,660.135 1003.93,986.913    1005.91,608.611 1007.89,900.059 1009.87,824.675 1011.85,676.6 1013.83,995.67 1015.82,703.155 1017.8,862.45 1019.78,900.139 1021.76,646.213 1023.74,1016.49    1025.72,654.403 1027.7,862.95 1029.68,901.263 1031.66,680.827 1033.64,1023.75 1035.62,722.898 1037.6,855.332 1039.58,970.318 1041.56,678.026 1043.54,1010.75    1045.53,780.045 1047.51,801.755 1049.49,1022.02 1051.47,678.616 1053.45,1001.62 1055.43,858.916 1057.41,796.735 1059.39,1057.64 1061.37,708.158 1063.35,992.567    1065.33,902.2 1067.31,776.957 1069.29,1070.13 1071.27,722.351 1073.25,975.664 1075.24,955.887 1077.22,767.833 1079.2,1081.15 1081.18,805.531 1083.16,938.971    1085.14,1008.15 1087.12,771.428 1089.1,1077.08 1091.08,875.283 1093.06,906.719 1095.04,1053.58 1097.02,767.363 1099,1067.99 1100.98,857.42 1102.96,885.928    1104.94,1047.66 1106.93,784.634 1108.91,1061.49 1110.89,910.618 1112.87,919.737 1114.85,1088.6 1116.83,856.617 1118.81,1056.34 1120.79,990.458 1122.77,882.895    1124.75,1131.83 1126.73,830.786 1128.71,1051.87 1130.69,1004.82 1132.67,884.461 1134.65,1143.01 1136.64,880.761 1138.62,1031.77 1140.6,1073.11 1142.58,875.065    1144.56,1144.74 1146.54,892.212 1148.52,1011.93 1150.5,1101.42 1152.48,879.284 1154.46,1142.28 1156.44,987.089 1158.42,1004.36 1160.4,1151.83 1162.38,915.34    1164.36,1139.85 1166.35,1041.26 1168.33,986.963 1170.31,1170.8 1172.29,929.647 1174.27,1121.16 1176.25,1042.69 1178.23,963.044 1180.21,1172.66 1182.19,947.542    1184.17,1107.3 1186.15,1093.11 1188.13,993.379 1190.11,1183.77 1192.09,1028.37 1194.07,1098.97 1196.05,1163.88 1198.04,999.68 1200.02,1204.23 1202,1025.61    1203.98,1093.63 1205.96,1153.67 1207.94,1002.76 1209.92,1195.95 1211.9,1046.58 1213.88,1090.46 1215.86,1197.6 1217.84,1009.74 1219.82,1184.03 1221.8,1083.19    1223.78,1049.4 1225.76,1225.52 1227.75,987.808 1229.73,1181.02 1231.71,1141.74 1233.69,1066.57 1235.67,1249.47 1237.65,1069.87 1239.63,1183.42 1241.61,1223.2    1243.59,1086.26 1245.57,1267.85 1247.55,1101.83 1249.53,1180.99 1251.51,1207.2 1253.49,1080.19 1255.47,1254.63 1257.46,1125.42 1259.44,1155.58 1261.42,1249.97    1263.4,1081.05 1265.38,1254.53 1267.36,1171.92 1269.34,1142.44 1271.32,1289.81 1273.3,1124.41 1275.28,1256.62 1277.26,1217.89 1279.24,1161.12 1281.22,1293.3    1283.2,1160.31 1285.18,1253.65 1287.16,1222.71 1289.15,1182.49 1291.13,1295.36 1293.11,1183.6 1295.09,1234.02 1297.07,1251.39 1299.05,1129.16 1301.03,1298.53    1303.01,1121.59 1304.99,1200.19 1306.97,1242.32 1308.95,1115.49 1310.93,1285.38 1312.91,1171.64 1314.89,1196.26 1316.87,1323.6 1318.86,1166.15 1320.84,1297.02    1322.82,1243.56 1324.8,1194.14 1326.78,1307.3 1328.76,1165.71 1330.74,1266.79 1332.72,1243.49 1334.7,1177.2 1336.68,1308.3 1338.66,1155.71 1340.64,1244.51    1342.62,1259.64 1344.6,1131.79 1346.58,1320.53 1348.57,1159.67 1350.55,1227.05 1352.53,1278.65 1354.51,1154.73 1356.49,1309.29 1358.47,1231.04 1360.45,1215.67    1362.43,1323.48 1364.41,1194.62 1366.39,1299.65 1368.37,1263.36 1370.35,1211.41 1372.33,1315.58 1374.31,1182 1376.29,1282.56 1378.27,1228.67 1380.26,1184.55    1382.24,1297.27 1384.22,1150.28 1386.2,1264.38 1388.18,1212.03 1390.16,1176.95 1392.14,1324.34 1394.12,1200.19 1396.1,1258.56 1398.08,1320.49 1400.06,1181.23    1402.04,1339.57 1404.02,1218.94 1406,1227.76 1407.98,1311.68 1409.97,1186.03 1411.95,1292.43 1413.93,1240.15 1415.91,1213.15 1417.89,1316.04 1419.87,1163.52    1421.85,1301.2 1423.83,1219.2 1425.81,1190.41 1427.79,1294.68 1429.77,1158.6 1431.75,1272.73 1433.73,1263.47 1435.71,1182.64 1437.69,1350.07 1439.68,1219.95    1441.66,1270.42 1443.64,1341.68 1445.62,1190.81 1447.6,1351.39 1449.58,1237.11 1451.56,1251.78 1453.54,1327.67 1455.52,1194.6 1457.5,1322.14 1459.48,1239.2    1461.46,1238.84 1463.44,1300.58 1465.42,1181.43 1467.4,1314.7 1469.38,1237.83 1471.37,1218.02 1473.35,1350.19 1475.33,1182.1 1477.31,1325.29 1479.29,1292.16    1481.27,1207.48 1483.25,1400.25 1485.23,1221.16 1487.21,1305.64 1489.19,1340.46 1491.17,1216.31 1493.15,1374.37 1495.13,1240.84 1497.11,1289.48 1499.09,1337.7    1501.08,1188.38 1503.06,1345.36 1505.04,1208.42 1507.02,1256.78 1509,1308.56 1510.98,1167.91 1512.96,1337.42 1514.94,1246.69 1516.92,1231.47 1518.9,1392.87    1520.88,1184.54 1522.86,1370.48 1524.84,1301.45 1526.82,1230.11 1528.8,1407.26 1530.79,1215.82 1532.77,1329.32 1534.75,1340.68 1536.73,1213.74 1538.71,1382.29    1540.69,1219.84 1542.67,1312.52 1544.65,1320.59 1546.63,1198.11 1548.61,1363.94 1550.59,1202.51 1552.57,1292.69 1554.55,1334.27 1556.53,1179 1558.51,1408.57    1560.49,1243.27 1562.48,1288.15 1564.46,1407.6 1566.44,1204.15 1568.42,1405.59 1570.4,1307.19 1572.38,1270.93 1574.36,1427.53 1576.34,1204.02 1578.32,1380.75    1580.3,1294.45 1582.28,1241.35 1584.26,1383.74 1586.24,1186.89 1588.22,1348.99 1590.2,1299.57 1592.19,1217.76 1594.17,1404.68 1596.15,1206.08 1598.13,1361.02    1600.11,1355.78 1602.09,1210.51 1604.07,1445.72 1606.05,1234.01 1608.03,1335.95 1610.01,1395.8 1611.99,1205.85 1613.97,1421.81 1615.95,1268.8 1617.93,1296.48    1619.91,1389.8 1621.9,1194.73 1623.88,1387.11 1625.86,1241.76 1627.84,1268.45 1629.82,1334.92 1631.8,1183.47 1633.78,1376.05 1635.76,1268.8 1637.74,1261.26    1639.72,1408.94 1641.7,1207.61 1643.68,1403.76 1645.66,1334.85 1647.64,1252.86 1649.62,1440.13 1651.6,1230.1 1653.59,1366.15 1655.57,1345.25 1657.55,1225.73    1659.53,1415.6 1661.51,1218.96 1663.49,1323.32 1665.47,1324.99 1667.45,1209.35 1669.43,1373.49 1671.41,1230.58 1673.39,1303.91 1675.37,1344.81 1677.35,1198    1679.33,1409.68 1681.31,1245.81 1683.3,1301.59 1685.28,1388.05 1687.26,1198.81 1689.24,1411.96 1691.22,1296.89 1693.2,1276.57 1695.18,1425.86 1697.16,1213.2    1699.14,1392.4 1701.12,1307.59 1703.1,1255.1 1705.08,1370.07 1707.06,1201.58 1709.04,1328.4 1711.02,1278.52 1713.01,1229.82 1714.99,1366.82 1716.97,1220.81    1718.95,1346.19 1720.93,1331.79 1722.91,1229.71 1724.89,1427.3 1726.87,1235.57 1728.85,1342.3 1730.83,1346.81 1732.81,1224.54 1734.79,1419.44 1736.77,1256.47    1738.75,1315.04 1740.73,1372.15 1742.71,1220.96 1744.7,1391.67 1746.68,1261.69 1748.66,1288.53 1750.64,1350.64 1752.62,1211.38 1754.6,1368.35 1756.58,1266.27    1758.56,1281.55 1760.54,1383.22 1762.52,1213.69 1764.5,1395.59 1766.48,1297.67 1768.46,1279.51 1770.44,1424.58 1772.42,1236.7 1774.41,1376.52 1776.39,1343.09    1778.37,1247.05 1780.35,1403.64 1782.33,1224.47 1784.31,1323.51 1786.29,1304.57 1788.27,1225.26 1790.25,1336.91 1792.23,1236.82 1794.21,1304.6 1796.19,1333.15    1798.17,1226.31 1800.15,1395.43 1802.13,1251.98 1804.12,1327.34 1806.1,1348.07 1808.08,1222.61 1810.06,1392.36 1812.04,1258.94 1814.02,1289.15 1816,1376.84    1817.98,1214.67 1819.96,1374.22 1821.94,1281.34 1823.92,1253 1825.9,1360.68 1827.88,1200.89 1829.86,1318.83 1831.84,1259.82 1833.82,1234.82 1835.81,1334.41    1837.79,1211.61 1839.77,1334.79 1841.75,1295.57 1843.73,1246.68 1845.71,1390.16 1847.69,1225.14 1849.67,1344.08 1851.65,1333.42 1853.63,1230.17 1855.61,1389.52    1857.59,1238.8 1859.57,1306.84 1861.55,1342.1 1863.53,1209.88 1865.52,1343.03 1867.5,1244.29 1869.48,1271.16 1871.46,1326.09 1873.44,1217.4 1875.42,1341.66    1877.4,1262.56 1879.38,1277.48 1881.36,1334.57 1883.34,1213.52 1885.32,1359.4 1887.3,1265.73 1889.28,1271.23 1891.26,1350.62 1893.24,1229.18 1895.23,1350.7    1897.21,1314.73 1899.19,1239.24 1901.17,1390.55 1903.15,1216.36 1905.13,1318 1907.11,1286.39 1909.09,1217.17 1911.07,1314.35 1913.05,1217.03 1915.03,1268.56    1917.01,1286.63 1918.99,1214.09 1920.97,1330.63 1922.95,1227.35 1924.93,1291.73 1926.92,1316.54 1928.9,1206.92 1930.88,1346.33 1932.86,1240.24 1934.84,1266.66    1936.82,1336.87 1938.8,1197.99 1940.78,1324.12 1942.76,1257.43 1944.74,1240.58 1946.72,1325.52 1948.7,1199.48 1950.68,1301.36 1952.66,1250.23 1954.64,1233.93    1956.63,1308.93 1958.61,1214.87 1960.59,1315.32 1962.57,1281.4 1964.55,1249.2 1966.53,1329.48 1968.51,1235.25 1970.49,1328.87 1972.47,1311.75 1974.45,1240.47    1976.43,1376.21 1978.41,1237.13 1980.39,1316.66 1982.37,1312.13 1984.35,1217.28 1986.34,1339.34 1988.32,1226.67 1990.3,1260.28 1992.28,1291.01 1994.26,1214.74    1996.24,1304.4 1998.22,1250.27 2000.2,1269.09 2002.18,1326.61 2004.16,1225.25 2006.14,1354.08 2008.12,1266.27 2010.1,1284.61 2012.08,1340.2 2014.06,1232.42    2016.05,1340.5 2018.03,1291.91 2020.01,1250.24 2021.99,1361.46 2023.97,1217.63 2025.95,1314.24 2027.93,1280.79 2029.91,1230.16 2031.89,1307.39 2033.87,1218.8    2035.85,1267.34 2037.83,1275.29 2039.81,1196.2 2041.79,1284.63 2043.77,1218.89 2045.75,1283.32 2047.74,1307.26 2049.72,1247.41 2051.7,1359.66 2053.68,1266.58    2055.66,1310.03 2057.64,1333.05 2059.62,1234.13 2061.6,1363.45 2063.58,1255.44 2065.56,1272.22 2067.54,1329.64 2069.52,1229.76 2071.5,1318.41 2073.48,1279.03    2075.46,1263.47 2077.45,1338.46 2079.43,1237.22 2081.41,1331.66 2083.39,1285.45 2085.37,1260.8 2087.35,1333.93 2089.33,1237.7 2091.31,1330.76 2093.29,1301.72    2095.27,1269.82 2097.25,1370.57 2099.23,1258.18 2101.21,1335.9 2103.19,1323.69 2105.17,1253.84 2107.16,1352.7 2109.14,1238.31 2111.12,1294.62 2113.1,1311.36    2115.08,1236.55 2117.06,1322.84 2119.04,1273.75 2121.02,1287.76 2123,1331.54 2124.98,1249.32 2126.96,1356.39 2128.94,1280.18 2130.92,1304.3 2132.9,1327.32    2134.88,1251.73 2136.86,1351.15 2138.85,1274.63 2140.83,1278.79 2142.81,1348.12 2144.79,1234.96 2146.77,1330.16 2148.75,1281.4 2150.73,1269.09 2152.71,1330.01    2154.69,1248.16 2156.67,1314.1 2158.65,1300.63 2160.63,1261.37 2162.61,1338.96 2164.59,1256.43 2166.57,1320.28 2168.56,1306.05 2170.54,1274.29 2172.52,1352.35    2174.5,1279.08 2176.48,1328.85 2178.46,1332.4 2180.44,1266.73 2182.42,1360.72 2184.4,1254.54 2186.38,1307.28 2188.36,1316.16 2190.34,1236.34 2192.32,1322.15    2194.3,1268.89 2196.28,1277.2 2198.27,1336.02 2200.25,1249.61 2202.23,1343.47 2204.21,1306.58 2206.19,1299.47 2208.17,1343.41 2210.15,1269.37 2212.13,1349.81    2214.11,1297.85 2216.09,1292.23 2218.07,1350.03 2220.05,1268.53 2222.03,1341.49 2224.01,1300.73 2225.99,1270.95 2227.97,1346.49 2229.96,1242.71 2231.94,1314.87    2233.92,1289.15 2235.9,1251.44 2237.88,1324.04 2239.86,1257.32 2241.84,1299.91 2243.82,1315.6 2245.8,1265.14 2247.78,1343.36 2249.76,1284.71 2251.74,1319.4    2253.72,1330.35 2255.7,1281.27 2257.68,1350.8 2259.67,1279.28 2261.65,1307.37 2263.63,1318.99 2265.61,1246.52 2267.59,1335.07 2269.57,1257.88 2271.55,1283.29    2273.53,1316.41 2275.51,1252.39 2277.49,1325.67 2279.47,1309.86 2281.45,1282.48 2283.43,1339.98 2285.41,1269.11 2287.39,1327.89 2289.38,1295.52 2291.36,1279.47    2293.34,1319.84    "/>
<path clip-path="url(#clip520)" d=" M1619.89 198.898 L2282.77 198.898 L2282.77 95.2176 L1619.89 95.2176  Z   " fill="#ffffff" fill-rule="evenodd" fill-opacity="1"/>
<polyline clip-path="url(#clip520)" style="stroke:#000000; stroke-linecap:round; stroke-linejoin:round; stroke-width:4; stroke-opacity:1; fill:none" points="   1619.89,198.898 2282.77,198.898 2282.77,95.2176 1619.89,95.2176 1619.89,198.898    "/>
<polyline clip-path="url(#clip520)" style="stroke:#009af9; stroke-linecap:round; stroke-linejoin:round; stroke-width:4; stroke-opacity:1; fill:none" points="   1643.21,147.058 1783.18,147.058    "/>
<path clip-path="url(#clip520)" d="M1819.91 151.305 Q1814.75 151.305 1812.76 152.486 Q1810.77 153.666 1810.77 156.514 Q1810.77 158.782 1812.25 160.125 Q1813.75 161.444 1816.32 161.444 Q1819.86 161.444 1821.99 158.944 Q1824.15 156.421 1824.15 152.254 L1824.15 151.305 L1819.91 151.305 M1828.41 149.546 L1828.41 164.338 L1824.15 164.338 L1824.15 160.402 Q1822.69 162.763 1820.51 163.898 Q1818.34 165.009 1815.19 165.009 Q1811.21 165.009 1808.85 162.787 Q1806.51 160.541 1806.51 156.791 Q1806.51 152.416 1809.42 150.194 Q1812.36 147.972 1818.17 147.972 L1824.15 147.972 L1824.15 147.555 Q1824.15 144.615 1822.2 143.018 Q1820.28 141.398 1816.79 141.398 Q1814.56 141.398 1812.46 141.93 Q1810.35 142.463 1808.41 143.527 L1808.41 139.592 Q1810.74 138.69 1812.94 138.25 Q1815.14 137.787 1817.23 137.787 Q1822.85 137.787 1825.63 140.703 Q1828.41 143.62 1828.41 149.546 Z" fill="#000000" fill-rule="evenodd" fill-opacity="1"/><path clip-path="url(#clip520)" d="M1836.74 154.106 L1836.74 138.412 L1841 138.412 L1841 153.944 Q1841 157.625 1842.43 159.476 Q1843.87 161.305 1846.74 161.305 Q1850.19 161.305 1852.18 159.106 Q1854.19 156.907 1854.19 153.111 L1854.19 138.412 L1858.45 138.412 L1858.45 164.338 L1854.19 164.338 L1854.19 160.356 Q1852.64 162.717 1850.58 163.875 Q1848.54 165.009 1845.84 165.009 Q1841.37 165.009 1839.05 162.231 Q1836.74 159.453 1836.74 154.106 M1847.46 137.787 L1847.46 137.787 Z" fill="#000000" fill-rule="evenodd" fill-opacity="1"/><path clip-path="url(#clip520)" d="M1871.44 131.051 L1871.44 138.412 L1880.21 138.412 L1880.21 141.722 L1871.44 141.722 L1871.44 155.796 Q1871.44 158.967 1872.29 159.87 Q1873.17 160.773 1875.84 160.773 L1880.21 160.773 L1880.21 164.338 L1875.84 164.338 Q1870.91 164.338 1869.03 162.509 Q1867.16 160.657 1867.16 155.796 L1867.16 141.722 L1864.03 141.722 L1864.03 138.412 L1867.16 138.412 L1867.16 131.051 L1871.44 131.051 Z" fill="#000000" fill-rule="evenodd" fill-opacity="1"/><path clip-path="url(#clip520)" d="M1895.86 141.398 Q1892.43 141.398 1890.44 144.083 Q1888.45 146.745 1888.45 151.398 Q1888.45 156.051 1890.42 158.736 Q1892.41 161.398 1895.86 161.398 Q1899.26 161.398 1901.25 158.713 Q1903.24 156.027 1903.24 151.398 Q1903.24 146.791 1901.25 144.106 Q1899.26 141.398 1895.86 141.398 M1895.86 137.787 Q1901.41 137.787 1904.59 141.398 Q1907.76 145.009 1907.76 151.398 Q1907.76 157.764 1904.59 161.398 Q1901.41 165.009 1895.86 165.009 Q1890.28 165.009 1887.11 161.398 Q1883.96 157.764 1883.96 151.398 Q1883.96 145.009 1887.11 141.398 Q1890.28 137.787 1895.86 137.787 Z" fill="#000000" fill-rule="evenodd" fill-opacity="1"/><path clip-path="url(#clip520)" d="M1933.47 139.407 L1933.47 143.389 Q1931.67 142.393 1929.84 141.907 Q1928.03 141.398 1926.18 141.398 Q1922.04 141.398 1919.75 144.037 Q1917.46 146.652 1917.46 151.398 Q1917.46 156.143 1919.75 158.782 Q1922.04 161.398 1926.18 161.398 Q1928.03 161.398 1929.84 160.912 Q1931.67 160.402 1933.47 159.407 L1933.47 163.342 Q1931.69 164.176 1929.77 164.592 Q1927.87 165.009 1925.72 165.009 Q1919.86 165.009 1916.41 161.328 Q1912.97 157.648 1912.97 151.398 Q1912.97 145.055 1916.44 141.421 Q1919.93 137.787 1926 137.787 Q1927.97 137.787 1929.84 138.203 Q1931.72 138.597 1933.47 139.407 Z" fill="#000000" fill-rule="evenodd" fill-opacity="1"/><path clip-path="url(#clip520)" d="M1950.93 141.398 Q1947.5 141.398 1945.51 144.083 Q1943.52 146.745 1943.52 151.398 Q1943.52 156.051 1945.49 158.736 Q1947.48 161.398 1950.93 161.398 Q1954.33 161.398 1956.32 158.713 Q1958.31 156.027 1958.31 151.398 Q1958.31 146.791 1956.32 144.106 Q1954.33 141.398 1950.93 141.398 M1950.93 137.787 Q1956.48 137.787 1959.66 141.398 Q1962.83 145.009 1962.83 151.398 Q1962.83 157.764 1959.66 161.398 Q1956.48 165.009 1950.93 165.009 Q1945.35 165.009 1942.18 161.398 Q1939.03 157.764 1939.03 151.398 Q1939.03 145.009 1942.18 141.398 Q1945.35 137.787 1950.93 137.787 Z" fill="#000000" fill-rule="evenodd" fill-opacity="1"/><path clip-path="url(#clip520)" d="M1984.91 142.393 Q1984.19 141.977 1983.34 141.791 Q1982.5 141.583 1981.48 141.583 Q1977.87 141.583 1975.93 143.944 Q1974.01 146.282 1974.01 150.68 L1974.01 164.338 L1969.72 164.338 L1969.72 138.412 L1974.01 138.412 L1974.01 142.44 Q1975.35 140.078 1977.5 138.944 Q1979.66 137.787 1982.73 137.787 Q1983.17 137.787 1983.71 137.856 Q1984.24 137.903 1984.89 138.018 L1984.91 142.393 Z" fill="#000000" fill-rule="evenodd" fill-opacity="1"/><path clip-path="url(#clip520)" d="M2003.57 142.393 Q2002.85 141.977 2001.99 141.791 Q2001.16 141.583 2000.14 141.583 Q1996.53 141.583 1994.59 143.944 Q1992.66 146.282 1992.66 150.68 L1992.66 164.338 L1988.38 164.338 L1988.38 138.412 L1992.66 138.412 L1992.66 142.44 Q1994.01 140.078 1996.16 138.944 Q1998.31 137.787 2001.39 137.787 Q2001.83 137.787 2002.36 137.856 Q2002.9 137.903 2003.54 138.018 L2003.57 142.393 Z" fill="#000000" fill-rule="evenodd" fill-opacity="1"/><path clip-path="url(#clip520)" d="M2029.17 150.31 L2029.17 152.393 L2009.59 152.393 Q2009.86 156.791 2012.22 159.106 Q2014.61 161.398 2018.84 161.398 Q2021.3 161.398 2023.59 160.796 Q2025.9 160.194 2028.17 158.99 L2028.17 163.018 Q2025.88 163.99 2023.47 164.5 Q2021.07 165.009 2018.59 165.009 Q2012.39 165.009 2008.75 161.398 Q2005.14 157.787 2005.14 151.629 Q2005.14 145.264 2008.57 141.537 Q2012.02 137.787 2017.85 137.787 Q2023.08 137.787 2026.11 141.166 Q2029.17 144.523 2029.17 150.31 M2024.91 149.06 Q2024.86 145.565 2022.94 143.481 Q2021.04 141.398 2017.9 141.398 Q2014.33 141.398 2012.18 143.412 Q2010.05 145.426 2009.72 149.083 L2024.91 149.06 Z" fill="#000000" fill-rule="evenodd" fill-opacity="1"/><path clip-path="url(#clip520)" d="M2036.16 128.319 L2040.42 128.319 L2040.42 164.338 L2036.16 164.338 L2036.16 128.319 Z" fill="#000000" fill-rule="evenodd" fill-opacity="1"/><path clip-path="url(#clip520)" d="M2061.11 151.305 Q2055.95 151.305 2053.96 152.486 Q2051.97 153.666 2051.97 156.514 Q2051.97 158.782 2053.45 160.125 Q2054.96 161.444 2057.52 161.444 Q2061.07 161.444 2063.2 158.944 Q2065.35 156.421 2065.35 152.254 L2065.35 151.305 L2061.11 151.305 M2069.61 149.546 L2069.61 164.338 L2065.35 164.338 L2065.35 160.402 Q2063.89 162.763 2061.71 163.898 Q2059.54 165.009 2056.39 165.009 Q2052.41 165.009 2050.05 162.787 Q2047.71 160.541 2047.71 156.791 Q2047.71 152.416 2050.63 150.194 Q2053.57 147.972 2059.38 147.972 L2065.35 147.972 L2065.35 147.555 Q2065.35 144.615 2063.4 143.018 Q2061.48 141.398 2057.99 141.398 Q2055.77 141.398 2053.66 141.93 Q2051.55 142.463 2049.61 143.527 L2049.61 139.592 Q2051.95 138.69 2054.15 138.25 Q2056.34 137.787 2058.43 137.787 Q2064.05 137.787 2066.83 140.703 Q2069.61 143.62 2069.61 149.546 Z" fill="#000000" fill-rule="evenodd" fill-opacity="1"/><path clip-path="url(#clip520)" d="M2082.59 131.051 L2082.59 138.412 L2091.37 138.412 L2091.37 141.722 L2082.59 141.722 L2082.59 155.796 Q2082.59 158.967 2083.45 159.87 Q2084.33 160.773 2086.99 160.773 L2091.37 160.773 L2091.37 164.338 L2086.99 164.338 Q2082.06 164.338 2080.19 162.509 Q2078.31 160.657 2078.31 155.796 L2078.31 141.722 L2075.19 141.722 L2075.19 138.412 L2078.31 138.412 L2078.31 131.051 L2082.59 131.051 Z" fill="#000000" fill-rule="evenodd" fill-opacity="1"/><path clip-path="url(#clip520)" d="M2096.97 138.412 L2101.23 138.412 L2101.23 164.338 L2096.97 164.338 L2096.97 138.412 M2096.97 128.319 L2101.23 128.319 L2101.23 133.713 L2096.97 133.713 L2096.97 128.319 Z" fill="#000000" fill-rule="evenodd" fill-opacity="1"/><path clip-path="url(#clip520)" d="M2120.19 141.398 Q2116.76 141.398 2114.77 144.083 Q2112.78 146.745 2112.78 151.398 Q2112.78 156.051 2114.75 158.736 Q2116.74 161.398 2120.19 161.398 Q2123.59 161.398 2125.58 158.713 Q2127.57 156.027 2127.57 151.398 Q2127.57 146.791 2125.58 144.106 Q2123.59 141.398 2120.19 141.398 M2120.19 137.787 Q2125.74 137.787 2128.91 141.398 Q2132.08 145.009 2132.08 151.398 Q2132.08 157.764 2128.91 161.398 Q2125.74 165.009 2120.19 165.009 Q2114.61 165.009 2111.44 161.398 Q2108.29 157.764 2108.29 151.398 Q2108.29 145.009 2111.44 141.398 Q2114.61 137.787 2120.19 137.787 Z" fill="#000000" fill-rule="evenodd" fill-opacity="1"/><path clip-path="url(#clip520)" d="M2160.7 148.689 L2160.7 164.338 L2156.44 164.338 L2156.44 148.828 Q2156.44 145.148 2155 143.319 Q2153.57 141.49 2150.7 141.49 Q2147.25 141.49 2145.26 143.69 Q2143.27 145.889 2143.27 149.685 L2143.27 164.338 L2138.98 164.338 L2138.98 138.412 L2143.27 138.412 L2143.27 142.44 Q2144.79 140.102 2146.85 138.944 Q2148.94 137.787 2151.64 137.787 Q2156.11 137.787 2158.4 140.565 Q2160.7 143.319 2160.7 148.689 Z" fill="#000000" fill-rule="evenodd" fill-opacity="1"/><path clip-path="url(#clip520)" d="M2194.49 128.366 Q2191.39 133.69 2189.89 138.898 Q2188.38 144.106 2188.38 149.453 Q2188.38 154.801 2189.89 160.055 Q2191.41 165.287 2194.49 170.588 L2190.79 170.588 Q2187.32 165.148 2185.58 159.893 Q2183.87 154.639 2183.87 149.453 Q2183.87 144.291 2185.58 139.06 Q2187.29 133.828 2190.79 128.366 L2194.49 128.366 Z" fill="#000000" fill-rule="evenodd" fill-opacity="1"/><path clip-path="url(#clip520)" d="M2215.88 128.319 L2215.88 131.861 L2211.81 131.861 Q2209.51 131.861 2208.61 132.787 Q2207.73 133.713 2207.73 136.12 L2207.73 138.412 L2214.75 138.412 L2214.75 141.722 L2207.73 141.722 L2207.73 164.338 L2203.45 164.338 L2203.45 141.722 L2199.38 141.722 L2199.38 138.412 L2203.45 138.412 L2203.45 136.606 Q2203.45 132.278 2205.46 130.31 Q2207.48 128.319 2211.85 128.319 L2215.88 128.319 Z" fill="#000000" fill-rule="evenodd" fill-opacity="1"/><path clip-path="url(#clip520)" d="M2241 148.689 L2241 164.338 L2236.74 164.338 L2236.74 148.828 Q2236.74 145.148 2235.3 143.319 Q2233.87 141.49 2231 141.49 Q2227.55 141.49 2225.56 143.69 Q2223.57 145.889 2223.57 149.685 L2223.57 164.338 L2219.28 164.338 L2219.28 128.319 L2223.57 128.319 L2223.57 142.44 Q2225.09 140.102 2227.15 138.944 Q2229.24 137.787 2231.95 137.787 Q2236.41 137.787 2238.7 140.565 Q2241 143.319 2241 148.689 Z" fill="#000000" fill-rule="evenodd" fill-opacity="1"/><path clip-path="url(#clip520)" d="M2248.82 128.366 L2252.52 128.366 Q2256 133.828 2257.71 139.06 Q2259.45 144.291 2259.45 149.453 Q2259.45 154.639 2257.71 159.893 Q2256 165.148 2252.52 170.588 L2248.82 170.588 Q2251.9 165.287 2253.4 160.055 Q2254.93 154.801 2254.93 149.453 Q2254.93 144.106 2253.4 138.898 Q2251.9 133.69 2248.82 128.366 Z" fill="#000000" fill-rule="evenodd" fill-opacity="1"/></svg>