<?xml version="1.0" encoding="utf-8"?>
<svg xmlns="http://www.w3.org/2000/svg" xmlns:xlink="http://www.w3.org/1999/xlink" width="600" height="400" viewBox="0 0 2400 1600">
<defs>
  <clipPath id="clip650">
    <rect x="0" y="0" width="2400" height="1600"/>
  </clipPath>
</defs>
<path clip-path="url(#clip650)" d="
M0 1600 L2400 1600 L2400 0 L0 0  Z
  " fill="#ffffff" fill-rule="evenodd" fill-opacity="1"/>
<defs>
  <clipPath id="clip651">
    <rect x="480" y="0" width="1681" height="1600"/>
  </clipPath>
</defs>
<path clip-path="url(#clip650)" d="
M136.876 1457.78 L2352.76 1457.78 L2352.76 47.2441 L136.876 47.2441  Z
  " fill="#ffffff" fill-rule="evenodd" fill-opacity="1"/>
<defs>
  <clipPath id="clip652">
    <rect x="136" y="47" width="2217" height="1412"/>
  </clipPath>
</defs>
<polyline clip-path="url(#clip652)" style="stroke:#000000; stroke-linecap:round; stroke-linejoin:round; stroke-width:2; stroke-opacity:0.1; fill:none" points="
  1175.86,1457.78 1175.86,47.2441 
  "/>
<polyline clip-path="url(#clip652)" style="stroke:#000000; stroke-linecap:round; stroke-linejoin:round; stroke-width:2; stroke-opacity:0.1; fill:none" points="
  1196.52,1457.78 1196.52,47.2441 
  "/>
<polyline clip-path="url(#clip650)" style="stroke:#000000; stroke-linecap:round; stroke-linejoin:round; stroke-width:4; stroke-opacity:1; fill:none" points="
  136.876,1457.78 2352.76,1457.78 
  "/>
<polyline clip-path="url(#clip650)" style="stroke:#000000; stroke-linecap:round; stroke-linejoin:round; stroke-width:4; stroke-opacity:1; fill:none" points="
  1175.86,1457.78 1175.86,1438.88 
  "/>
<polyline clip-path="url(#clip650)" style="stroke:#000000; stroke-linecap:round; stroke-linejoin:round; stroke-width:4; stroke-opacity:1; fill:none" points="
  1196.52,1457.78 1196.52,1438.88 
  "/>
<path clip-path="url(#clip650)" d="M1167.86 1539.45 L1171.54 1539.45 L1171.54 1535.07 L1173.19 1535.07 L1173.19 1539.45 L1180.23 1539.45 Q1181.82 1539.45 1182.27 1539.02 Q1182.72 1538.58 1182.72 1537.25 L1182.72 1535.07 L1184.5 1535.07 L1184.5 1537.25 Q1184.5 1539.72 1183.59 1540.66 Q1182.66 1541.59 1180.23 1541.59 L1173.19 1541.59 L1173.19 1543.16 L1171.54 1543.16 L1171.54 1541.59 L1167.86 1541.59 L1167.86 1539.45 Z" fill="#000000" fill-rule="evenodd" fill-opacity="1" /><path clip-path="url(#clip650)" d="M1179.39 1532.48 L1171.54 1532.48 L1171.54 1530.35 L1179.31 1530.35 Q1181.15 1530.35 1182.07 1529.64 Q1182.99 1528.92 1182.99 1527.48 Q1182.99 1525.76 1181.89 1524.76 Q1180.79 1523.76 1178.89 1523.76 L1171.54 1523.76 L1171.54 1521.63 L1184.5 1521.63 L1184.5 1523.76 L1182.51 1523.76 Q1183.69 1524.53 1184.27 1525.56 Q1184.84 1526.58 1184.84 1527.94 Q1184.84 1530.17 1183.45 1531.33 Q1182.06 1532.48 1179.39 1532.48 M1171.23 1527.13 L1171.23 1527.13 Z" fill="#000000" fill-rule="evenodd" fill-opacity="1" /><path clip-path="url(#clip650)" d="M1176.68 1506.47 L1184.5 1506.47 L1184.5 1508.6 L1176.75 1508.6 Q1174.91 1508.6 1173.99 1509.31 Q1173.08 1510.03 1173.08 1511.47 Q1173.08 1513.19 1174.18 1514.19 Q1175.28 1515.18 1177.18 1515.18 L1184.5 1515.18 L1184.5 1517.32 L1171.54 1517.32 L1171.54 1515.18 L1173.55 1515.18 Q1172.38 1514.42 1171.81 1513.39 Q1171.23 1512.35 1171.23 1510.99 Q1171.23 1508.76 1172.62 1507.61 Q1173.99 1506.47 1176.68 1506.47 Z" fill="#000000" fill-rule="evenodd" fill-opacity="1" /><path clip-path="url(#clip650)" d="M1177.49 1491.13 L1178.53 1491.13 L1178.53 1500.92 Q1180.73 1500.78 1181.89 1499.6 Q1183.03 1498.41 1183.03 1496.29 Q1183.03 1495.07 1182.73 1493.92 Q1182.43 1492.76 1181.83 1491.63 L1183.84 1491.63 Q1184.33 1492.77 1184.58 1493.98 Q1184.84 1495.18 1184.84 1496.42 Q1184.84 1499.52 1183.03 1501.34 Q1181.23 1503.14 1178.15 1503.14 Q1174.97 1503.14 1173.1 1501.43 Q1171.23 1499.71 1171.23 1496.79 Q1171.23 1494.17 1172.92 1492.66 Q1174.59 1491.13 1177.49 1491.13 M1176.86 1493.26 Q1175.12 1493.28 1174.07 1494.24 Q1173.03 1495.19 1173.03 1496.77 Q1173.03 1498.55 1174.04 1499.63 Q1175.05 1500.69 1176.87 1500.85 L1176.86 1493.26 Z" fill="#000000" fill-rule="evenodd" fill-opacity="1" /><path clip-path="url(#clip650)" d="M1173.51 1479.1 L1166.49 1479.1 L1166.49 1476.98 L1184.5 1476.98 L1184.5 1479.1 L1182.56 1479.1 Q1183.72 1479.78 1184.28 1480.81 Q1184.84 1481.82 1184.84 1483.26 Q1184.84 1485.61 1182.96 1487.09 Q1181.09 1488.56 1178.03 1488.56 Q1174.98 1488.56 1173.1 1487.09 Q1171.23 1485.61 1171.23 1483.26 Q1171.23 1481.82 1171.79 1480.81 Q1172.35 1479.78 1173.51 1479.1 M1178.03 1486.36 Q1180.38 1486.36 1181.72 1485.4 Q1183.06 1484.43 1183.06 1482.74 Q1183.06 1481.05 1181.72 1480.08 Q1180.38 1479.1 1178.03 1479.1 Q1175.68 1479.1 1174.35 1480.08 Q1173.01 1481.05 1173.01 1482.74 Q1173.01 1484.43 1174.35 1485.4 Q1175.68 1486.36 1178.03 1486.36 Z" fill="#000000" fill-rule="evenodd" fill-opacity="1" /><path clip-path="url(#clip650)" d="M1200.04 1571.82 L1192.2 1571.82 L1192.2 1569.69 L1199.96 1569.69 Q1201.8 1569.69 1202.73 1568.98 Q1203.64 1568.26 1203.64 1566.82 Q1203.64 1565.1 1202.54 1564.1 Q1201.44 1563.1 1199.54 1563.1 L1192.2 1563.1 L1192.2 1560.97 L1205.16 1560.97 L1205.16 1563.1 L1203.17 1563.1 Q1204.35 1563.87 1204.93 1564.9 Q1205.49 1565.92 1205.49 1567.28 Q1205.49 1569.51 1204.1 1570.67 Q1202.72 1571.82 1200.04 1571.82 M1191.88 1566.47 L1191.88 1566.47 Z" fill="#000000" fill-rule="evenodd" fill-opacity="1" /><path clip-path="url(#clip650)" d="M1197.33 1545.81 L1205.16 1545.81 L1205.16 1547.94 L1197.4 1547.94 Q1195.56 1547.94 1194.65 1548.65 Q1193.73 1549.37 1193.73 1550.81 Q1193.73 1552.53 1194.83 1553.53 Q1195.93 1554.52 1197.83 1554.52 L1205.16 1554.52 L1205.16 1556.66 L1192.2 1556.66 L1192.2 1554.52 L1194.21 1554.52 Q1193.04 1553.76 1192.46 1552.73 Q1191.88 1551.69 1191.88 1550.33 Q1191.88 1548.1 1193.27 1546.95 Q1194.65 1545.81 1197.33 1545.81 Z" fill="#000000" fill-rule="evenodd" fill-opacity="1" /><path clip-path="url(#clip650)" d="M1188.51 1539.45 L1192.2 1539.45 L1192.2 1535.07 L1193.85 1535.07 L1193.85 1539.45 L1200.89 1539.45 Q1202.47 1539.45 1202.92 1539.02 Q1203.38 1538.58 1203.38 1537.25 L1203.38 1535.07 L1205.16 1535.07 L1205.16 1537.25 Q1205.16 1539.72 1204.24 1540.66 Q1203.32 1541.59 1200.89 1541.59 L1193.85 1541.59 L1193.85 1543.16 L1192.2 1543.16 L1192.2 1541.59 L1188.51 1541.59 L1188.51 1539.45 Z" fill="#000000" fill-rule="evenodd" fill-opacity="1" /><path clip-path="url(#clip650)" d="M1200.04 1532.48 L1192.2 1532.48 L1192.2 1530.35 L1199.96 1530.35 Q1201.8 1530.35 1202.73 1529.64 Q1203.64 1528.92 1203.64 1527.48 Q1203.64 1525.76 1202.54 1524.76 Q1201.44 1523.76 1199.54 1523.76 L1192.2 1523.76 L1192.2 1521.63 L1205.16 1521.63 L1205.16 1523.76 L1203.17 1523.76 Q1204.35 1524.53 1204.93 1525.56 Q1205.49 1526.58 1205.49 1527.94 Q1205.49 1530.17 1204.1 1531.33 Q1202.72 1532.48 1200.04 1532.48 M1191.88 1527.13 L1191.88 1527.13 Z" fill="#000000" fill-rule="evenodd" fill-opacity="1" /><path clip-path="url(#clip650)" d="M1197.33 1506.47 L1205.16 1506.47 L1205.16 1508.6 L1197.4 1508.6 Q1195.56 1508.6 1194.65 1509.31 Q1193.73 1510.03 1193.73 1511.47 Q1193.73 1513.19 1194.83 1514.19 Q1195.93 1515.18 1197.83 1515.18 L1205.16 1515.18 L1205.16 1517.32 L1192.2 1517.32 L1192.2 1515.18 L1194.21 1515.18 Q1193.04 1514.42 1192.46 1513.39 Q1191.88 1512.35 1191.88 1510.99 Q1191.88 1508.76 1193.27 1507.61 Q1194.65 1506.47 1197.33 1506.47 Z" fill="#000000" fill-rule="evenodd" fill-opacity="1" /><path clip-path="url(#clip650)" d="M1198.14 1491.13 L1199.19 1491.13 L1199.19 1500.92 Q1201.38 1500.78 1202.54 1499.6 Q1203.69 1498.41 1203.69 1496.29 Q1203.69 1495.07 1203.39 1493.92 Q1203.09 1492.76 1202.48 1491.63 L1204.5 1491.63 Q1204.98 1492.77 1205.24 1493.98 Q1205.49 1495.18 1205.49 1496.42 Q1205.49 1499.52 1203.69 1501.34 Q1201.88 1503.14 1198.8 1503.14 Q1195.62 1503.14 1193.76 1501.43 Q1191.88 1499.71 1191.88 1496.79 Q1191.88 1494.17 1193.57 1492.66 Q1195.25 1491.13 1198.14 1491.13 M1197.52 1493.26 Q1195.77 1493.28 1194.73 1494.24 Q1193.69 1495.19 1193.69 1496.77 Q1193.69 1498.55 1194.7 1499.63 Q1195.7 1500.69 1197.53 1500.85 L1197.52 1493.26 Z" fill="#000000" fill-rule="evenodd" fill-opacity="1" /><path clip-path="url(#clip650)" d="M1194.16 1479.1 L1187.15 1479.1 L1187.15 1476.98 L1205.16 1476.98 L1205.16 1479.1 L1203.21 1479.1 Q1204.37 1479.78 1204.94 1480.81 Q1205.49 1481.82 1205.49 1483.26 Q1205.49 1485.61 1203.62 1487.09 Q1201.74 1488.56 1198.69 1488.56 Q1195.63 1488.56 1193.76 1487.09 Q1191.88 1485.61 1191.88 1483.26 Q1191.88 1481.82 1192.45 1480.81 Q1193.01 1479.78 1194.16 1479.1 M1198.69 1486.36 Q1201.04 1486.36 1202.38 1485.4 Q1203.71 1484.43 1203.71 1482.74 Q1203.71 1481.05 1202.38 1480.08 Q1201.04 1479.1 1198.69 1479.1 Q1196.34 1479.1 1195.01 1480.08 Q1193.66 1481.05 1193.66 1482.74 Q1193.66 1484.43 1195.01 1485.4 Q1196.34 1486.36 1198.69 1486.36 Z" fill="#000000" fill-rule="evenodd" fill-opacity="1" /><polyline clip-path="url(#clip652)" style="stroke:#000000; stroke-linecap:round; stroke-linejoin:round; stroke-width:2; stroke-opacity:0.1; fill:none" points="
  136.876,1268.09 2352.76,1268.09 
  "/>
<polyline clip-path="url(#clip652)" style="stroke:#000000; stroke-linecap:round; stroke-linejoin:round; stroke-width:2; stroke-opacity:0.1; fill:none" points="
  136.876,1003.6 2352.76,1003.6 
  "/>
<polyline clip-path="url(#clip652)" style="stroke:#000000; stroke-linecap:round; stroke-linejoin:round; stroke-width:2; stroke-opacity:0.1; fill:none" points="
  136.876,739.102 2352.76,739.102 
  "/>
<polyline clip-path="url(#clip652)" style="stroke:#000000; stroke-linecap:round; stroke-linejoin:round; stroke-width:2; stroke-opacity:0.1; fill:none" points="
  136.876,474.608 2352.76,474.608 
  "/>
<polyline clip-path="url(#clip652)" style="stroke:#000000; stroke-linecap:round; stroke-linejoin:round; stroke-width:2; stroke-opacity:0.1; fill:none" points="
  136.876,210.115 2352.76,210.115 
  "/>
<polyline clip-path="url(#clip650)" style="stroke:#000000; stroke-linecap:round; stroke-linejoin:round; stroke-width:4; stroke-opacity:1; fill:none" points="
  136.876,1457.78 136.876,47.2441 
  "/>
<polyline clip-path="url(#clip650)" style="stroke:#000000; stroke-linecap:round; stroke-linejoin:round; stroke-width:4; stroke-opacity:1; fill:none" points="
  136.876,1268.09 155.774,1268.09 
  "/>
<polyline clip-path="url(#clip650)" style="stroke:#000000; stroke-linecap:round; stroke-linejoin:round; stroke-width:4; stroke-opacity:1; fill:none" points="
  136.876,1003.6 155.774,1003.6 
  "/>
<polyline clip-path="url(#clip650)" style="stroke:#000000; stroke-linecap:round; stroke-linejoin:round; stroke-width:4; stroke-opacity:1; fill:none" points="
  136.876,739.102 155.774,739.102 
  "/>
<polyline clip-path="url(#clip650)" style="stroke:#000000; stroke-linecap:round; stroke-linejoin:round; stroke-width:4; stroke-opacity:1; fill:none" points="
  136.876,474.608 155.774,474.608 
  "/>
<polyline clip-path="url(#clip650)" style="stroke:#000000; stroke-linecap:round; stroke-linejoin:round; stroke-width:4; stroke-opacity:1; fill:none" points="
  136.876,210.115 155.774,210.115 
  "/>
<path clip-path="url(#clip650)" d="M56.9643 1260.99 Q55.1588 1260.99 54.2444 1262.77 Q53.3417 1264.54 53.3417 1268.11 Q53.3417 1271.66 54.2444 1273.44 Q55.1588 1275.21 56.9643 1275.21 Q58.7814 1275.21 59.6842 1273.44 Q60.5986 1271.66 60.5986 1268.11 Q60.5986 1264.54 59.6842 1262.77 Q58.7814 1260.99 56.9643 1260.99 M56.9643 1259.14 Q59.8694 1259.14 61.3972 1261.44 Q62.9365 1263.73 62.9365 1268.11 Q62.9365 1272.47 61.3972 1274.77 Q59.8694 1277.06 56.9643 1277.06 Q54.0592 1277.06 52.5199 1274.77 Q50.9921 1272.47 50.9921 1268.11 Q50.9921 1263.73 52.5199 1261.44 Q54.0592 1259.14 56.9643 1259.14 Z" fill="#000000" fill-rule="evenodd" fill-opacity="1" /><path clip-path="url(#clip650)" d="M67.0453 1273.79 L69.4874 1273.79 L69.4874 1276.73 L67.0453 1276.73 L67.0453 1273.79 Z" fill="#000000" fill-rule="evenodd" fill-opacity="1" /><path clip-path="url(#clip650)" d="M74.9851 1274.76 L78.8045 1274.76 L78.8045 1261.58 L74.6494 1262.41 L74.6494 1260.28 L78.7813 1259.45 L81.1193 1259.45 L81.1193 1274.76 L84.9387 1274.76 L84.9387 1276.73 L74.9851 1276.73 L74.9851 1274.76 Z" fill="#000000" fill-rule="evenodd" fill-opacity="1" /><path clip-path="url(#clip650)" d="M96.0845 1261.49 L90.1817 1270.71 L96.0845 1270.71 L96.0845 1261.49 M95.4711 1259.45 L98.4109 1259.45 L98.4109 1270.71 L100.876 1270.71 L100.876 1272.65 L98.4109 1272.65 L98.4109 1276.73 L96.0845 1276.73 L96.0845 1272.65 L88.2836 1272.65 L88.2836 1270.4 L95.4711 1259.45 Z" fill="#000000" fill-rule="evenodd" fill-opacity="1" /><path clip-path="url(#clip650)" d="M57.1264 996.495 Q55.3208 996.495 54.4065 998.277 Q53.5037 1000.05 53.5037 1003.61 Q53.5037 1007.17 54.4065 1008.95 Q55.3208 1010.72 57.1264 1010.72 Q58.9435 1010.72 59.8462 1008.95 Q60.7606 1007.17 60.7606 1003.61 Q60.7606 1000.05 59.8462 998.277 Q58.9435 996.495 57.1264 996.495 M57.1264 994.643 Q60.0314 994.643 61.5592 996.946 Q63.0985 999.238 63.0985 1003.61 Q63.0985 1007.98 61.5592 1010.28 Q60.0314 1012.57 57.1264 1012.57 Q54.2213 1012.57 52.6819 1010.28 Q51.1542 1007.98 51.1542 1003.61 Q51.1542 999.238 52.6819 996.946 Q54.2213 994.643 57.1264 994.643 Z" fill="#000000" fill-rule="evenodd" fill-opacity="1" /><path clip-path="url(#clip650)" d="M67.2073 1009.3 L69.6494 1009.3 L69.6494 1012.24 L67.2073 1012.24 L67.2073 1009.3 Z" fill="#000000" fill-rule="evenodd" fill-opacity="1" /><path clip-path="url(#clip650)" d="M75.1471 1010.27 L78.9665 1010.27 L78.9665 997.085 L74.8114 997.918 L74.8114 995.789 L78.9434 994.955 L81.2813 994.955 L81.2813 1010.27 L85.1007 1010.27 L85.1007 1012.24 L75.1471 1012.24 L75.1471 1010.27 Z" fill="#000000" fill-rule="evenodd" fill-opacity="1" /><path clip-path="url(#clip650)" d="M95.1123 1002.66 Q93.5382 1002.66 92.6123 1003.74 Q91.6979 1004.82 91.6979 1006.69 Q91.6979 1008.55 92.6123 1009.64 Q93.5382 1010.72 95.1123 1010.72 Q96.6863 1010.72 97.6007 1009.64 Q98.5266 1008.55 98.5266 1006.69 Q98.5266 1004.82 97.6007 1003.74 Q96.6863 1002.66 95.1123 1002.66 M99.7534 995.337 L99.7534 997.467 Q98.8738 997.05 97.971 996.83 Q97.0798 996.61 96.2002 996.61 Q93.8854 996.61 92.6586 998.173 Q91.4433 999.735 91.2697 1002.9 Q91.9526 1001.89 92.9826 1001.36 Q94.0127 1000.81 95.2511 1000.81 Q97.8553 1000.81 99.3599 1002.4 Q100.876 1003.97 100.876 1006.69 Q100.876 1009.35 99.3021 1010.96 Q97.728 1012.57 95.1123 1012.57 Q92.1146 1012.57 90.529 1010.28 Q88.9433 1007.98 88.9433 1003.61 Q88.9433 999.515 90.8877 997.085 Q92.8322 994.643 96.1076 994.643 Q96.9872 994.643 97.8784 994.816 Q98.7812 994.99 99.7534 995.337 Z" fill="#000000" fill-rule="evenodd" fill-opacity="1" /><path clip-path="url(#clip650)" d="M57.2537 732.001 Q55.4481 732.001 54.5338 733.784 Q53.631 735.554 53.631 739.119 Q53.631 742.672 54.5338 744.455 Q55.4481 746.226 57.2537 746.226 Q59.0708 746.226 59.9736 744.455 Q60.8879 742.672 60.8879 739.119 Q60.8879 735.554 59.9736 733.784 Q59.0708 732.001 57.2537 732.001 M57.2537 730.149 Q60.1587 730.149 61.6865 732.453 Q63.2259 734.744 63.2259 739.119 Q63.2259 743.483 61.6865 745.786 Q60.1587 748.078 57.2537 748.078 Q54.3486 748.078 52.8092 745.786 Q51.2815 743.483 51.2815 739.119 Q51.2815 734.744 52.8092 732.453 Q54.3486 730.149 57.2537 730.149 Z" fill="#000000" fill-rule="evenodd" fill-opacity="1" /><path clip-path="url(#clip650)" d="M67.3346 744.802 L69.7767 744.802 L69.7767 747.742 L67.3346 747.742 L67.3346 744.802 Z" fill="#000000" fill-rule="evenodd" fill-opacity="1" /><path clip-path="url(#clip650)" d="M75.2744 745.774 L79.0938 745.774 L79.0938 732.591 L74.9388 733.425 L74.9388 731.295 L79.0707 730.462 L81.4086 730.462 L81.4086 745.774 L85.2281 745.774 L85.2281 747.742 L75.2744 747.742 L75.2744 745.774 Z" fill="#000000" fill-rule="evenodd" fill-opacity="1" /><path clip-path="url(#clip650)" d="M94.9502 739.536 Q93.2836 739.536 92.3229 740.427 Q91.3739 741.318 91.3739 742.881 Q91.3739 744.443 92.3229 745.334 Q93.2836 746.226 94.9502 746.226 Q96.6169 746.226 97.5775 745.334 Q98.5382 744.432 98.5382 742.881 Q98.5382 741.318 97.5775 740.427 Q96.6285 739.536 94.9502 739.536 M92.6123 738.541 Q91.1077 738.17 90.2627 737.14 Q89.4294 736.11 89.4294 734.629 Q89.4294 732.557 90.8993 731.353 Q92.3808 730.149 94.9502 730.149 Q97.5312 730.149 99.0011 731.353 Q100.471 732.557 100.471 734.629 Q100.471 736.11 99.6261 737.14 Q98.7928 738.17 97.2997 738.541 Q98.9896 738.934 99.927 740.08 Q100.876 741.226 100.876 742.881 Q100.876 745.392 99.3368 746.735 Q97.809 748.078 94.9502 748.078 Q92.0914 748.078 90.5521 746.735 Q89.0243 745.392 89.0243 742.881 Q89.0243 741.226 89.9734 740.08 Q90.9225 738.934 92.6123 738.541 M91.7558 734.848 Q91.7558 736.191 92.5891 736.943 Q93.434 737.696 94.9502 737.696 Q96.4548 737.696 97.2997 736.943 Q98.1562 736.191 98.1562 734.848 Q98.1562 733.506 97.2997 732.754 Q96.4548 732.001 94.9502 732.001 Q93.434 732.001 92.5891 732.754 Q91.7558 733.506 91.7558 734.848 Z" fill="#000000" fill-rule="evenodd" fill-opacity="1" /><path clip-path="url(#clip650)" d="M57.2074 467.508 Q55.4018 467.508 54.4875 469.29 Q53.5847 471.061 53.5847 474.626 Q53.5847 478.179 54.4875 479.961 Q55.4018 481.732 57.2074 481.732 Q59.0245 481.732 59.9273 479.961 Q60.8416 478.179 60.8416 474.626 Q60.8416 471.061 59.9273 469.29 Q59.0245 467.508 57.2074 467.508 M57.2074 465.656 Q60.1124 465.656 61.6402 467.959 Q63.1796 470.251 63.1796 474.626 Q63.1796 478.989 61.6402 481.292 Q60.1124 483.584 57.2074 483.584 Q54.3023 483.584 52.7629 481.292 Q51.2352 478.989 51.2352 474.626 Q51.2352 470.251 52.7629 467.959 Q54.3023 465.656 57.2074 465.656 Z" fill="#000000" fill-rule="evenodd" fill-opacity="1" /><path clip-path="url(#clip650)" d="M67.2883 480.309 L69.7305 480.309 L69.7305 483.248 L67.2883 483.248 L67.2883 480.309 Z" fill="#000000" fill-rule="evenodd" fill-opacity="1" /><path clip-path="url(#clip650)" d="M76.8369 481.281 L84.9966 481.281 L84.9966 483.248 L74.0244 483.248 L74.0244 481.281 Q75.3554 479.904 77.6471 477.589 Q79.9503 475.262 80.5406 474.591 Q81.6633 473.33 82.1031 472.461 Q82.5545 471.582 82.5545 470.737 Q82.5545 469.36 81.5822 468.492 Q80.6216 467.624 79.0707 467.624 Q77.9711 467.624 76.7443 468.005 Q75.529 468.387 74.1402 469.163 L74.1402 466.802 Q75.5522 466.235 76.779 465.945 Q78.0059 465.656 79.0244 465.656 Q81.7096 465.656 83.3068 466.999 Q84.904 468.341 84.904 470.586 Q84.904 471.651 84.4989 472.612 Q84.1054 473.561 83.0521 474.857 Q82.7628 475.193 81.2119 476.802 Q79.661 478.399 76.8369 481.281 Z" fill="#000000" fill-rule="evenodd" fill-opacity="1" /><path clip-path="url(#clip650)" d="M94.9039 467.508 Q93.0984 467.508 92.184 469.29 Q91.2813 471.061 91.2813 474.626 Q91.2813 478.179 92.184 479.961 Q93.0984 481.732 94.9039 481.732 Q96.721 481.732 97.6238 479.961 Q98.5382 478.179 98.5382 474.626 Q98.5382 471.061 97.6238 469.29 Q96.721 467.508 94.9039 467.508 M94.9039 465.656 Q97.809 465.656 99.3368 467.959 Q100.876 470.251 100.876 474.626 Q100.876 478.989 99.3368 481.292 Q97.809 483.584 94.9039 483.584 Q91.9989 483.584 90.4595 481.292 Q88.9317 478.989 88.9317 474.626 Q88.9317 470.251 90.4595 467.959 Q91.9989 465.656 94.9039 465.656 Z" fill="#000000" fill-rule="evenodd" fill-opacity="1" /><path clip-path="url(#clip650)" d="M58.006 203.014 Q56.2004 203.014 55.2861 204.797 Q54.3833 206.568 54.3833 210.132 Q54.3833 213.686 55.2861 215.468 Q56.2004 217.239 58.006 217.239 Q59.8231 217.239 60.7259 215.468 Q61.6402 213.686 61.6402 210.132 Q61.6402 206.568 60.7259 204.797 Q59.8231 203.014 58.006 203.014 M58.006 201.163 Q60.9111 201.163 62.4388 203.466 Q63.9782 205.757 63.9782 210.132 Q63.9782 214.496 62.4388 216.799 Q60.9111 219.091 58.006 219.091 Q55.1009 219.091 53.5616 216.799 Q52.0338 214.496 52.0338 210.132 Q52.0338 205.757 53.5616 203.466 Q55.1009 201.163 58.006 201.163 Z" fill="#000000" fill-rule="evenodd" fill-opacity="1" /><path clip-path="url(#clip650)" d="M68.0869 215.815 L70.5291 215.815 L70.5291 218.755 L68.0869 218.755 L68.0869 215.815 Z" fill="#000000" fill-rule="evenodd" fill-opacity="1" /><path clip-path="url(#clip650)" d="M77.6355 216.787 L85.7952 216.787 L85.7952 218.755 L74.823 218.755 L74.823 216.787 Q76.154 215.41 78.4457 213.095 Q80.7489 210.769 81.3392 210.098 Q82.4619 208.836 82.9017 207.968 Q83.3531 207.088 83.3531 206.244 Q83.3531 204.866 82.3808 203.998 Q81.4202 203.13 79.8693 203.13 Q78.7698 203.13 77.5429 203.512 Q76.3276 203.894 74.9388 204.669 L74.9388 202.308 Q76.3508 201.741 77.5776 201.452 Q78.8045 201.163 79.823 201.163 Q82.5082 201.163 84.1054 202.505 Q85.7026 203.848 85.7026 206.093 Q85.7026 207.158 85.2975 208.119 Q84.904 209.068 83.8507 210.364 Q83.5614 210.7 82.0105 212.308 Q80.4596 213.906 77.6355 216.787 Z" fill="#000000" fill-rule="evenodd" fill-opacity="1" /><path clip-path="url(#clip650)" d="M92.7164 216.787 L100.876 216.787 L100.876 218.755 L89.904 218.755 L89.904 216.787 Q91.235 215.41 93.5266 213.095 Q95.8298 210.769 96.4201 210.098 Q97.5428 208.836 97.9826 207.968 Q98.434 207.088 98.434 206.244 Q98.434 204.866 97.4618 203.998 Q96.5011 203.13 94.9502 203.13 Q93.8507 203.13 92.6238 203.512 Q91.4086 203.894 90.0197 204.669 L90.0197 202.308 Q91.4317 201.741 92.6586 201.452 Q93.8854 201.163 94.9039 201.163 Q97.5891 201.163 99.1863 202.505 Q100.784 203.848 100.784 206.093 Q100.784 207.158 100.378 208.119 Q99.9849 209.068 98.9317 210.364 Q98.6423 210.7 97.0914 212.308 Q95.5405 213.906 92.7164 216.787 Z" fill="#000000" fill-rule="evenodd" fill-opacity="1" /><polyline clip-path="url(#clip652)" style="stroke:#009af9; stroke-linecap:round; stroke-linejoin:round; stroke-width:4; stroke-opacity:1; fill:none" points="
  199.59,1417.85 209.787,1371.6 219.984,1345.18 230.182,1308.15 240.379,1281.44 250.576,1268.08 260.774,1238.35 270.971,1231.15 281.168,1215.51 291.366,1201.33 
  301.563,1181.76 311.76,1163.91 321.958,1148.62 332.155,1121.88 342.352,1106.3 352.55,1086.87 362.747,1071.75 372.944,1062.11 383.142,1049.53 393.339,1053.58 
  403.536,1057.21 413.734,1055.62 423.931,1066.23 434.128,1061.38 444.326,1051.59 454.523,1029.66 464.72,985.291 474.918,943.067 485.115,882.095 495.312,819.36 
  505.51,771.287 515.707,726.779 525.904,706.722 536.102,701.346 546.299,719.591 556.496,753.565 566.694,784.227 576.891,826.217 587.088,863.716 597.286,891.139 
  607.483,913.79 617.68,925.33 627.878,943.444 638.075,953.279 648.272,954.853 658.47,966.873 668.667,967.575 678.864,969.776 689.062,962.522 699.259,951.97 
  709.456,942.467 719.654,919.964 729.851,902.757 740.048,881.564 750.246,857.313 760.443,838.765 770.64,813.064 780.838,803.063 791.035,793.715 801.232,780.388 
  811.429,790.232 821.627,793.068 831.824,804.725 842.021,819.195 852.219,824.533 862.416,842.5 872.613,843.77 882.811,836.188 893.008,833.819 903.205,810.402 
  913.403,792.389 923.6,762.757 933.797,736.656 943.995,712.192 954.192,680.241 964.389,649.622 974.587,616.274 984.784,561.533 994.981,507.405 1005.18,430.965 
  1015.38,366.015 1025.57,298.608 1035.77,239.892 1045.97,213.191 1056.17,208.239 1066.36,225.031 1076.56,259.724 1086.76,294.788 1096.95,332.601 1107.15,343.642 
  1117.35,328.417 1127.55,296.459 1137.74,242.534 1147.94,186.219 1158.14,125.767 1168.34,94.8636 1178.53,87.1648 1188.73,97.5529 1198.93,147.183 1209.13,199.808 
  1219.32,256.697 1229.52,316.691 1239.72,354.61 1249.91,409.089 1260.11,433.296 1270.31,462.79 1280.51,501.253 1290.7,533.21 1300.9,569.694 1311.1,603.472 
  1321.3,628.721 1331.49,657.674 1341.69,661.912 1351.89,671.439 1362.09,674.144 1372.28,673.474 1382.48,681.671 1392.68,683.538 1402.87,697.406 1413.07,715.319 
  1423.27,718.109 1433.47,737.263 1443.66,739.422 1453.86,746.605 1464.06,747.877 1474.26,749.957 1484.45,755.394 1494.65,756.697 1504.85,745.839 1515.05,734.92 
  1525.24,703.286 1535.44,667.598 1545.64,614.794 1555.83,576.738 1566.03,545.147 1576.23,529.112 1586.43,544.965 1596.62,578.594 1606.82,628.871 1617.02,692.743 
  1627.22,739.66 1637.41,798.381 1647.61,831.994 1657.81,853.753 1668.01,877.132 1678.2,887.479 1688.4,905.179 1698.6,923.335 1708.79,944.893 1718.99,975.212 
  1729.19,994.527 1739.39,1007.92 1749.58,1021.36 1759.78,1015.29 1769.98,1013.55 1780.18,994.086 1790.37,992.352 1800.57,991.342 1810.77,990.386 1820.97,1005.85 
  1831.16,1023.04 1841.36,1036.13 1851.56,1053.8 1861.75,1054.15 1871.95,1064.28 1882.15,1062.06 1892.35,1058.36 1902.54,1062.11 1912.74,1067.72 1922.94,1074.59 
  1933.14,1087.06 1943.33,1098.2 1953.53,1114.13 1963.73,1115.35 1973.93,1123.97 1984.12,1120.68 1994.32,1117.91 2004.52,1112.33 2014.71,1097.37 2024.91,1092.53 
  2035.11,1076.39 2045.31,1044.7 2055.5,1020.27 2065.7,978.791 2075.9,942.748 2086.1,907.215 2096.29,885.325 2106.49,890.073 2116.69,910.196 2126.89,949.236 
  2137.08,1010.19 2147.28,1065.52 2157.48,1124.53 2167.67,1163.4 2177.87,1200.19 2188.07,1222.07 2198.27,1226.56 2208.46,1241.22 2218.66,1251.15 2228.86,1264.02 
  2239.06,1263.98 2249.25,1253.27 2259.45,1239.21 2269.65,1185.81 2279.84,1129.48 2290.04,1051.74 
  "/>
<path clip-path="url(#clip650)" d="
M1604.37 197.942 L2278.89 197.942 L2278.89 94.2618 L1604.37 94.2618  Z
  " fill="#ffffff" fill-rule="evenodd" fill-opacity="1"/>
<polyline clip-path="url(#clip650)" style="stroke:#000000; stroke-linecap:round; stroke-linejoin:round; stroke-width:4; stroke-opacity:1; fill:none" points="
  1604.37,197.942 2278.89,197.942 2278.89,94.2618 1604.37,94.2618 1604.37,197.942 
  "/>
<polyline clip-path="url(#clip650)" style="stroke:#009af9; stroke-linecap:round; stroke-linejoin:round; stroke-width:4; stroke-opacity:1; fill:none" points="
  1628.99,146.102 1776.71,146.102 
  "/>
<path clip-path="url(#clip650)" d="M1814.74 150.349 Q1809.58 150.349 1807.58 151.53 Q1805.59 152.711 1805.59 155.558 Q1805.59 157.826 1807.08 159.169 Q1808.58 160.488 1811.15 160.488 Q1814.69 160.488 1816.82 157.988 Q1818.97 155.465 1818.97 151.299 L1818.97 150.349 L1814.74 150.349 M1823.23 148.59 L1823.23 163.382 L1818.97 163.382 L1818.97 159.447 Q1817.52 161.808 1815.34 162.942 Q1813.16 164.053 1810.02 164.053 Q1806.03 164.053 1803.67 161.831 Q1801.33 159.586 1801.33 155.836 Q1801.33 151.461 1804.25 149.238 Q1807.19 147.016 1813 147.016 L1818.97 147.016 L1818.97 146.599 Q1818.97 143.66 1817.03 142.062 Q1815.11 140.442 1811.61 140.442 Q1809.39 140.442 1807.28 140.975 Q1805.18 141.507 1803.23 142.572 L1803.23 138.637 Q1805.57 137.734 1807.77 137.294 Q1809.97 136.831 1812.05 136.831 Q1817.68 136.831 1820.46 139.748 Q1823.23 142.664 1823.23 148.59 Z" fill="#000000" fill-rule="evenodd" fill-opacity="1" /><path clip-path="url(#clip650)" d="M1831.57 153.15 L1831.57 137.456 L1835.83 137.456 L1835.83 152.988 Q1835.83 156.669 1837.26 158.521 Q1838.7 160.349 1841.57 160.349 Q1845.02 160.349 1847.01 158.15 Q1849.02 155.951 1849.02 152.155 L1849.02 137.456 L1853.28 137.456 L1853.28 163.382 L1849.02 163.382 L1849.02 159.4 Q1847.47 161.761 1845.41 162.919 Q1843.37 164.053 1840.66 164.053 Q1836.2 164.053 1833.88 161.275 Q1831.57 158.498 1831.57 153.15 M1842.28 136.831 L1842.28 136.831 Z" fill="#000000" fill-rule="evenodd" fill-opacity="1" /><path clip-path="url(#clip650)" d="M1866.27 130.095 L1866.27 137.456 L1875.04 137.456 L1875.04 140.766 L1866.27 140.766 L1866.27 154.84 Q1866.27 158.011 1867.12 158.914 Q1868 159.817 1870.66 159.817 L1875.04 159.817 L1875.04 163.382 L1870.66 163.382 Q1865.73 163.382 1863.86 161.553 Q1861.98 159.701 1861.98 154.84 L1861.98 140.766 L1858.86 140.766 L1858.86 137.456 L1861.98 137.456 L1861.98 130.095 L1866.27 130.095 Z" fill="#000000" fill-rule="evenodd" fill-opacity="1" /><path clip-path="url(#clip650)" d="M1890.69 140.442 Q1887.26 140.442 1885.27 143.127 Q1883.28 145.789 1883.28 150.442 Q1883.28 155.095 1885.25 157.78 Q1887.24 160.442 1890.69 160.442 Q1894.09 160.442 1896.08 157.757 Q1898.07 155.072 1898.07 150.442 Q1898.07 145.836 1896.08 143.15 Q1894.09 140.442 1890.69 140.442 M1890.69 136.831 Q1896.24 136.831 1899.41 140.442 Q1902.58 144.053 1902.58 150.442 Q1902.58 156.808 1899.41 160.442 Q1896.24 164.053 1890.69 164.053 Q1885.11 164.053 1881.94 160.442 Q1878.79 156.808 1878.79 150.442 Q1878.79 144.053 1881.94 140.442 Q1885.11 136.831 1890.69 136.831 Z" fill="#000000" fill-rule="evenodd" fill-opacity="1" /><path clip-path="url(#clip650)" d="M1928.3 138.451 L1928.3 142.433 Q1926.5 141.437 1924.67 140.951 Q1922.86 140.442 1921.01 140.442 Q1916.87 140.442 1914.58 143.081 Q1912.28 145.697 1912.28 150.442 Q1912.28 155.187 1914.58 157.826 Q1916.87 160.442 1921.01 160.442 Q1922.86 160.442 1924.67 159.956 Q1926.5 159.447 1928.3 158.451 L1928.3 162.386 Q1926.52 163.22 1924.6 163.636 Q1922.7 164.053 1920.55 164.053 Q1914.69 164.053 1911.24 160.373 Q1907.79 156.692 1907.79 150.442 Q1907.79 144.099 1911.26 140.465 Q1914.76 136.831 1920.83 136.831 Q1922.79 136.831 1924.67 137.248 Q1926.54 137.641 1928.3 138.451 Z" fill="#000000" fill-rule="evenodd" fill-opacity="1" /><path clip-path="url(#clip650)" d="M1945.76 140.442 Q1942.33 140.442 1940.34 143.127 Q1938.35 145.789 1938.35 150.442 Q1938.35 155.095 1940.32 157.78 Q1942.31 160.442 1945.76 160.442 Q1949.16 160.442 1951.15 157.757 Q1953.14 155.072 1953.14 150.442 Q1953.14 145.836 1951.15 143.15 Q1949.16 140.442 1945.76 140.442 M1945.76 136.831 Q1951.31 136.831 1954.48 140.442 Q1957.65 144.053 1957.65 150.442 Q1957.65 156.808 1954.48 160.442 Q1951.31 164.053 1945.76 164.053 Q1940.18 164.053 1937.01 160.442 Q1933.86 156.808 1933.86 150.442 Q1933.86 144.053 1937.01 140.442 Q1940.18 136.831 1945.76 136.831 Z" fill="#000000" fill-rule="evenodd" fill-opacity="1" /><path clip-path="url(#clip650)" d="M1979.74 141.437 Q1979.02 141.021 1978.16 140.836 Q1977.33 140.627 1976.31 140.627 Q1972.7 140.627 1970.76 142.988 Q1968.83 145.326 1968.83 149.724 L1968.83 163.382 L1964.55 163.382 L1964.55 137.456 L1968.83 137.456 L1968.83 141.484 Q1970.18 139.123 1972.33 137.988 Q1974.48 136.831 1977.56 136.831 Q1978 136.831 1978.53 136.9 Q1979.07 136.947 1979.71 137.062 L1979.74 141.437 Z" fill="#000000" fill-rule="evenodd" fill-opacity="1" /><path clip-path="url(#clip650)" d="M1998.39 141.437 Q1997.68 141.021 1996.82 140.836 Q1995.99 140.627 1994.97 140.627 Q1991.36 140.627 1989.41 142.988 Q1987.49 145.326 1987.49 149.724 L1987.49 163.382 L1983.21 163.382 L1983.21 137.456 L1987.49 137.456 L1987.49 141.484 Q1988.83 139.123 1990.99 137.988 Q1993.14 136.831 1996.22 136.831 Q1996.66 136.831 1997.19 136.9 Q1997.72 136.947 1998.37 137.062 L1998.39 141.437 Z" fill="#000000" fill-rule="evenodd" fill-opacity="1" /><path clip-path="url(#clip650)" d="M2024 149.354 L2024 151.437 L2004.41 151.437 Q2004.69 155.836 2007.05 158.15 Q2009.44 160.442 2013.67 160.442 Q2016.13 160.442 2018.42 159.84 Q2020.73 159.238 2023 158.035 L2023 162.062 Q2020.71 163.035 2018.3 163.544 Q2015.89 164.053 2013.42 164.053 Q2007.21 164.053 2003.58 160.442 Q1999.97 156.831 1999.97 150.674 Q1999.97 144.308 2003.39 140.581 Q2006.84 136.831 2012.68 136.831 Q2017.91 136.831 2020.94 140.211 Q2024 143.567 2024 149.354 M2019.74 148.104 Q2019.69 144.609 2017.77 142.525 Q2015.87 140.442 2012.72 140.442 Q2009.16 140.442 2007.01 142.456 Q2004.88 144.47 2004.55 148.127 L2019.74 148.104 Z" fill="#000000" fill-rule="evenodd" fill-opacity="1" /><path clip-path="url(#clip650)" d="M2030.99 127.363 L2035.25 127.363 L2035.25 163.382 L2030.99 163.382 L2030.99 127.363 Z" fill="#000000" fill-rule="evenodd" fill-opacity="1" /><path clip-path="url(#clip650)" d="M2055.94 150.349 Q2050.78 150.349 2048.79 151.53 Q2046.8 152.711 2046.8 155.558 Q2046.8 157.826 2048.28 159.169 Q2049.78 160.488 2052.35 160.488 Q2055.89 160.488 2058.02 157.988 Q2060.18 155.465 2060.18 151.299 L2060.18 150.349 L2055.94 150.349 M2064.44 148.59 L2064.44 163.382 L2060.18 163.382 L2060.18 159.447 Q2058.72 161.808 2056.54 162.942 Q2054.37 164.053 2051.22 164.053 Q2047.24 164.053 2044.88 161.831 Q2042.54 159.586 2042.54 155.836 Q2042.54 151.461 2045.45 149.238 Q2048.39 147.016 2054.2 147.016 L2060.18 147.016 L2060.18 146.599 Q2060.18 143.66 2058.23 142.062 Q2056.31 140.442 2052.82 140.442 Q2050.59 140.442 2048.49 140.975 Q2046.38 141.507 2044.44 142.572 L2044.44 138.637 Q2046.77 137.734 2048.97 137.294 Q2051.17 136.831 2053.25 136.831 Q2058.88 136.831 2061.66 139.748 Q2064.44 142.664 2064.44 148.59 Z" fill="#000000" fill-rule="evenodd" fill-opacity="1" /><path clip-path="url(#clip650)" d="M2077.42 130.095 L2077.42 137.456 L2086.19 137.456 L2086.19 140.766 L2077.42 140.766 L2077.42 154.84 Q2077.42 158.011 2078.28 158.914 Q2079.16 159.817 2081.82 159.817 L2086.19 159.817 L2086.19 163.382 L2081.82 163.382 Q2076.89 163.382 2075.01 161.553 Q2073.14 159.701 2073.14 154.84 L2073.14 140.766 L2070.01 140.766 L2070.01 137.456 L2073.14 137.456 L2073.14 130.095 L2077.42 130.095 Z" fill="#000000" fill-rule="evenodd" fill-opacity="1" /><path clip-path="url(#clip650)" d="M2091.8 137.456 L2096.06 137.456 L2096.06 163.382 L2091.8 163.382 L2091.8 137.456 M2091.8 127.363 L2096.06 127.363 L2096.06 132.757 L2091.8 132.757 L2091.8 127.363 Z" fill="#000000" fill-rule="evenodd" fill-opacity="1" /><path clip-path="url(#clip650)" d="M2115.01 140.442 Q2111.59 140.442 2109.6 143.127 Q2107.61 145.789 2107.61 150.442 Q2107.61 155.095 2109.57 157.78 Q2111.56 160.442 2115.01 160.442 Q2118.42 160.442 2120.41 157.757 Q2122.4 155.072 2122.4 150.442 Q2122.4 145.836 2120.41 143.15 Q2118.42 140.442 2115.01 140.442 M2115.01 136.831 Q2120.57 136.831 2123.74 140.442 Q2126.91 144.053 2126.91 150.442 Q2126.91 156.808 2123.74 160.442 Q2120.57 164.053 2115.01 164.053 Q2109.44 164.053 2106.26 160.442 Q2103.12 156.808 2103.12 150.442 Q2103.12 144.053 2106.26 140.442 Q2109.44 136.831 2115.01 136.831 Z" fill="#000000" fill-rule="evenodd" fill-opacity="1" /><path clip-path="url(#clip650)" d="M2155.52 147.734 L2155.52 163.382 L2151.26 163.382 L2151.26 147.873 Q2151.26 144.192 2149.83 142.363 Q2148.39 140.535 2145.52 140.535 Q2142.07 140.535 2140.08 142.734 Q2138.09 144.933 2138.09 148.729 L2138.09 163.382 L2133.81 163.382 L2133.81 137.456 L2138.09 137.456 L2138.09 141.484 Q2139.62 139.146 2141.68 137.988 Q2143.76 136.831 2146.47 136.831 Q2150.94 136.831 2153.23 139.609 Q2155.52 142.363 2155.52 147.734 Z" fill="#000000" fill-rule="evenodd" fill-opacity="1" /><path clip-path="url(#clip650)" d="M2189.32 127.41 Q2186.22 132.734 2184.71 137.942 Q2183.21 143.15 2183.21 148.498 Q2183.21 153.845 2184.71 159.099 Q2186.24 164.331 2189.32 169.632 L2185.62 169.632 Q2182.14 164.192 2180.41 158.937 Q2178.69 153.683 2178.69 148.498 Q2178.69 143.336 2180.41 138.104 Q2182.12 132.873 2185.62 127.41 L2189.32 127.41 Z" fill="#000000" fill-rule="evenodd" fill-opacity="1" /><path clip-path="url(#clip650)" d="M2210.71 127.363 L2210.71 130.905 L2206.63 130.905 Q2204.34 130.905 2203.44 131.831 Q2202.56 132.757 2202.56 135.164 L2202.56 137.456 L2209.57 137.456 L2209.57 140.766 L2202.56 140.766 L2202.56 163.382 L2198.28 163.382 L2198.28 140.766 L2194.2 140.766 L2194.2 137.456 L2198.28 137.456 L2198.28 135.65 Q2198.28 131.322 2200.29 129.354 Q2202.31 127.363 2206.68 127.363 L2210.71 127.363 Z" fill="#000000" fill-rule="evenodd" fill-opacity="1" /><path clip-path="url(#clip650)" d="M2235.82 147.734 L2235.82 163.382 L2231.56 163.382 L2231.56 147.873 Q2231.56 144.192 2230.13 142.363 Q2228.69 140.535 2225.82 140.535 Q2222.37 140.535 2220.38 142.734 Q2218.39 144.933 2218.39 148.729 L2218.39 163.382 L2214.11 163.382 L2214.11 127.363 L2218.39 127.363 L2218.39 141.484 Q2219.92 139.146 2221.98 137.988 Q2224.06 136.831 2226.77 136.831 Q2231.24 136.831 2233.53 139.609 Q2235.82 142.363 2235.82 147.734 Z" fill="#000000" fill-rule="evenodd" fill-opacity="1" /><path clip-path="url(#clip650)" d="M2243.65 127.41 L2247.35 127.41 Q2250.82 132.873 2252.54 138.104 Q2254.27 143.336 2254.27 148.498 Q2254.27 153.683 2252.54 158.937 Q2250.82 164.192 2247.35 169.632 L2243.65 169.632 Q2246.73 164.331 2248.23 159.099 Q2249.76 153.845 2249.76 148.498 Q2249.76 143.15 2248.23 137.942 Q2246.73 132.734 2243.65 127.41 Z" fill="#000000" fill-rule="evenodd" fill-opacity="1" /></svg>
