<?xml version="1.0" encoding="utf-8"?>
<svg xmlns="http://www.w3.org/2000/svg" xmlns:xlink="http://www.w3.org/1999/xlink" width="600" height="400" viewBox="0 0 2400 1600">
<defs>
  <clipPath id="clip900">
    <rect x="0" y="0" width="2400" height="1600"/>
  </clipPath>
</defs>
<path clip-path="url(#clip900)" d="
M0 1600 L2400 1600 L2400 0 L0 0  Z
  " fill="#ffffff" fill-rule="evenodd" fill-opacity="1"/>
<defs>
  <clipPath id="clip901">
    <rect x="480" y="0" width="1681" height="1600"/>
  </clipPath>
</defs>
<path clip-path="url(#clip900)" d="
M136.633 1457.78 L2352.76 1457.78 L2352.76 47.2441 L136.633 47.2441  Z
  " fill="#ffffff" fill-rule="evenodd" fill-opacity="1"/>
<defs>
  <clipPath id="clip902">
    <rect x="136" y="47" width="2217" height="1412"/>
  </clipPath>
</defs>
<polyline clip-path="url(#clip902)" style="stroke:#000000; stroke-linecap:round; stroke-linejoin:round; stroke-width:2; stroke-opacity:0.1; fill:none" points="
  1175.73,1457.78 1175.73,47.2441 
  "/>
<polyline clip-path="url(#clip902)" style="stroke:#000000; stroke-linecap:round; stroke-linejoin:round; stroke-width:2; stroke-opacity:0.1; fill:none" points="
  1196.39,1457.78 1196.39,47.2441 
  "/>
<polyline clip-path="url(#clip900)" style="stroke:#000000; stroke-linecap:round; stroke-linejoin:round; stroke-width:4; stroke-opacity:1; fill:none" points="
  136.633,1457.78 2352.76,1457.78 
  "/>
<polyline clip-path="url(#clip900)" style="stroke:#000000; stroke-linecap:round; stroke-linejoin:round; stroke-width:4; stroke-opacity:1; fill:none" points="
  1175.73,1457.78 1175.73,1438.88 
  "/>
<polyline clip-path="url(#clip900)" style="stroke:#000000; stroke-linecap:round; stroke-linejoin:round; stroke-width:4; stroke-opacity:1; fill:none" points="
  1196.39,1457.78 1196.39,1438.88 
  "/>
<path clip-path="url(#clip900)" d="M1167.73 1539.45 L1171.41 1539.45 L1171.41 1535.07 L1173.07 1535.07 L1173.07 1539.45 L1180.1 1539.45 Q1181.69 1539.45 1182.14 1539.02 Q1182.59 1538.58 1182.59 1537.25 L1182.59 1535.07 L1184.37 1535.07 L1184.37 1537.25 Q1184.37 1539.72 1183.46 1540.66 Q1182.53 1541.59 1180.1 1541.59 L1173.07 1541.59 L1173.07 1543.16 L1171.41 1543.16 L1171.41 1541.59 L1167.73 1541.59 L1167.73 1539.45 Z" fill="#000000" fill-rule="evenodd" fill-opacity="1" /><path clip-path="url(#clip900)" d="M1179.26 1532.48 L1171.41 1532.48 L1171.41 1530.35 L1179.18 1530.35 Q1181.02 1530.35 1181.94 1529.64 Q1182.86 1528.92 1182.86 1527.48 Q1182.86 1525.76 1181.76 1524.76 Q1180.66 1523.76 1178.76 1523.76 L1171.41 1523.76 L1171.41 1521.63 L1184.37 1521.63 L1184.37 1523.76 L1182.38 1523.76 Q1183.56 1524.53 1184.14 1525.56 Q1184.71 1526.58 1184.71 1527.94 Q1184.71 1530.17 1183.32 1531.33 Q1181.93 1532.48 1179.26 1532.48 M1171.1 1527.13 L1171.1 1527.13 Z" fill="#000000" fill-rule="evenodd" fill-opacity="1" /><path clip-path="url(#clip900)" d="M1176.55 1506.47 L1184.37 1506.47 L1184.37 1508.6 L1176.62 1508.6 Q1174.78 1508.6 1173.86 1509.31 Q1172.95 1510.03 1172.95 1511.47 Q1172.95 1513.19 1174.05 1514.19 Q1175.15 1515.18 1177.05 1515.18 L1184.37 1515.18 L1184.37 1517.32 L1171.41 1517.32 L1171.41 1515.18 L1173.42 1515.18 Q1172.26 1514.42 1171.68 1513.39 Q1171.1 1512.35 1171.1 1510.99 Q1171.1 1508.76 1172.49 1507.61 Q1173.86 1506.47 1176.55 1506.47 Z" fill="#000000" fill-rule="evenodd" fill-opacity="1" /><path clip-path="url(#clip900)" d="M1177.36 1491.13 L1178.4 1491.13 L1178.4 1500.92 Q1180.6 1500.78 1181.76 1499.6 Q1182.9 1498.41 1182.9 1496.29 Q1182.9 1495.07 1182.6 1493.92 Q1182.3 1492.76 1181.7 1491.63 L1183.71 1491.63 Q1184.2 1492.77 1184.45 1493.98 Q1184.71 1495.18 1184.71 1496.42 Q1184.71 1499.52 1182.9 1501.34 Q1181.1 1503.14 1178.02 1503.14 Q1174.84 1503.14 1172.97 1501.43 Q1171.1 1499.71 1171.1 1496.79 Q1171.1 1494.17 1172.79 1492.66 Q1174.47 1491.13 1177.36 1491.13 M1176.73 1493.26 Q1174.99 1493.28 1173.94 1494.24 Q1172.9 1495.19 1172.9 1496.77 Q1172.9 1498.55 1173.91 1499.63 Q1174.92 1500.69 1176.75 1500.85 L1176.73 1493.26 Z" fill="#000000" fill-rule="evenodd" fill-opacity="1" /><path clip-path="url(#clip900)" d="M1173.38 1479.1 L1166.36 1479.1 L1166.36 1476.98 L1184.37 1476.98 L1184.37 1479.1 L1182.43 1479.1 Q1183.59 1479.78 1184.15 1480.81 Q1184.71 1481.82 1184.71 1483.26 Q1184.71 1485.61 1182.83 1487.09 Q1180.96 1488.56 1177.9 1488.56 Q1174.85 1488.56 1172.97 1487.09 Q1171.1 1485.61 1171.1 1483.26 Q1171.1 1481.82 1171.66 1480.81 Q1172.22 1479.78 1173.38 1479.1 M1177.9 1486.36 Q1180.25 1486.36 1181.6 1485.4 Q1182.93 1484.43 1182.93 1482.74 Q1182.93 1481.05 1181.6 1480.08 Q1180.25 1479.1 1177.9 1479.1 Q1175.55 1479.1 1174.22 1480.08 Q1172.88 1481.05 1172.88 1482.74 Q1172.88 1484.43 1174.22 1485.4 Q1175.55 1486.36 1177.9 1486.36 Z" fill="#000000" fill-rule="evenodd" fill-opacity="1" /><path clip-path="url(#clip900)" d="M1199.92 1571.82 L1192.07 1571.82 L1192.07 1569.69 L1199.83 1569.69 Q1201.67 1569.69 1202.6 1568.98 Q1203.51 1568.26 1203.51 1566.82 Q1203.51 1565.1 1202.42 1564.1 Q1201.32 1563.1 1199.42 1563.1 L1192.07 1563.1 L1192.07 1560.97 L1205.03 1560.97 L1205.03 1563.1 L1203.04 1563.1 Q1204.22 1563.87 1204.8 1564.9 Q1205.37 1565.92 1205.37 1567.28 Q1205.37 1569.51 1203.98 1570.67 Q1202.59 1571.82 1199.92 1571.82 M1191.76 1566.47 L1191.76 1566.47 Z" fill="#000000" fill-rule="evenodd" fill-opacity="1" /><path clip-path="url(#clip900)" d="M1197.21 1545.81 L1205.03 1545.81 L1205.03 1547.94 L1197.28 1547.94 Q1195.44 1547.94 1194.52 1548.65 Q1193.61 1549.37 1193.61 1550.81 Q1193.61 1552.53 1194.71 1553.53 Q1195.81 1554.52 1197.7 1554.52 L1205.03 1554.52 L1205.03 1556.66 L1192.07 1556.66 L1192.07 1554.52 L1194.08 1554.52 Q1192.91 1553.76 1192.33 1552.73 Q1191.76 1551.69 1191.76 1550.33 Q1191.76 1548.1 1193.14 1546.95 Q1194.52 1545.81 1197.21 1545.81 Z" fill="#000000" fill-rule="evenodd" fill-opacity="1" /><path clip-path="url(#clip900)" d="M1188.39 1539.45 L1192.07 1539.45 L1192.07 1535.07 L1193.72 1535.07 L1193.72 1539.45 L1200.76 1539.45 Q1202.35 1539.45 1202.8 1539.02 Q1203.25 1538.58 1203.25 1537.25 L1203.25 1535.07 L1205.03 1535.07 L1205.03 1537.25 Q1205.03 1539.72 1204.12 1540.66 Q1203.19 1541.59 1200.76 1541.59 L1193.72 1541.59 L1193.72 1543.16 L1192.07 1543.16 L1192.07 1541.59 L1188.39 1541.59 L1188.39 1539.45 Z" fill="#000000" fill-rule="evenodd" fill-opacity="1" /><path clip-path="url(#clip900)" d="M1199.92 1532.48 L1192.07 1532.48 L1192.07 1530.35 L1199.83 1530.35 Q1201.67 1530.35 1202.6 1529.64 Q1203.51 1528.92 1203.51 1527.48 Q1203.51 1525.76 1202.42 1524.76 Q1201.32 1523.76 1199.42 1523.76 L1192.07 1523.76 L1192.07 1521.63 L1205.03 1521.63 L1205.03 1523.76 L1203.04 1523.76 Q1204.22 1524.53 1204.8 1525.56 Q1205.37 1526.58 1205.37 1527.94 Q1205.37 1530.17 1203.98 1531.33 Q1202.59 1532.48 1199.92 1532.48 M1191.76 1527.13 L1191.76 1527.13 Z" fill="#000000" fill-rule="evenodd" fill-opacity="1" /><path clip-path="url(#clip900)" d="M1197.21 1506.47 L1205.03 1506.47 L1205.03 1508.6 L1197.28 1508.6 Q1195.44 1508.6 1194.52 1509.31 Q1193.61 1510.03 1193.61 1511.47 Q1193.61 1513.19 1194.71 1514.19 Q1195.81 1515.18 1197.7 1515.18 L1205.03 1515.18 L1205.03 1517.32 L1192.07 1517.32 L1192.07 1515.18 L1194.08 1515.18 Q1192.91 1514.42 1192.33 1513.39 Q1191.76 1512.35 1191.76 1510.99 Q1191.76 1508.76 1193.14 1507.61 Q1194.52 1506.47 1197.21 1506.47 Z" fill="#000000" fill-rule="evenodd" fill-opacity="1" /><path clip-path="url(#clip900)" d="M1198.02 1491.13 L1199.06 1491.13 L1199.06 1500.92 Q1201.26 1500.78 1202.42 1499.6 Q1203.56 1498.41 1203.56 1496.29 Q1203.56 1495.07 1203.26 1493.92 Q1202.96 1492.76 1202.36 1491.63 L1204.37 1491.63 Q1204.86 1492.77 1205.11 1493.98 Q1205.37 1495.18 1205.37 1496.42 Q1205.37 1499.52 1203.56 1501.34 Q1201.76 1503.14 1198.68 1503.14 Q1195.49 1503.14 1193.63 1501.43 Q1191.76 1499.71 1191.76 1496.79 Q1191.76 1494.17 1193.45 1492.66 Q1195.12 1491.13 1198.02 1491.13 M1197.39 1493.26 Q1195.64 1493.28 1194.6 1494.24 Q1193.56 1495.19 1193.56 1496.77 Q1193.56 1498.55 1194.57 1499.63 Q1195.58 1500.69 1197.4 1500.85 L1197.39 1493.26 Z" fill="#000000" fill-rule="evenodd" fill-opacity="1" /><path clip-path="url(#clip900)" d="M1194.04 1479.1 L1187.02 1479.1 L1187.02 1476.98 L1205.03 1476.98 L1205.03 1479.1 L1203.09 1479.1 Q1204.24 1479.78 1204.81 1480.81 Q1205.37 1481.82 1205.37 1483.26 Q1205.37 1485.61 1203.49 1487.09 Q1201.62 1488.56 1198.56 1488.56 Q1195.51 1488.56 1193.63 1487.09 Q1191.76 1485.61 1191.76 1483.26 Q1191.76 1481.82 1192.32 1480.81 Q1192.88 1479.78 1194.04 1479.1 M1198.56 1486.36 Q1200.91 1486.36 1202.25 1485.4 Q1203.58 1484.43 1203.58 1482.74 Q1203.58 1481.05 1202.25 1480.08 Q1200.91 1479.1 1198.56 1479.1 Q1196.21 1479.1 1194.88 1480.08 Q1193.54 1481.05 1193.54 1482.74 Q1193.54 1484.43 1194.88 1485.4 Q1196.21 1486.36 1198.56 1486.36 Z" fill="#000000" fill-rule="evenodd" fill-opacity="1" /><polyline clip-path="url(#clip902)" style="stroke:#000000; stroke-linecap:round; stroke-linejoin:round; stroke-width:2; stroke-opacity:0.1; fill:none" points="
  136.633,1320.61 2352.76,1320.61 
  "/>
<polyline clip-path="url(#clip902)" style="stroke:#000000; stroke-linecap:round; stroke-linejoin:round; stroke-width:2; stroke-opacity:0.1; fill:none" points="
  136.633,1098.14 2352.76,1098.14 
  "/>
<polyline clip-path="url(#clip902)" style="stroke:#000000; stroke-linecap:round; stroke-linejoin:round; stroke-width:2; stroke-opacity:0.1; fill:none" points="
  136.633,875.668 2352.76,875.668 
  "/>
<polyline clip-path="url(#clip902)" style="stroke:#000000; stroke-linecap:round; stroke-linejoin:round; stroke-width:2; stroke-opacity:0.1; fill:none" points="
  136.633,653.197 2352.76,653.197 
  "/>
<polyline clip-path="url(#clip902)" style="stroke:#000000; stroke-linecap:round; stroke-linejoin:round; stroke-width:2; stroke-opacity:0.1; fill:none" points="
  136.633,430.725 2352.76,430.725 
  "/>
<polyline clip-path="url(#clip902)" style="stroke:#000000; stroke-linecap:round; stroke-linejoin:round; stroke-width:2; stroke-opacity:0.1; fill:none" points="
  136.633,208.254 2352.76,208.254 
  "/>
<polyline clip-path="url(#clip900)" style="stroke:#000000; stroke-linecap:round; stroke-linejoin:round; stroke-width:4; stroke-opacity:1; fill:none" points="
  136.633,1457.78 136.633,47.2441 
  "/>
<polyline clip-path="url(#clip900)" style="stroke:#000000; stroke-linecap:round; stroke-linejoin:round; stroke-width:4; stroke-opacity:1; fill:none" points="
  136.633,1320.61 155.531,1320.61 
  "/>
<polyline clip-path="url(#clip900)" style="stroke:#000000; stroke-linecap:round; stroke-linejoin:round; stroke-width:4; stroke-opacity:1; fill:none" points="
  136.633,1098.14 155.531,1098.14 
  "/>
<polyline clip-path="url(#clip900)" style="stroke:#000000; stroke-linecap:round; stroke-linejoin:round; stroke-width:4; stroke-opacity:1; fill:none" points="
  136.633,875.668 155.531,875.668 
  "/>
<polyline clip-path="url(#clip900)" style="stroke:#000000; stroke-linecap:round; stroke-linejoin:round; stroke-width:4; stroke-opacity:1; fill:none" points="
  136.633,653.197 155.531,653.197 
  "/>
<polyline clip-path="url(#clip900)" style="stroke:#000000; stroke-linecap:round; stroke-linejoin:round; stroke-width:4; stroke-opacity:1; fill:none" points="
  136.633,430.725 155.531,430.725 
  "/>
<polyline clip-path="url(#clip900)" style="stroke:#000000; stroke-linecap:round; stroke-linejoin:round; stroke-width:4; stroke-opacity:1; fill:none" points="
  136.633,208.254 155.531,208.254 
  "/>
<path clip-path="url(#clip900)" d="M56.9643 1313.51 Q55.1588 1313.51 54.2444 1315.29 Q53.3417 1317.06 53.3417 1320.63 Q53.3417 1324.18 54.2444 1325.96 Q55.1588 1327.73 56.9643 1327.73 Q58.7814 1327.73 59.6842 1325.96 Q60.5986 1324.18 60.5986 1320.63 Q60.5986 1317.06 59.6842 1315.29 Q58.7814 1313.51 56.9643 1313.51 M56.9643 1311.66 Q59.8694 1311.66 61.3972 1313.96 Q62.9365 1316.25 62.9365 1320.63 Q62.9365 1324.99 61.3972 1327.3 Q59.8694 1329.59 56.9643 1329.59 Q54.0592 1329.59 52.5199 1327.3 Q50.9921 1324.99 50.9921 1320.63 Q50.9921 1316.25 52.5199 1313.96 Q54.0592 1311.66 56.9643 1311.66 Z" fill="#000000" fill-rule="evenodd" fill-opacity="1" /><path clip-path="url(#clip900)" d="M67.0453 1326.31 L69.4874 1326.31 L69.4874 1329.25 L67.0453 1329.25 L67.0453 1326.31 Z" fill="#000000" fill-rule="evenodd" fill-opacity="1" /><path clip-path="url(#clip900)" d="M74.9851 1327.28 L78.8045 1327.28 L78.8045 1314.1 L74.6494 1314.93 L74.6494 1312.8 L78.7813 1311.97 L81.1193 1311.97 L81.1193 1327.28 L84.9387 1327.28 L84.9387 1329.25 L74.9851 1329.25 L74.9851 1327.28 Z" fill="#000000" fill-rule="evenodd" fill-opacity="1" /><path clip-path="url(#clip900)" d="M94.6609 1313.51 Q92.8553 1313.51 91.941 1315.29 Q91.0382 1317.06 91.0382 1320.63 Q91.0382 1324.18 91.941 1325.96 Q92.8553 1327.73 94.6609 1327.73 Q96.478 1327.73 97.3808 1325.96 Q98.2951 1324.18 98.2951 1320.63 Q98.2951 1317.06 97.3808 1315.29 Q96.478 1313.51 94.6609 1313.51 M94.6609 1311.66 Q97.566 1311.66 99.0937 1313.96 Q100.633 1316.25 100.633 1320.63 Q100.633 1324.99 99.0937 1327.3 Q97.566 1329.59 94.6609 1329.59 Q91.7558 1329.59 90.2165 1327.3 Q88.6887 1324.99 88.6887 1320.63 Q88.6887 1316.25 90.2165 1313.96 Q91.7558 1311.66 94.6609 1311.66 Z" fill="#000000" fill-rule="evenodd" fill-opacity="1" /><path clip-path="url(#clip900)" d="M57.462 1091.04 Q55.6565 1091.04 54.7421 1092.82 Q53.8393 1094.59 53.8393 1098.16 Q53.8393 1101.71 54.7421 1103.49 Q55.6565 1105.26 57.462 1105.26 Q59.2791 1105.26 60.1819 1103.49 Q61.0962 1101.71 61.0962 1098.16 Q61.0962 1094.59 60.1819 1092.82 Q59.2791 1091.04 57.462 1091.04 M57.462 1089.19 Q60.3671 1089.19 61.8948 1091.49 Q63.4342 1093.78 63.4342 1098.16 Q63.4342 1102.52 61.8948 1104.82 Q60.3671 1107.12 57.462 1107.12 Q54.5569 1107.12 53.0176 1104.82 Q51.4898 1102.52 51.4898 1098.16 Q51.4898 1093.78 53.0176 1091.49 Q54.5569 1089.19 57.462 1089.19 Z" fill="#000000" fill-rule="evenodd" fill-opacity="1" /><path clip-path="url(#clip900)" d="M67.543 1103.84 L69.9851 1103.84 L69.9851 1106.78 L67.543 1106.78 L67.543 1103.84 Z" fill="#000000" fill-rule="evenodd" fill-opacity="1" /><path clip-path="url(#clip900)" d="M75.4827 1104.81 L79.3022 1104.81 L79.3022 1091.63 L75.1471 1092.46 L75.1471 1090.33 L79.279 1089.5 L81.617 1089.5 L81.617 1104.81 L85.4364 1104.81 L85.4364 1106.78 L75.4827 1106.78 L75.4827 1104.81 Z" fill="#000000" fill-rule="evenodd" fill-opacity="1" /><path clip-path="url(#clip900)" d="M90.1817 1089.5 L99.3599 1089.5 L99.3599 1091.47 L92.3229 1091.47 L92.3229 1095.7 Q92.8322 1095.53 93.3414 1095.45 Q93.8507 1095.36 94.3599 1095.36 Q97.2535 1095.36 98.9433 1096.94 Q100.633 1098.53 100.633 1101.24 Q100.633 1104.02 98.897 1105.58 Q97.1609 1107.12 94.0012 1107.12 Q92.9132 1107.12 91.7789 1106.93 Q90.6563 1106.74 89.4526 1106.37 L89.4526 1104.02 Q90.4942 1104.59 91.6053 1104.87 Q92.7164 1105.15 93.9549 1105.15 Q95.9572 1105.15 97.1261 1104.09 Q98.2951 1103.04 98.2951 1101.24 Q98.2951 1099.43 97.1261 1098.38 Q95.9572 1097.32 93.9549 1097.32 Q93.0174 1097.32 92.0799 1097.53 Q91.1539 1097.74 90.1817 1098.18 L90.1817 1089.5 Z" fill="#000000" fill-rule="evenodd" fill-opacity="1" /><path clip-path="url(#clip900)" d="M56.9643 868.567 Q55.1588 868.567 54.2444 870.35 Q53.3417 872.121 53.3417 875.685 Q53.3417 879.239 54.2444 881.021 Q55.1588 882.792 56.9643 882.792 Q58.7814 882.792 59.6842 881.021 Q60.5986 879.239 60.5986 875.685 Q60.5986 872.121 59.6842 870.35 Q58.7814 868.567 56.9643 868.567 M56.9643 866.716 Q59.8694 866.716 61.3972 869.019 Q62.9365 871.31 62.9365 875.685 Q62.9365 880.049 61.3972 882.352 Q59.8694 884.644 56.9643 884.644 Q54.0592 884.644 52.5199 882.352 Q50.9921 880.049 50.9921 875.685 Q50.9921 871.31 52.5199 869.019 Q54.0592 866.716 56.9643 866.716 Z" fill="#000000" fill-rule="evenodd" fill-opacity="1" /><path clip-path="url(#clip900)" d="M67.0453 881.368 L69.4874 881.368 L69.4874 884.308 L67.0453 884.308 L67.0453 881.368 Z" fill="#000000" fill-rule="evenodd" fill-opacity="1" /><path clip-path="url(#clip900)" d="M76.5938 882.34 L84.7535 882.34 L84.7535 884.308 L73.7814 884.308 L73.7814 882.34 Q75.1124 880.963 77.404 878.648 Q79.7072 876.322 80.2975 875.651 Q81.4202 874.389 81.86 873.521 Q82.3114 872.641 82.3114 871.797 Q82.3114 870.419 81.3392 869.551 Q80.3785 868.683 78.8276 868.683 Q77.7281 868.683 76.5012 869.065 Q75.286 869.447 73.8971 870.222 L73.8971 867.861 Q75.3091 867.294 76.536 867.005 Q77.7628 866.716 78.7813 866.716 Q81.4665 866.716 83.0637 868.058 Q84.6609 869.401 84.6609 871.646 Q84.6609 872.711 84.2558 873.672 Q83.8623 874.621 82.8091 875.917 Q82.5197 876.253 80.9688 877.861 Q79.4179 879.459 76.5938 882.34 Z" fill="#000000" fill-rule="evenodd" fill-opacity="1" /><path clip-path="url(#clip900)" d="M94.6609 868.567 Q92.8553 868.567 91.941 870.35 Q91.0382 872.121 91.0382 875.685 Q91.0382 879.239 91.941 881.021 Q92.8553 882.792 94.6609 882.792 Q96.478 882.792 97.3808 881.021 Q98.2951 879.239 98.2951 875.685 Q98.2951 872.121 97.3808 870.35 Q96.478 868.567 94.6609 868.567 M94.6609 866.716 Q97.566 866.716 99.0937 869.019 Q100.633 871.31 100.633 875.685 Q100.633 880.049 99.0937 882.352 Q97.566 884.644 94.6609 884.644 Q91.7558 884.644 90.2165 882.352 Q88.6887 880.049 88.6887 875.685 Q88.6887 871.31 90.2165 869.019 Q91.7558 866.716 94.6609 866.716 Z" fill="#000000" fill-rule="evenodd" fill-opacity="1" /><path clip-path="url(#clip900)" d="M57.462 646.096 Q55.6565 646.096 54.7421 647.878 Q53.8393 649.649 53.8393 653.214 Q53.8393 656.767 54.7421 658.55 Q55.6565 660.32 57.462 660.32 Q59.2791 660.32 60.1819 658.55 Q61.0962 656.767 61.0962 653.214 Q61.0962 649.649 60.1819 647.878 Q59.2791 646.096 57.462 646.096 M57.462 644.244 Q60.3671 644.244 61.8948 646.547 Q63.4342 648.839 63.4342 653.214 Q63.4342 657.577 61.8948 659.881 Q60.3671 662.172 57.462 662.172 Q54.5569 662.172 53.0176 659.881 Q51.4898 657.577 51.4898 653.214 Q51.4898 648.839 53.0176 646.547 Q54.5569 644.244 57.462 644.244 Z" fill="#000000" fill-rule="evenodd" fill-opacity="1" /><path clip-path="url(#clip900)" d="M67.543 658.897 L69.9851 658.897 L69.9851 661.837 L67.543 661.837 L67.543 658.897 Z" fill="#000000" fill-rule="evenodd" fill-opacity="1" /><path clip-path="url(#clip900)" d="M77.0915 659.869 L85.2512 659.869 L85.2512 661.837 L74.279 661.837 L74.279 659.869 Q75.61 658.492 77.9017 656.177 Q80.2049 653.85 80.7952 653.179 Q81.9179 651.918 82.3577 651.05 Q82.8091 650.17 82.8091 649.325 Q82.8091 647.948 81.8369 647.08 Q80.8762 646.212 79.3253 646.212 Q78.2258 646.212 76.9989 646.594 Q75.7837 646.975 74.3948 647.751 L74.3948 645.39 Q75.8068 644.823 77.0337 644.533 Q78.2605 644.244 79.279 644.244 Q81.9642 644.244 83.5614 645.587 Q85.1586 646.929 85.1586 649.175 Q85.1586 650.239 84.7535 651.2 Q84.36 652.149 83.3068 653.445 Q83.0174 653.781 81.4665 655.39 Q79.9156 656.987 77.0915 659.869 Z" fill="#000000" fill-rule="evenodd" fill-opacity="1" /><path clip-path="url(#clip900)" d="M90.1817 644.557 L99.3599 644.557 L99.3599 646.524 L92.3229 646.524 L92.3229 650.76 Q92.8322 650.587 93.3414 650.506 Q93.8507 650.413 94.3599 650.413 Q97.2535 650.413 98.9433 651.999 Q100.633 653.584 100.633 656.293 Q100.633 659.082 98.897 660.633 Q97.1609 662.172 94.0012 662.172 Q92.9132 662.172 91.7789 661.987 Q90.6563 661.802 89.4526 661.431 L89.4526 659.082 Q90.4942 659.649 91.6053 659.927 Q92.7164 660.205 93.9549 660.205 Q95.9572 660.205 97.1261 659.151 Q98.2951 658.098 98.2951 656.293 Q98.2951 654.487 97.1261 653.434 Q95.9572 652.381 93.9549 652.381 Q93.0174 652.381 92.0799 652.589 Q91.1539 652.797 90.1817 653.237 L90.1817 644.557 Z" fill="#000000" fill-rule="evenodd" fill-opacity="1" /><path clip-path="url(#clip900)" d="M56.9643 423.624 Q55.1588 423.624 54.2444 425.407 Q53.3417 427.178 53.3417 430.742 Q53.3417 434.296 54.2444 436.078 Q55.1588 437.849 56.9643 437.849 Q58.7814 437.849 59.6842 436.078 Q60.5986 434.296 60.5986 430.742 Q60.5986 427.178 59.6842 425.407 Q58.7814 423.624 56.9643 423.624 M56.9643 421.773 Q59.8694 421.773 61.3972 424.076 Q62.9365 426.367 62.9365 430.742 Q62.9365 435.106 61.3972 437.409 Q59.8694 439.701 56.9643 439.701 Q54.0592 439.701 52.5199 437.409 Q50.9921 435.106 50.9921 430.742 Q50.9921 426.367 52.5199 424.076 Q54.0592 421.773 56.9643 421.773 Z" fill="#000000" fill-rule="evenodd" fill-opacity="1" /><path clip-path="url(#clip900)" d="M67.0453 436.425 L69.4874 436.425 L69.4874 439.365 L67.0453 439.365 L67.0453 436.425 Z" fill="#000000" fill-rule="evenodd" fill-opacity="1" /><path clip-path="url(#clip900)" d="M81.6633 430.048 Q83.3415 430.407 84.279 431.541 Q85.2281 432.675 85.2281 434.342 Q85.2281 436.9 83.4688 438.3 Q81.7096 439.701 78.4688 439.701 Q77.3809 439.701 76.2235 439.481 Q75.0776 439.272 73.8508 438.844 L73.8508 436.587 Q74.823 437.154 75.9804 437.444 Q77.1378 437.733 78.3994 437.733 Q80.5984 437.733 81.7443 436.865 Q82.9017 435.997 82.9017 434.342 Q82.9017 432.814 81.8253 431.958 Q80.7605 431.09 78.8508 431.09 L76.8369 431.09 L76.8369 429.168 L78.9434 429.168 Q80.6679 429.168 81.5822 428.485 Q82.4966 427.791 82.4966 426.495 Q82.4966 425.164 81.5475 424.458 Q80.61 423.74 78.8508 423.74 Q77.8901 423.74 76.7906 423.948 Q75.6911 424.157 74.3716 424.597 L74.3716 422.513 Q75.7026 422.143 76.86 421.958 Q78.029 421.773 79.0591 421.773 Q81.7211 421.773 83.272 422.988 Q84.823 424.191 84.823 426.252 Q84.823 427.687 84.0012 428.682 Q83.1795 429.666 81.6633 430.048 Z" fill="#000000" fill-rule="evenodd" fill-opacity="1" /><path clip-path="url(#clip900)" d="M94.6609 423.624 Q92.8553 423.624 91.941 425.407 Q91.0382 427.178 91.0382 430.742 Q91.0382 434.296 91.941 436.078 Q92.8553 437.849 94.6609 437.849 Q96.478 437.849 97.3808 436.078 Q98.2951 434.296 98.2951 430.742 Q98.2951 427.178 97.3808 425.407 Q96.478 423.624 94.6609 423.624 M94.6609 421.773 Q97.566 421.773 99.0937 424.076 Q100.633 426.367 100.633 430.742 Q100.633 435.106 99.0937 437.409 Q97.566 439.701 94.6609 439.701 Q91.7558 439.701 90.2165 437.409 Q88.6887 435.106 88.6887 430.742 Q88.6887 426.367 90.2165 424.076 Q91.7558 421.773 94.6609 421.773 Z" fill="#000000" fill-rule="evenodd" fill-opacity="1" /><path clip-path="url(#clip900)" d="M57.462 201.153 Q55.6565 201.153 54.7421 202.935 Q53.8393 204.706 53.8393 208.271 Q53.8393 211.824 54.7421 213.606 Q55.6565 215.377 57.462 215.377 Q59.2791 215.377 60.1819 213.606 Q61.0962 211.824 61.0962 208.271 Q61.0962 204.706 60.1819 202.935 Q59.2791 201.153 57.462 201.153 M57.462 199.301 Q60.3671 199.301 61.8948 201.604 Q63.4342 203.896 63.4342 208.271 Q63.4342 212.634 61.8948 214.937 Q60.3671 217.229 57.462 217.229 Q54.5569 217.229 53.0176 214.937 Q51.4898 212.634 51.4898 208.271 Q51.4898 203.896 53.0176 201.604 Q54.5569 199.301 57.462 199.301 Z" fill="#000000" fill-rule="evenodd" fill-opacity="1" /><path clip-path="url(#clip900)" d="M67.543 213.954 L69.9851 213.954 L69.9851 216.894 L67.543 216.894 L67.543 213.954 Z" fill="#000000" fill-rule="evenodd" fill-opacity="1" /><path clip-path="url(#clip900)" d="M82.1609 207.576 Q83.8392 207.935 84.7767 209.069 Q85.7257 210.204 85.7257 211.87 Q85.7257 214.428 83.9665 215.829 Q82.2072 217.229 78.9665 217.229 Q77.8786 217.229 76.7212 217.009 Q75.5753 216.801 74.3485 216.373 L74.3485 214.116 Q75.3207 214.683 76.4781 214.972 Q77.6355 215.262 78.8971 215.262 Q81.0961 215.262 82.242 214.394 Q83.3994 213.525 83.3994 211.87 Q83.3994 210.343 82.323 209.486 Q81.2582 208.618 79.3485 208.618 L77.3346 208.618 L77.3346 206.697 L79.441 206.697 Q81.1656 206.697 82.0799 206.014 Q82.9943 205.319 82.9943 204.023 Q82.9943 202.692 82.0452 201.986 Q81.1077 201.269 79.3485 201.269 Q78.3878 201.269 77.2883 201.477 Q76.1888 201.685 74.8693 202.125 L74.8693 200.042 Q76.2003 199.671 77.3577 199.486 Q78.5267 199.301 79.5568 199.301 Q82.2188 199.301 83.7697 200.516 Q85.3206 201.72 85.3206 203.78 Q85.3206 205.215 84.4989 206.211 Q83.6771 207.194 82.1609 207.576 Z" fill="#000000" fill-rule="evenodd" fill-opacity="1" /><path clip-path="url(#clip900)" d="M90.1817 199.614 L99.3599 199.614 L99.3599 201.581 L92.3229 201.581 L92.3229 205.817 Q92.8322 205.644 93.3414 205.563 Q93.8507 205.47 94.3599 205.47 Q97.2535 205.47 98.9433 207.056 Q100.633 208.641 100.633 211.35 Q100.633 214.139 98.897 215.69 Q97.1609 217.229 94.0012 217.229 Q92.9132 217.229 91.7789 217.044 Q90.6563 216.859 89.4526 216.488 L89.4526 214.139 Q90.4942 214.706 91.6053 214.984 Q92.7164 215.262 93.9549 215.262 Q95.9572 215.262 97.1261 214.208 Q98.2951 213.155 98.2951 211.35 Q98.2951 209.544 97.1261 208.491 Q95.9572 207.438 93.9549 207.438 Q93.0174 207.438 92.0799 207.646 Q91.1539 207.854 90.1817 208.294 L90.1817 199.614 Z" fill="#000000" fill-rule="evenodd" fill-opacity="1" /><polyline clip-path="url(#clip902)" style="stroke:#009af9; stroke-linecap:round; stroke-linejoin:round; stroke-width:4; stroke-opacity:1; fill:none" points="
  199.354,1208.62 209.552,1202.4 219.75,937.63 229.949,1417.85 240.147,875.181 250.346,1186.07 260.544,1282.41 270.743,867.544 280.941,1368.63 291.14,976.597 
  301.338,1133.14 311.536,1300.99 321.735,745.765 331.933,1358.66 342.132,980.015 352.33,975.928 362.529,1237.04 372.727,856.758 382.926,1270.01 393.124,971.15 
  403.322,921.907 413.521,1299.6 423.719,882.055 433.918,1195.28 444.116,1040.08 454.315,946.608 464.513,1347.58 474.712,695.14 484.91,1178.1 495.109,1027.3 
  505.307,800.652 515.505,1156.42 525.704,592.268 535.902,1059.22 546.101,1027.38 556.299,642.824 566.498,1312.54 576.696,790.439 586.895,1055.19 597.093,1156.03 
  607.291,782.23 617.49,1319.04 627.688,846.127 637.887,983.792 648.085,1300.18 658.284,634.999 668.482,1310.8 678.681,913.071 688.879,1015.21 699.077,1295.76 
  709.276,650.793 719.474,1266.62 729.673,1029.28 739.871,829.399 750.07,1254.43 760.268,713.875 770.467,1173.56 780.665,959.261 790.864,694.675 801.062,1273.81 
  811.26,757.32 821.459,1072.79 831.657,1031.22 841.856,780.906 852.054,1320.58 862.253,660.164 872.451,1107.56 882.65,1097.39 892.848,769.497 903.046,1259.85 
  913.245,734.076 923.443,1040.7 933.642,1132.76 943.84,589.863 954.039,1266.77 964.237,757.984 974.436,899.042 984.634,1113.86 994.832,567.574 1005.03,1166.19 
  1015.23,703.497 1025.43,675.31 1035.63,1075.15 1045.82,307.637 1056.02,997.215 1066.22,672.54 1076.42,657.037 1086.62,1180.38 1096.82,418.05 1107.02,1091.53 
  1117.21,944.948 1127.41,554.021 1137.61,1130.71 1147.81,553.171 1158.01,835.83 1168.21,866.567 1178.4,87.1648 1188.6,1160.08 1198.8,514.936 1209,838.544 
  1219.2,897.477 1229.4,599.257 1239.6,1162.76 1249.79,629.882 1259.99,838.32 1270.19,1097.61 1280.39,554.217 1290.59,1169.72 1300.79,703.366 1310.98,876.557 
  1321.18,1172.95 1331.38,611.793 1341.58,1220.81 1351.78,861.534 1361.98,795.312 1372.18,1215.02 1382.37,602.97 1392.57,1185.28 1402.77,875.305 1412.97,738.337 
  1423.17,1291.18 1433.37,629.561 1443.56,1156.92 1453.76,946.482 1463.96,786.634 1474.16,1317.27 1484.36,568.858 1494.56,1116.46 1504.75,1093.15 1514.95,702.845 
  1525.15,1255.45 1535.35,771.764 1545.55,930.891 1555.75,1124.74 1565.95,383.434 1576.14,1183.1 1586.34,703.52 1596.54,854.834 1606.74,1090.63 1616.94,706.726 
  1627.14,1250.69 1637.33,863.726 1647.53,885.526 1657.73,1239.07 1667.93,789.602 1678.13,1189.56 1688.33,910.813 1698.53,885.083 1708.72,1315.05 1718.92,721.433 
  1729.12,1242 1739.32,1065.7 1749.52,906.797 1759.72,1296.9 1769.91,816.075 1780.11,1158.9 1790.31,1107.49 1800.51,756.062 1810.71,1362.5 1820.91,777.021 
  1831.11,1156.39 1841.3,1094.21 1851.5,934.66 1861.7,1344.62 1871.9,787.912 1882.1,1101.9 1892.3,1255.42 1902.49,769.439 1912.69,1333.86 1922.89,919.981 
  1933.09,1048.74 1943.29,1350.55 1953.49,661.639 1963.69,1364.42 1973.88,1053.91 1984.08,982.32 1994.28,1318.6 2004.48,800.3 2014.68,1307.43 2024.88,1038.08 
  2035.07,922.616 2045.27,1325.2 2055.47,894.28 2065.67,1142.52 2075.87,1032.35 2086.07,815.512 2096.26,1255.89 2106.46,633.66 2116.66,1119.85 2126.86,1102.76 
  2137.06,879.161 2147.26,1314.78 2157.46,971.188 2167.65,1174.12 2177.85,1269.22 2188.05,838.167 2198.25,1397.89 2208.45,944.702 2218.65,1135.09 2228.84,1231.9 
  2239.04,997.912 2249.24,1378.91 2259.44,997.812 2269.64,1152.71 2279.84,1360.25 2290.04,924.29 
  "/>
<path clip-path="url(#clip900)" d="
M1604.34 197.942 L2278.89 197.942 L2278.89 94.2618 L1604.34 94.2618  Z
  " fill="#ffffff" fill-rule="evenodd" fill-opacity="1"/>
<polyline clip-path="url(#clip900)" style="stroke:#000000; stroke-linecap:round; stroke-linejoin:round; stroke-width:4; stroke-opacity:1; fill:none" points="
  1604.34,197.942 2278.89,197.942 2278.89,94.2618 1604.34,94.2618 1604.34,197.942 
  "/>
<polyline clip-path="url(#clip900)" style="stroke:#009af9; stroke-linecap:round; stroke-linejoin:round; stroke-width:4; stroke-opacity:1; fill:none" points="
  1628.96,146.102 1776.7,146.102 
  "/>
<path clip-path="url(#clip900)" d="M1814.73 150.349 Q1809.56 150.349 1807.57 151.53 Q1805.58 152.711 1805.58 155.558 Q1805.58 157.826 1807.06 159.169 Q1808.57 160.488 1811.14 160.488 Q1814.68 160.488 1816.81 157.988 Q1818.96 155.465 1818.96 151.299 L1818.96 150.349 L1814.73 150.349 M1823.22 148.59 L1823.22 163.382 L1818.96 163.382 L1818.96 159.447 Q1817.5 161.808 1815.33 162.942 Q1813.15 164.053 1810 164.053 Q1806.02 164.053 1803.66 161.831 Q1801.32 159.586 1801.32 155.836 Q1801.32 151.461 1804.24 149.238 Q1807.18 147.016 1812.99 147.016 L1818.96 147.016 L1818.96 146.599 Q1818.96 143.66 1817.02 142.062 Q1815.1 140.442 1811.6 140.442 Q1809.38 140.442 1807.27 140.975 Q1805.17 141.507 1803.22 142.572 L1803.22 138.637 Q1805.56 137.734 1807.76 137.294 Q1809.96 136.831 1812.04 136.831 Q1817.67 136.831 1820.44 139.748 Q1823.22 142.664 1823.22 148.59 Z" fill="#000000" fill-rule="evenodd" fill-opacity="1" /><path clip-path="url(#clip900)" d="M1831.56 153.15 L1831.56 137.456 L1835.81 137.456 L1835.81 152.988 Q1835.81 156.669 1837.25 158.521 Q1838.69 160.349 1841.56 160.349 Q1845 160.349 1847 158.15 Q1849.01 155.951 1849.01 152.155 L1849.01 137.456 L1853.27 137.456 L1853.27 163.382 L1849.01 163.382 L1849.01 159.4 Q1847.46 161.761 1845.4 162.919 Q1843.36 164.053 1840.65 164.053 Q1836.19 164.053 1833.87 161.275 Q1831.56 158.498 1831.56 153.15 M1842.27 136.831 L1842.27 136.831 Z" fill="#000000" fill-rule="evenodd" fill-opacity="1" /><path clip-path="url(#clip900)" d="M1866.25 130.095 L1866.25 137.456 L1875.03 137.456 L1875.03 140.766 L1866.25 140.766 L1866.25 154.84 Q1866.25 158.011 1867.11 158.914 Q1867.99 159.817 1870.65 159.817 L1875.03 159.817 L1875.03 163.382 L1870.65 163.382 Q1865.72 163.382 1863.85 161.553 Q1861.97 159.701 1861.97 154.84 L1861.97 140.766 L1858.85 140.766 L1858.85 137.456 L1861.97 137.456 L1861.97 130.095 L1866.25 130.095 Z" fill="#000000" fill-rule="evenodd" fill-opacity="1" /><path clip-path="url(#clip900)" d="M1890.68 140.442 Q1887.25 140.442 1885.26 143.127 Q1883.27 145.789 1883.27 150.442 Q1883.27 155.095 1885.24 157.78 Q1887.23 160.442 1890.68 160.442 Q1894.08 160.442 1896.07 157.757 Q1898.06 155.072 1898.06 150.442 Q1898.06 145.836 1896.07 143.15 Q1894.08 140.442 1890.68 140.442 M1890.68 136.831 Q1896.23 136.831 1899.4 140.442 Q1902.57 144.053 1902.57 150.442 Q1902.57 156.808 1899.4 160.442 Q1896.23 164.053 1890.68 164.053 Q1885.1 164.053 1881.93 160.442 Q1878.78 156.808 1878.78 150.442 Q1878.78 144.053 1881.93 140.442 Q1885.1 136.831 1890.68 136.831 Z" fill="#000000" fill-rule="evenodd" fill-opacity="1" /><path clip-path="url(#clip900)" d="M1928.29 138.451 L1928.29 142.433 Q1926.49 141.437 1924.66 140.951 Q1922.85 140.442 1921 140.442 Q1916.86 140.442 1914.56 143.081 Q1912.27 145.697 1912.27 150.442 Q1912.27 155.187 1914.56 157.826 Q1916.86 160.442 1921 160.442 Q1922.85 160.442 1924.66 159.956 Q1926.49 159.447 1928.29 158.451 L1928.29 162.386 Q1926.51 163.22 1924.59 163.636 Q1922.69 164.053 1920.54 164.053 Q1914.68 164.053 1911.23 160.373 Q1907.78 156.692 1907.78 150.442 Q1907.78 144.099 1911.25 140.465 Q1914.75 136.831 1920.81 136.831 Q1922.78 136.831 1924.66 137.248 Q1926.53 137.641 1928.29 138.451 Z" fill="#000000" fill-rule="evenodd" fill-opacity="1" /><path clip-path="url(#clip900)" d="M1945.74 140.442 Q1942.32 140.442 1940.33 143.127 Q1938.34 145.789 1938.34 150.442 Q1938.34 155.095 1940.3 157.78 Q1942.3 160.442 1945.74 160.442 Q1949.15 160.442 1951.14 157.757 Q1953.13 155.072 1953.13 150.442 Q1953.13 145.836 1951.14 143.15 Q1949.15 140.442 1945.74 140.442 M1945.74 136.831 Q1951.3 136.831 1954.47 140.442 Q1957.64 144.053 1957.64 150.442 Q1957.64 156.808 1954.47 160.442 Q1951.3 164.053 1945.74 164.053 Q1940.17 164.053 1936.99 160.442 Q1933.85 156.808 1933.85 150.442 Q1933.85 144.053 1936.99 140.442 Q1940.17 136.831 1945.74 136.831 Z" fill="#000000" fill-rule="evenodd" fill-opacity="1" /><path clip-path="url(#clip900)" d="M1979.73 141.437 Q1979.01 141.021 1978.15 140.836 Q1977.32 140.627 1976.3 140.627 Q1972.69 140.627 1970.74 142.988 Q1968.82 145.326 1968.82 149.724 L1968.82 163.382 L1964.54 163.382 L1964.54 137.456 L1968.82 137.456 L1968.82 141.484 Q1970.17 139.123 1972.32 137.988 Q1974.47 136.831 1977.55 136.831 Q1977.99 136.831 1978.52 136.9 Q1979.05 136.947 1979.7 137.062 L1979.73 141.437 Z" fill="#000000" fill-rule="evenodd" fill-opacity="1" /><path clip-path="url(#clip900)" d="M1998.38 141.437 Q1997.67 141.021 1996.81 140.836 Q1995.98 140.627 1994.96 140.627 Q1991.35 140.627 1989.4 142.988 Q1987.48 145.326 1987.48 149.724 L1987.48 163.382 L1983.2 163.382 L1983.2 137.456 L1987.48 137.456 L1987.48 141.484 Q1988.82 139.123 1990.98 137.988 Q1993.13 136.831 1996.21 136.831 Q1996.65 136.831 1997.18 136.9 Q1997.71 136.947 1998.36 137.062 L1998.38 141.437 Z" fill="#000000" fill-rule="evenodd" fill-opacity="1" /><path clip-path="url(#clip900)" d="M2023.99 149.354 L2023.99 151.437 L2004.4 151.437 Q2004.68 155.836 2007.04 158.15 Q2009.42 160.442 2013.66 160.442 Q2016.11 160.442 2018.41 159.84 Q2020.72 159.238 2022.99 158.035 L2022.99 162.062 Q2020.7 163.035 2018.29 163.544 Q2015.88 164.053 2013.41 164.053 Q2007.2 164.053 2003.57 160.442 Q1999.96 156.831 1999.96 150.674 Q1999.96 144.308 2003.38 140.581 Q2006.83 136.831 2012.67 136.831 Q2017.9 136.831 2020.93 140.211 Q2023.99 143.567 2023.99 149.354 M2019.73 148.104 Q2019.68 144.609 2017.76 142.525 Q2015.86 140.442 2012.71 140.442 Q2009.15 140.442 2006.99 142.456 Q2004.86 144.47 2004.54 148.127 L2019.73 148.104 Z" fill="#000000" fill-rule="evenodd" fill-opacity="1" /><path clip-path="url(#clip900)" d="M2030.98 127.363 L2035.23 127.363 L2035.23 163.382 L2030.98 163.382 L2030.98 127.363 Z" fill="#000000" fill-rule="evenodd" fill-opacity="1" /><path clip-path="url(#clip900)" d="M2055.93 150.349 Q2050.77 150.349 2048.78 151.53 Q2046.79 152.711 2046.79 155.558 Q2046.79 157.826 2048.27 159.169 Q2049.77 160.488 2052.34 160.488 Q2055.88 160.488 2058.01 157.988 Q2060.17 155.465 2060.17 151.299 L2060.17 150.349 L2055.93 150.349 M2064.42 148.59 L2064.42 163.382 L2060.17 163.382 L2060.17 159.447 Q2058.71 161.808 2056.53 162.942 Q2054.36 164.053 2051.21 164.053 Q2047.23 164.053 2044.86 161.831 Q2042.53 159.586 2042.53 155.836 Q2042.53 151.461 2045.44 149.238 Q2048.38 147.016 2054.19 147.016 L2060.17 147.016 L2060.17 146.599 Q2060.17 143.66 2058.22 142.062 Q2056.3 140.442 2052.8 140.442 Q2050.58 140.442 2048.48 140.975 Q2046.37 141.507 2044.42 142.572 L2044.42 138.637 Q2046.76 137.734 2048.96 137.294 Q2051.16 136.831 2053.24 136.831 Q2058.87 136.831 2061.65 139.748 Q2064.42 142.664 2064.42 148.59 Z" fill="#000000" fill-rule="evenodd" fill-opacity="1" /><path clip-path="url(#clip900)" d="M2077.41 130.095 L2077.41 137.456 L2086.18 137.456 L2086.18 140.766 L2077.41 140.766 L2077.41 154.84 Q2077.41 158.011 2078.27 158.914 Q2079.15 159.817 2081.81 159.817 L2086.18 159.817 L2086.18 163.382 L2081.81 163.382 Q2076.88 163.382 2075 161.553 Q2073.13 159.701 2073.13 154.84 L2073.13 140.766 L2070 140.766 L2070 137.456 L2073.13 137.456 L2073.13 130.095 L2077.41 130.095 Z" fill="#000000" fill-rule="evenodd" fill-opacity="1" /><path clip-path="url(#clip900)" d="M2091.79 137.456 L2096.04 137.456 L2096.04 163.382 L2091.79 163.382 L2091.79 137.456 M2091.79 127.363 L2096.04 127.363 L2096.04 132.757 L2091.79 132.757 L2091.79 127.363 Z" fill="#000000" fill-rule="evenodd" fill-opacity="1" /><path clip-path="url(#clip900)" d="M2115 140.442 Q2111.58 140.442 2109.59 143.127 Q2107.6 145.789 2107.6 150.442 Q2107.6 155.095 2109.56 157.78 Q2111.55 160.442 2115 160.442 Q2118.41 160.442 2120.4 157.757 Q2122.39 155.072 2122.39 150.442 Q2122.39 145.836 2120.4 143.15 Q2118.41 140.442 2115 140.442 M2115 136.831 Q2120.56 136.831 2123.73 140.442 Q2126.9 144.053 2126.9 150.442 Q2126.9 156.808 2123.73 160.442 Q2120.56 164.053 2115 164.053 Q2109.42 164.053 2106.25 160.442 Q2103.1 156.808 2103.1 150.442 Q2103.1 144.053 2106.25 140.442 Q2109.42 136.831 2115 136.831 Z" fill="#000000" fill-rule="evenodd" fill-opacity="1" /><path clip-path="url(#clip900)" d="M2155.51 147.734 L2155.51 163.382 L2151.25 163.382 L2151.25 147.873 Q2151.25 144.192 2149.82 142.363 Q2148.38 140.535 2145.51 140.535 Q2142.06 140.535 2140.07 142.734 Q2138.08 144.933 2138.08 148.729 L2138.08 163.382 L2133.8 163.382 L2133.8 137.456 L2138.08 137.456 L2138.08 141.484 Q2139.61 139.146 2141.67 137.988 Q2143.75 136.831 2146.46 136.831 Q2150.93 136.831 2153.22 139.609 Q2155.51 142.363 2155.51 147.734 Z" fill="#000000" fill-rule="evenodd" fill-opacity="1" /><path clip-path="url(#clip900)" d="M2189.31 127.41 Q2186.21 132.734 2184.7 137.942 Q2183.2 143.15 2183.2 148.498 Q2183.2 153.845 2184.7 159.099 Q2186.23 164.331 2189.31 169.632 L2185.6 169.632 Q2182.13 164.192 2180.4 158.937 Q2178.68 153.683 2178.68 148.498 Q2178.68 143.336 2180.4 138.104 Q2182.11 132.873 2185.6 127.41 L2189.31 127.41 Z" fill="#000000" fill-rule="evenodd" fill-opacity="1" /><path clip-path="url(#clip900)" d="M2210.7 127.363 L2210.7 130.905 L2206.62 130.905 Q2204.33 130.905 2203.43 131.831 Q2202.55 132.757 2202.55 135.164 L2202.55 137.456 L2209.56 137.456 L2209.56 140.766 L2202.55 140.766 L2202.55 163.382 L2198.27 163.382 L2198.27 140.766 L2194.19 140.766 L2194.19 137.456 L2198.27 137.456 L2198.27 135.65 Q2198.27 131.322 2200.28 129.354 Q2202.29 127.363 2206.67 127.363 L2210.7 127.363 Z" fill="#000000" fill-rule="evenodd" fill-opacity="1" /><path clip-path="url(#clip900)" d="M2235.81 147.734 L2235.81 163.382 L2231.55 163.382 L2231.55 147.873 Q2231.55 144.192 2230.12 142.363 Q2228.68 140.535 2225.81 140.535 Q2222.36 140.535 2220.37 142.734 Q2218.38 144.933 2218.38 148.729 L2218.38 163.382 L2214.1 163.382 L2214.1 127.363 L2218.38 127.363 L2218.38 141.484 Q2219.91 139.146 2221.97 137.988 Q2224.05 136.831 2226.76 136.831 Q2231.23 136.831 2233.52 139.609 Q2235.81 142.363 2235.81 147.734 Z" fill="#000000" fill-rule="evenodd" fill-opacity="1" /><path clip-path="url(#clip900)" d="M2243.64 127.41 L2247.34 127.41 Q2250.81 132.873 2252.53 138.104 Q2254.26 143.336 2254.26 148.498 Q2254.26 153.683 2252.53 158.937 Q2250.81 164.192 2247.34 169.632 L2243.64 169.632 Q2246.72 164.331 2248.22 159.099 Q2249.75 153.845 2249.75 148.498 Q2249.75 143.15 2248.22 137.942 Q2246.72 132.734 2243.64 127.41 Z" fill="#000000" fill-rule="evenodd" fill-opacity="1" /></svg>
